<?xml version="1.0" encoding="utf-8"?>
<!-- Generator: Adobe Illustrator 17.1.0, SVG Export Plug-In . SVG Version: 6.00 Build 0)  -->
<!DOCTYPE svg PUBLIC "-//W3C//DTD SVG 1.1//EN" "http://www.w3.org/Graphics/SVG/1.1/DTD/svg11.dtd">
<svg version="1.1" id="MAN" xmlns="http://www.w3.org/2000/svg" xmlns:xlink="http://www.w3.org/1999/xlink" x="0px" y="0px"
	 viewBox="211.8 300.1 188.3 191.8" enable-background="new 211.8 300.1 188.3 191.8" xml:space="preserve">
<g>
	<g>
		<path fill="#FFFFFF" d="M221.8,473.1c-2.9,0-5.9-1.3-7.8-3.8c-3.4-4.3-2.7-10.6,1.6-14l168.3-133.6c4.3-3.4,10.6-2.7,14,1.6
			s2.7,10.6-1.6,14L228.1,470.9C226.2,472.4,224,473.1,221.8,473.1z"/>
	</g>
	<path fill="#FFFFFF" d="M264.8,320.1c11.4,0,21.8,8.3,23.3,20.2c2.1,12.9-6.7,24.9-19.7,26.9c-1.3,0.2-2.5,0.3-3.8,0.3
		c-11.4,0-21.3-8.3-23.2-20c-2.1-12.9,7.3-24.9,19.7-26.9C262.2,320.6,263.8,320.1,264.8,320.1 M264.8,300.1c-2.1,0-3.8,0.3-5.1,0.5
		h-0.2l-1.6,0.3c-23.7,3.9-39.9,26.3-36.1,49.8c3.4,21.3,21.5,36.8,42.9,36.8c2.3,0,4.6-0.2,6.9-0.6c11.5-1.8,21.6-8,28.4-17.3
		c6.8-9.3,9.6-20.8,7.9-32.3C305,316.1,286.5,300.1,264.8,300.1L264.8,300.1z"/>
	<path fill="#FFFFFF" d="M347.7,424.2c12.9,0,23.8,10.9,23.8,23.8c-0.5,13.5-10.9,23.8-23.8,23.8c-12.9,0-23.8-10.9-23.8-23.8
		S334.7,424.2,347.7,424.2 M347.7,404.2c-11.6,0-22.6,4.6-30.9,12.9c-8.3,8.3-12.9,19.3-12.9,30.9s4.6,22.6,12.9,30.9
		c8.3,8.3,19.3,12.9,30.9,12.9c23.6,0,42.9-18.9,43.8-43.1l0-0.4v-0.4c0-11.6-4.6-22.6-12.9-30.9
		C370.3,408.8,359.3,404.2,347.7,404.2L347.7,404.2z"/>
</g>
</svg>
