<?xml version="1.0" encoding="utf-8"?>
<!-- Generator: Adobe Illustrator 17.1.0, SVG Export Plug-In . SVG Version: 6.00 Build 0)  -->
<!DOCTYPE svg PUBLIC "-//W3C//DTD SVG 1.1//EN" "http://www.w3.org/Graphics/SVG/1.1/DTD/svg11.dtd">
<svg version="1.1" id="MAN" xmlns="http://www.w3.org/2000/svg" xmlns:xlink="http://www.w3.org/1999/xlink" x="0px" y="0px"
	 viewBox="18 183 576 425.9" enable-background="new 18 183 576 425.9" xml:space="preserve">
<g>
	<path fill="#FFFFFF" d="M398.1,335.8c0.1-0.5,0.1-1,0.1-1.6c0-36.1-21.5-67.3-52.3-81.5v-60.5c0-5.1-4.1-9.1-9.1-9.1h-57.3
		c-5.1,0-9.1,4.1-9.1,9.1v61c-29.1,14.1-49.6,44-51.8,80.5l0,0c-8.2,138.9-51.8,182.9-52.3,183.3l6.3,6.6v9.1h271.5
		c3.8,0,7.2-2.3,8.5-5.9c1.4-3.5,0.4-7.5-2.4-10.1C449.8,516.3,400.6,470.2,398.1,335.8z M288.7,201.3h39v45.2
		c-6.2-1.4-12.6-2.1-19.2-2.1c-6.8,0-13.4,0.8-19.8,2.3V201.3z M190.8,514.4c15.8-24.3,40.1-77.6,46.1-179.7
		c2.5-41.1,33.2-72.1,71.6-72.1c38.7,0,70.4,31,71.5,69.4c-0.1,0.6-0.1,1.1-0.1,1.7c1.5,101.5,28.3,156.2,45.1,180.6L190.8,514.4
		L190.8,514.4z"/>
	<path fill="#FFFFFF" d="M360.9,540c-5,0-9.1,4.1-9.1,9.1c0,22.9-18.6,41.5-41.5,41.5c-22.9,0-41.5-18.6-41.5-41.5
		c0-5-4.1-9.1-9.1-9.1s-9.1,4.1-9.1,9.1c0,33,26.8,59.8,59.8,59.8s59.8-26.8,59.8-59.8C370,544.1,365.9,540,360.9,540z"/>
	<path fill="#FFFFFF" d="M127,461.4c-20.1-14.9-31.7-37.7-31.7-62.6c0-23.9,10.7-46,29.4-60.9c4-3.1,4.6-8.9,1.5-12.8
		c-3.1-4-8.9-4.6-12.8-1.5c-23.1,18.3-36.3,45.7-36.3,75.2c0,30.4,14.6,59.3,39.1,77.4c1.6,1.2,3.5,1.8,5.4,1.8
		c2.8,0,5.6-1.3,7.4-3.7C131.9,470.2,131.1,464.4,127,461.4z"/>
	<path fill="#FFFFFF" d="M36.3,398.8c0-39.7,17.2-77.3,47.2-103.4c3.8-3.3,4.2-9.1,0.9-12.9c-3.3-3.8-9.1-4.2-12.9-0.9
		C37.5,311.1,18,353.8,18,398.8c0,46.4,20.6,90,56.4,119.7c1.7,1.4,3.8,2.1,5.8,2.1c2.6,0,5.2-1.1,7-3.3c3.2-3.9,2.7-9.7-1.2-12.9
		C54.5,478.2,36.3,439.7,36.3,398.8z"/>
	<path fill="#FFFFFF" d="M498.7,326.7c-4-3.2-9.7-2.5-12.9,1.5c-3.1,4-2.5,9.7,1.5,12.8c18.7,14.9,29.4,37.1,29.4,60.9
		c0,24.9-11.6,47.8-31.7,62.6c-4.1,3-4.9,8.7-1.9,12.8c1.8,2.4,4.6,3.7,7.4,3.7c1.9,0,3.8-0.6,5.4-1.8c24.5-18.1,39.1-47,39.1-77.4
		C535,372.4,521.7,345,498.7,326.7z"/>
	<path fill="#FFFFFF" d="M540.5,284.7c-3.8-3.3-9.6-2.9-12.9,0.9c-3.3,3.8-2.9,9.6,0.9,12.9c30,26,47.2,63.7,47.2,103.4
		c0,40.9-18.2,79.4-49.8,105.6c-3.9,3.2-4.4,9-1.2,12.9c1.8,2.2,4.4,3.3,7.1,3.3c2.1,0,4.1-0.7,5.8-2.1
		c35.9-29.7,56.5-73.3,56.5-119.7C594,356.9,574.5,314.2,540.5,284.7z"/>
</g>
</svg>
