<?xml version="1.0" encoding="utf-8"?>
<!-- Generator: Adobe Illustrator 17.1.0, SVG Export Plug-In . SVG Version: 6.00 Build 0)  -->
<!DOCTYPE svg PUBLIC "-//W3C//DTD SVG 1.1//EN" "http://www.w3.org/Graphics/SVG/1.1/DTD/svg11.dtd">
<svg version="1.1" id="MAN" xmlns="http://www.w3.org/2000/svg" xmlns:xlink="http://www.w3.org/1999/xlink" x="0px" y="0px"
	 viewBox="45.9 127.1 520.2 537.9" enable-background="new 45.9 127.1 520.2 537.9" xml:space="preserve">
<g>
	<path fill="#FFFFFF" d="M473.6,392.5c-1.4-3.4-4.8-5.6-8.4-5.6H359.4l61.2-248.6c1.1-5-2-9.9-7-10.9c-3.1-0.7-6.3,0.3-8.5,2.5
		L146.5,389.5c-3.6,3.6-3.6,9.4,0,13c1.7,1.7,4,2.7,6.5,2.7h105.7l-61.2,248.6c-1.1,5,2,9.9,7,10.9c3.1,0.7,6.3-0.3,8.5-2.5
		l258.6-259.7C474.2,399.8,475,395.9,473.6,392.5z M223.4,626.1l56.1-227.8c1.2-4.9-1.8-9.9-6.7-11.1c-0.7-0.2-1.5-0.3-2.3-0.3
		h-95.3l219.6-220.9l-55.9,227.8c-1.2,4.9,1.8,9.9,6.7,11.1c0.7,0.2,1.4,0.3,2.2,0.3H443L223.4,626.1z"/>
	<path fill="#FFFFFF" d="M437.9,508.9c-3.7-3.5-9.5-3.3-13,0.5c-3.3,3.5-3.3,9,0,12.5l73.4,73.4c3.7,3.5,9.5,3.3,13-0.5
		c3.3-3.5,3.3-9,0-12.5L437.9,508.9z"/>
	<path fill="#FFFFFF" d="M174.4,273.6c5.1,0,9.2-4.1,9.2-9.2c0-2.4-1-4.8-2.7-6.5l-73.4-73.4c-3.7-3.5-9.5-3.3-13,0.5
		c-3.3,3.5-3.3,9,0,12.5l73.4,73.4C169.7,272.6,172,273.6,174.4,273.6z"/>
	<path fill="#FFFFFF" d="M421.9,267.8c3.6,3.6,9.4,3.6,13,0l73.4-73.4c3.5-3.7,3.3-9.5-0.5-13c-3.5-3.3-9-3.3-12.5,0l-73.4,73.4
		C418.3,258.5,418.3,264.3,421.9,267.8z"/>
	<path fill="#FFFFFF" d="M171,511.9l-73.4,73.4c-3.7,3.5-3.9,9.3-0.5,13c3.5,3.7,9.3,3.9,13,0.5c0.2-0.1,0.3-0.3,0.5-0.5l73.4-73.4
		c3.5-3.7,3.3-9.5-0.5-13C180,508.6,174.5,508.6,171,511.9L171,511.9z"/>
	<circle fill="#FFFFFF" cx="116.3" cy="469.4" r="15.3"/>
	<circle fill="#FFFFFF" cx="61.2" cy="426.6" r="15.3"/>
	<circle fill="#FFFFFF" cx="550.8" cy="347" r="15.3"/>
	<circle fill="#FFFFFF" cx="195.8" cy="194" r="15.3"/>
</g>
</svg>
