<?xml version="1.0" encoding="utf-8"?>
<!-- Generator: Adobe Illustrator 17.1.0, SVG Export Plug-In . SVG Version: 6.00 Build 0)  -->
<!DOCTYPE svg PUBLIC "-//W3C//DTD SVG 1.1//EN" "http://www.w3.org/Graphics/SVG/1.1/DTD/svg11.dtd">
<svg version="1.1" id="MAN" xmlns="http://www.w3.org/2000/svg" xmlns:xlink="http://www.w3.org/1999/xlink" x="0px" y="0px"
	 viewBox="0.1 87.8 611.9 616.4" enable-background="new 0.1 87.8 611.9 616.4" xml:space="preserve">
<g>
	<path fill="#FFFFFF" d="M27,395.9c-16.2,10.5-27,27.8-27,47.5C0,475.2,28.2,501,62.9,501h167.5c-7.9,14.8-15.9,39.2-14.1,75.4
		c3.6,74.2,48.6,112.8,74.7,123.8c15.3,6.5,32.1,5,44.8-4.1c12.6-9.1,27-30.2,23.1-78.3c-4-50,59.7-104.3,90.7-127.7v19.1
		c0,5.8,4.8,10.6,10.6,10.6h141.1c5.8,0,10.6-4.8,10.6-10.6V124.4c0-5.8-4.8-10.6-10.6-10.6h-141c-5.8,0-10.6,4.8-10.6,10.6v19.4
		c-40.1-14.4-153-53.3-208.8-55.2l-112-0.8c-34.6,0-62.8,27-62.8,60.2c0,15.3,6,29.2,15.8,39.9c-29.9,4.7-52.8,29.5-52.8,59.4
		c0,15.9,6.5,30.4,17.1,41.2c-26.5,7.1-46.1,30.4-46.1,58C0.1,366.9,10.7,385,27,395.9z M590.7,135v363.5H471V470c0-0.2,0-0.6,0-0.8
		v-310c0-0.2,0-0.6,0-0.8V135H590.7L590.7,135z M62.9,307.5h54.6c0,0,0,0,0.1,0h11.2c5.8,0,10.6-4.8,10.6-10.6
		c0-5.8-4.8-10.6-10.6-10.6H91.9c-22.9,0-41.6-17.4-41.6-38.9s18.7-38.9,41.6-38.9h36.7h0.1h39.2c5.8,0,10.6-4.8,10.6-10.6
		s-4.8-10.6-10.6-10.6h-39c0,0,0,0-0.1,0h-0.1c-22.8-0.1-41.4-17.5-41.4-39s18.6-38.9,41.4-38.9l111.6,0.8
		c55.5,1.9,178.7,45.5,209.3,56.6v297.3c-23,15.9-117.6,85.3-112,155.6c2.3,29.8-2.7,51-14.4,59.4c-9.7,7-20.8,3.2-24,1.8
		c-21.5-9.1-58.7-41.5-61.7-105.2c-2.8-55.4,19.6-76.1,20.5-76.8c3.4-2.9,4.7-7.6,3.2-11.8c-1.5-4.2-5.5-7-10.1-7H62.9
		c-22.9,0-41.5-16.4-41.5-36.4c0-20.1,18.6-36.6,41.5-36.6h45.6c5.8,0,10.6-4.8,10.6-10.6c0-5.8-4.8-10.6-10.6-10.6H62.9
		c-22.9,0-41.5-17.4-41.5-38.9C21.4,325,40,307.5,62.9,307.5z"/>
</g>
</svg>
