<?xml version="1.0" encoding="utf-8"?>
<!-- Generator: Adobe Illustrator 17.1.0, SVG Export Plug-In . SVG Version: 6.00 Build 0)  -->
<!DOCTYPE svg PUBLIC "-//W3C//DTD SVG 1.1//EN" "http://www.w3.org/Graphics/SVG/1.1/DTD/svg11.dtd">
<svg version="1.1" id="MAN" xmlns="http://www.w3.org/2000/svg" xmlns:xlink="http://www.w3.org/1999/xlink" x="0px" y="0px"
	 viewBox="274.3 366.8 63.4 58.4" enable-background="new 274.3 366.8 63.4 58.4" xml:space="preserve">
<g>
	<path fill="#6C5C53" d="M328.9,366.8h-45.8c-4.8,0-8.8,3.9-8.8,8.8v26.3c0,4.8,3.9,8.8,8.8,8.8h4.5V424c0,0.6,0.5,1.2,1.2,1.2
		c0.3,0,0.6-0.1,0.8-0.3l15.3-14.2h24c4.8,0,8.8-3.9,8.8-8.8v-26.3C337.7,370.8,333.8,366.8,328.9,366.8z M335.3,401.9
		c0,3.6-2.9,6.4-6.4,6.4h-24.5c-0.3,0-0.6,0.1-0.8,0.3L290,421.3v-11.8c0-0.6-0.5-1.2-1.2-1.2h-5.7c-3.6,0-6.4-2.9-6.4-6.4v-26.3
		c0-3.6,2.9-6.4,6.4-6.4h45.8c3.6,0,6.4,2.9,6.4,6.4V401.9z"/>
	<path fill="#6C5C53" d="M286.5,384.3c-2.5,0-4.4,2-4.4,4.4c0,2.5,2,4.4,4.4,4.4c2.5,0,4.4-2,4.4-4.4
		C291,386.3,289,384.3,286.5,384.3z M286.5,390.3c-0.9,0-1.5-0.7-1.5-1.5c0-0.9,0.7-1.5,1.5-1.5c0.9,0,1.5,0.7,1.5,1.5
		C288.1,389.6,287.4,390.3,286.5,390.3L286.5,390.3L286.5,390.3z"/>
	<path fill="#6C5C53" d="M299.2,384.3c-2.5,0-4.4,2-4.4,4.4c0,2.5,2,4.4,4.4,4.4c2.5,0,4.4-2,4.4-4.4
		C303.6,386.3,301.6,384.3,299.2,384.3z M299.2,390.3c-0.9,0-1.5-0.7-1.5-1.5c0-0.9,0.7-1.5,1.5-1.5c0.9,0,1.5,0.7,1.5,1.5
		C300.7,389.6,300,390.3,299.2,390.3L299.2,390.3L299.2,390.3z"/>
	<path fill="#6C5C53" d="M311.8,384.3c-2.5,0-4.4,2-4.4,4.4c0,2.5,2,4.4,4.4,4.4c2.5,0,4.4-2,4.4-4.4
		C316.3,386.3,314.3,384.3,311.8,384.3z M311.8,390.3c-0.9,0-1.5-0.7-1.5-1.5c0-0.9,0.7-1.5,1.5-1.5c0.9,0,1.5,0.7,1.5,1.5
		C313.4,389.6,312.7,390.3,311.8,390.3L311.8,390.3L311.8,390.3z"/>
	<path fill="#6C5C53" d="M325.4,384.4c-2.4-0.5-4.8,1-5.3,3.4c-0.5,2.4,1,4.8,3.4,5.3s4.8-1,5.3-3.4c0.2-1.2,0-2.4-0.6-3.3
		C327.6,385.3,326.6,384.6,325.4,384.4z M326,389.1c-0.2,0.8-1,1.4-1.8,1.2c-0.8-0.2-1.4-1-1.2-1.8c0.2-0.8,1-1.4,1.8-1.2
		C325.6,387.4,326.2,388.2,326,389.1L326,389.1z"/>
</g>
</svg>
