<?xml version="1.0" encoding="utf-8"?>
<!-- Generator: Adobe Illustrator 17.1.0, SVG Export Plug-In . SVG Version: 6.00 Build 0)  -->
<!DOCTYPE svg PUBLIC "-//W3C//DTD SVG 1.1//EN" "http://www.w3.org/Graphics/SVG/1.1/DTD/svg11.dtd">
<svg version="1.1" id="MAN" xmlns="http://www.w3.org/2000/svg" xmlns:xlink="http://www.w3.org/1999/xlink" x="0px" y="0px"
	 viewBox="92.9 253.9 426.2 284.2" enable-background="new 92.9 253.9 426.2 284.2" xml:space="preserve">
<g>
	<path fill="#6C5C53" d="M510.2,253.9H101.8c-4.9,0-8.9,4-8.9,8.9v266.4c0,4.9,4,8.9,8.9,8.9h408.4c4.9,0,8.9-4,8.9-8.9V262.8
		C519.1,257.9,515.1,253.9,510.2,253.9z M501.3,271.7v186.7l-66.4,0l-59.1-49.1c-3.2-2.7-7.9-2.7-11.2-0.1L307,455.1l-87.2-96
		c-1.7-1.9-4.1-2.9-6.6-2.9c0,0,0,0,0,0c-2.5,0-4.9,1-6.6,2.9l-95.9,104.8V271.7H501.3z M110.7,520.3v-30.2l102.4-111.9l86.2,95
		c3.2,3.5,8.5,3.9,12.1,1l58.4-46.6l56,46.5c1.6,1.3,3.6,2.1,5.7,2.1l69.6,0v44.2L110.7,520.3L110.7,520.3z"/>
	<path fill="#6C5C53" d="M427.2,366.2c19.4,0,35.3-15.8,35.3-35.3c0-19.4-15.8-35.3-35.3-35.3c-19.4,0-35.3,15.8-35.3,35.3
		S407.8,366.2,427.2,366.2z M427.2,313.5c9.6,0,17.5,7.8,17.5,17.5s-7.8,17.5-17.5,17.5c-9.6,0-17.5-7.8-17.5-17.5
		C409.7,321.3,417.6,313.5,427.2,313.5z"/>
</g>
</svg>
