<?xml version="1.0" encoding="utf-8"?>
<!-- Generator: Adobe Illustrator 17.1.0, SVG Export Plug-In . SVG Version: 6.00 Build 0)  -->
<!DOCTYPE svg PUBLIC "-//W3C//DTD SVG 1.1//EN" "http://www.w3.org/Graphics/SVG/1.1/DTD/svg11.dtd">
<svg version="1.1" id="MAN" xmlns="http://www.w3.org/2000/svg" xmlns:xlink="http://www.w3.org/1999/xlink" x="0px" y="0px"
	 viewBox="287.2 383.4 37.5 25.2" enable-background="new 287.2 383.4 37.5 25.2" xml:space="preserve">
<g>
	<path fill="#6C5C53" d="M289.5,396c1.7-2.2,8.1-10,16.2-10.5c0,0,0.1,0,0.1,0c0.1,0,0.2,0,0.2,0c0.2,0,0.4,0,0.6,0
		c7.7,0,14.2,8.3,15.8,10.6c-1.6,2.3-8.1,10.6-15.8,10.6C298.2,406.6,291.3,398.3,289.5,396z M306.9,408.6
		c9.8-0.2,17.4-11.6,17.7-12c0.2-0.3,0.2-0.8,0-1.1c-0.3-0.5-7.9-11.9-17.7-12l-2.1,0.1c-10,1.2-17.1,11.5-17.5,11.9
		c-0.2,0.3-0.2,0.8,0,1.2c0.3,0.5,7.5,10.7,17.5,11.9L306.9,408.6z"/>
	<path fill="#6C5C53" d="M313.2,396c0-4.1-3.2-7.5-7.2-7.5c-4,0-7.2,3.4-7.2,7.5s3.2,7.5,7.2,7.5C310,403.5,313.2,400.1,313.2,396z
		 M306,401.4c-2.8,0-5.1-2.4-5.1-5.4c0-3,2.3-5.4,5.1-5.4c2.8,0,5.1,2.4,5.1,5.4C311.1,399,308.8,401.4,306,401.4z"/>
</g>
</svg>
