<?xml version="1.0" encoding="utf-8"?>
<!-- Generator: Adobe Illustrator 17.1.0, SVG Export Plug-In . SVG Version: 6.00 Build 0)  -->
<!DOCTYPE svg PUBLIC "-//W3C//DTD SVG 1.1//EN" "http://www.w3.org/Graphics/SVG/1.1/DTD/svg11.dtd">
<svg version="1.1" id="MAN" xmlns="http://www.w3.org/2000/svg" xmlns:xlink="http://www.w3.org/1999/xlink" x="0px" y="0px"
	 viewBox="44.3 132.4 523.5 527.2" enable-background="new 44.3 132.4 523.5 527.2" xml:space="preserve">
<g>
	<path fill="#FFFFFF" d="M544.7,396.1c13.9-9,23.1-23.8,23.1-40.6c0-27.2-24.1-49.3-53.8-49.3H370.7c6.8-12.7,13.6-33.5,12.1-64.5
		c-3.1-63.5-41.6-96.5-63.9-105.9c-13.1-5.6-27.5-4.3-38.3,3.5c-10.8,7.8-23.1,25.8-19.8,67c3.4,42.8-51.1,89.2-77.6,109.2v-16.3
		c0-5-4.1-9.1-9.1-9.1H53.4c-5,0-9.1,4.1-9.1,9.1v329.1c0,5,4.1,9.1,9.1,9.1H174c5,0,9.1-4.1,9.1-9.1v-16.6
		c34.3,12.3,130.9,45.6,178.6,47.2l95.8,0.7c29.6,0,53.7-23.1,53.7-51.5c0-13.1-5.1-25-13.5-34.1c25.6-4,45.2-25.2,45.2-50.8
		c0-13.6-5.6-26-14.6-35.2c22.7-6.1,39.4-26,39.4-49.6C567.7,420.9,558.6,405.4,544.7,396.1z M62.5,619.2V308.3h102.4v24.4
		c0,0.2,0,0.5,0,0.7v265.1c0,0.2,0,0.5,0,0.7v20L62.5,619.2L62.5,619.2z M514,471.7h-46.7c0,0,0,0-0.1,0h-9.6c-5,0-9.1,4.1-9.1,9.1
		s4.1,9.1,9.1,9.1h31.6c19.6,0,35.6,14.9,35.6,33.3c0,18.4-16,33.3-35.6,33.3h-31.4c0,0-0.1,0-0.1,0h-33.5c-5,0-9.1,4.1-9.1,9.1
		c0,5,4.1,9.1,9.1,9.1h33.4c0,0,0,0,0.1,0h0.1c19.5,0.1,35.4,15,35.4,33.4c0,18.4-15.9,33.3-35.4,33.3l-95.5-0.7
		c-47.5-1.6-152.9-38.9-179-48.4V338c19.7-13.6,100.6-73,95.8-133.1c-2-25.5,2.3-43.6,12.3-50.8c8.3-6,17.8-2.7,20.5-1.5
		c18.4,7.8,50.2,35.5,52.8,90c2.4,47.4-16.8,65.1-17.5,65.7c-2.9,2.5-4,6.5-2.7,10.1c1.3,3.6,4.7,6,8.6,6h161
		c19.6,0,35.5,14,35.5,31.1c0,17.2-15.9,31.3-35.5,31.3h-39c-5,0-9.1,4.1-9.1,9.1c0,5,4.1,9.1,9.1,9.1h39
		c19.6,0,35.5,14.9,35.5,33.3C549.5,456.7,533.6,471.7,514,471.7z"/>
</g>
</svg>
