<?xml version="1.0" encoding="utf-8"?>
<!-- Generator: Adobe Illustrator 17.1.0, SVG Export Plug-In . SVG Version: 6.00 Build 0)  -->
<!DOCTYPE svg PUBLIC "-//W3C//DTD SVG 1.1//EN" "http://www.w3.org/Graphics/SVG/1.1/DTD/svg11.dtd">
<svg version="1.1" id="MAN" xmlns="http://www.w3.org/2000/svg" xmlns:xlink="http://www.w3.org/1999/xlink" x="0px" y="0px"
	 viewBox="39.6 187 532.8 418.1" enable-background="new 39.6 187 532.8 418.1" xml:space="preserve">
<g>
	<path fill="#FFFFFF" d="M55.9,256.4h60.5c4.4,28.9,29.4,51.1,59.5,51.1s55-22.2,59.5-51.1h327.8c5,0,9.1-4.1,9.1-9.1
		s-4.1-9.1-9.1-9.1H235.4C231,209.2,206.1,187,176,187s-55,22.2-59.5,51.1H55.9c-5.1,0-9.1,4.1-9.1,9.1S50.9,256.4,55.9,256.4z
		 M176,205.3c23.1,0,41.9,18.8,42,41.9c0,0,0,0,0,0s0,0,0,0c0,23.1-18.8,41.9-42,41.9c-23.1,0-42-18.8-42-42
		C134,224.1,152.8,205.3,176,205.3z"/>
	<path fill="#FFFFFF" d="M343.6,404.1c4.4,28.9,29.4,51.1,59.5,51.1s55-22.2,59.5-51.1H556c5,0,9.1-4.1,9.1-9.1
		c0-5.1-4.1-9.1-9.1-9.1h-93.5c-4.4-28.9-29.4-51.1-59.5-51.1c-30.1,0-55,22.2-59.5,51.1H48.8c-5.1,0-9.1,4.1-9.1,9.1
		c0,5,4.1,9.1,9.1,9.1L343.6,404.1L343.6,404.1z M403.1,353c23.1,0,42,18.8,42,42s-18.8,42-42,42c-23.1,0-41.9-18.8-42-41.9
		c0,0,0,0,0,0c0,0,0,0,0,0C361.1,371.8,379.9,353,403.1,353z"/>
	<path fill="#FFFFFF" d="M563.2,535.6H235.4c-4.4-28.9-29.4-51.1-59.5-51.1s-55,22.2-59.5,51.1H55.9c-5.1,0-9.1,4.1-9.1,9.1
		s4.1,9.1,9.1,9.1h60.5c4.4,28.9,29.4,51.1,59.5,51.1s55-22.2,59.5-51.1h327.8c5,0,9.1-4.1,9.1-9.1S568.3,535.6,563.2,535.6z
		 M176,586.7c-23.1,0-42-18.8-42-42s18.8-42,42-42s42,18.8,42,42S199.1,586.7,176,586.7z"/>
</g>
</svg>
