<?xml version="1.0" encoding="utf-8"?>
<!-- Generator: Adobe Illustrator 17.1.0, SVG Export Plug-In . SVG Version: 6.00 Build 0)  -->
<!DOCTYPE svg PUBLIC "-//W3C//DTD SVG 1.1//EN" "http://www.w3.org/Graphics/SVG/1.1/DTD/svg11.dtd">
<svg version="1.1" id="MAN" xmlns="http://www.w3.org/2000/svg" xmlns:xlink="http://www.w3.org/1999/xlink" x="0px" y="0px"
	 viewBox="282.6 375.1 46.8 41.8" enable-background="new 282.6 375.1 46.8 41.8" xml:space="preserve">
<g>
	<path fill="#FFFFFF" d="M294.9,392.4c0,1.4,1.2,2.6,2.6,2.6c1.4,0,2.6-1.2,2.6-2.6c0-1.4-1.2-2.6-2.6-2.6
		C296,389.8,294.9,391,294.9,392.4z M298.6,392.4c0,0.6-0.5,1.1-1.1,1.1c-0.6,0-1.1-0.5-1.1-1.1c0-0.6,0.5-1.1,1.1-1.1
		C298.1,391.3,298.6,391.8,298.6,392.4z"/>
	<path fill="#FFFFFF" d="M320.4,384.3c-0.4-0.2-0.8-0.1-1,0.3c-0.2,0.4-0.1,0.8,0.3,1c5.1,2.8,8.2,7.3,8.2,12.1
		c0,4.4-1.8,7.6-5.7,10.5c-0.1,0.1-0.2,0.3-0.3,0.4l-1.5,6.6h-2.8l-0.9-3.4c-0.1-0.2-0.2-0.4-0.4-0.5c-0.2-0.1-0.4-0.1-0.6,0
		c-2.4,0.9-4.3,1.2-7.6,1.2c-3.2,0-5.4-0.2-8.3-1.4c-0.2-0.1-0.4-0.1-0.6,0c-0.2,0.1-0.3,0.3-0.4,0.5l-0.8,3.6h-2.7l-1.5-7.2
		c0-0.2-0.2-0.4-0.3-0.5c-6.2-4.2-9.4-7.8-9.4-10.8v-2.8c0-1.2,0.9-2.2,1.9-2.2h3.3l0.1,0c0,0,0.1,0,0.1,0c0.3,0,0.6-0.1,0.7-0.4
		c1.1-1.8,2.6-3.4,4.6-4.8c0.2-0.1,0.3-0.4,0.3-0.6V380c2.7,0.3,4.5,2,5.3,3.7c0.2,0.4,0.6,0.6,1,0.4c0.4-0.2,0.6-0.6,0.4-1
		c-1-2.3-3.6-4.7-7.4-4.7c-0.4,0-0.7,0.3-0.7,0.7v6.6c-1.9,1.4-3.4,2.9-4.5,4.7H286c-1.9,0-3.4,1.7-3.4,3.7v2.8
		c0,5.1,7.1,10,9.8,11.8l1.5,7.5c0.1,0.3,0.4,0.6,0.7,0.6h3.9c0.3,0,0.6-0.2,0.7-0.6l0.8-3.3c2.7,1,5,1.2,8.1,1.2
		c2.8,0,4.8-0.2,7.4-1l0.8,3.2c0.1,0.3,0.4,0.6,0.7,0.6h3.9c0.4,0,0.7-0.2,0.7-0.6l1.5-7c4.2-3.1,6.1-6.8,6.1-11.6
		C329.4,392.4,326,387.4,320.4,384.3z"/>
	<path fill="#FFFFFF" d="M305.6,386.5c0.2,0,0.4-0.1,0.6-0.2c1-1.1,2.6-1.8,4.4-1.8c1.7,0,3.3,0.7,4.3,1.8c0.1,0.2,0.3,0.2,0.6,0.2
		c0,0,0,0,0,0c0.2,0,0.4-0.1,0.6-0.3c0.9-1.2,1.4-2.7,1.4-4.2c0-3.8-3.1-6.9-6.9-6.9c-3.8,0-6.9,3.1-6.9,6.9c0,1.5,0.5,3,1.4,4.2
		C305.2,386.4,305.4,386.5,305.6,386.5z M310.5,376.6c3,0,5.4,2.4,5.4,5.4c0,0.9-0.2,1.8-0.7,2.6c-1.3-1.1-3-1.7-4.7-1.7
		c-1.8,0-3.5,0.6-4.8,1.6c-0.4-0.8-0.6-1.6-0.6-2.6C305.1,379,307.6,376.6,310.5,376.6z"/>
</g>
</svg>
