<?xml version="1.0" encoding="utf-8"?>
<!-- Generator: Adobe Illustrator 17.1.0, SVG Export Plug-In . SVG Version: 6.00 Build 0)  -->
<!DOCTYPE svg PUBLIC "-//W3C//DTD SVG 1.1//EN" "http://www.w3.org/Graphics/SVG/1.1/DTD/svg11.dtd">
<svg version="1.1" id="MAN" xmlns="http://www.w3.org/2000/svg" xmlns:xlink="http://www.w3.org/1999/xlink" x="0px" y="0px"
	 viewBox="57.7 131.1 496.5 529.8" enable-background="new 57.7 131.1 496.5 529.8" xml:space="preserve">
<g>
	<path fill="#FFFFFF" d="M455.8,217.8C427,192,389.9,179,351.4,181.1c-38.6,2.1-74,19.2-99.7,47.9c-53.2,59.4-48.1,151,11.3,204.2
		c27.6,24.7,62,36.8,96.3,36.8c39.7,0,79.3-16.2,107.8-48.1C520.3,362.5,515.2,270.9,455.8,217.8z M453.5,409.7
		c-46.4,51.9-126.4,56.3-178.3,9.9c-51.9-46.4-56.3-126.4-9.9-178.3c22.5-25.1,53.4-40,87.1-41.9c2.4-0.1,4.8-0.2,7.2-0.2
		c31.1,0,60.7,11.3,84.1,32.2C495.5,277.8,499.9,357.8,453.5,409.7z"/>
	<path fill="#FFFFFF" d="M281.5,255.5c-3.4,3.8-3,9.6,0.7,12.9c1.8,1.6,3.9,2.3,6.1,2.3c2.5,0,5-1,6.8-3
		c31.9-35.6,86.7-38.6,122.3-6.8c3.8,3.4,9.5,3,12.9-0.7c3.4-3.8,3-9.6-0.7-12.9C386.5,208.7,320.1,212.4,281.5,255.5z"/>
	<path fill="#FFFFFF" d="M553.9,313.7c-3.1-51.8-26.2-99.3-65-133.7c-38.8-34.4-88.7-51.6-140.5-48.6c-51.8,3.1-99.3,26.2-133.7,65
		c-69,77.8-64,196,9.7,267.9l-31.5,36l-10.1-9c-3.8-3.4-9.5-3-12.9,0.7L60.1,614.8c-1.6,1.8-2.5,4.2-2.3,6.6c0.1,2.4,1.2,4.7,3,6.3
		l34.5,30.9c1.8,1.6,3.9,2.3,6.1,2.3c2.5,0,5-1,6.8-3L218.1,535c1.6-1.8,2.5-4.2,2.3-6.6c-0.1-2.4-1.2-4.7-3.1-6.3l-10.8-9.6
		l31.5-36c34.7,28,77.2,43.1,121.7,43.1c3.9,0,7.9-0.1,11.9-0.4c51.8-3.1,99.3-26.2,133.7-65S557,365.5,553.9,313.7z M100.7,638.8
		l-20.9-18.7l97.6-109.1l20.9,18.6L100.7,638.8z M491.6,442.1c-31.2,35.2-74.2,56.1-121.1,58.9c-46.9,2.9-92.1-12.8-127.3-44
		c-72.6-64.4-79.2-175.8-14.9-248.4c31.2-35.2,74.2-56.1,121.1-58.9c3.6-0.2,7.2-0.3,10.8-0.3c43,0,84,15.5,116.5,44.3
		c35.2,31.2,56.1,74.2,58.9,121.1C538.5,361.7,522.8,406.9,491.6,442.1z"/>
</g>
</svg>
