<svg xmlns="http://www.w3.org/2000/svg" viewBox="0 0 15 17" width="15" height="17">
	<style>
		tspan { white-space:pre }
		.shp0 { fill: #6b5b53 } 
	</style>
	<g id="კომენტარები">
		<g id="კომენტარები">
			<g id="Группа 12">
				<path id="pin clip" class="shp0" d="M2.95 9.18L9.15 2.65L9.72 3.26L3.52 9.79L2.95 9.18ZM6.76 13.32L11.69 7.95L12.25 8.57L7.32 13.93L6.76 13.32ZM5.77 11.94L11.83 5.56L12.4 6.18L6.34 12.55L5.77 11.94ZM4.22 10.25L9.01 5.04L9.58 5.65L4.79 10.87L4.22 10.25ZM12.39 6.17L11.83 5.56C12.34 4.92 12.32 3.95 11.76 3.34C11.2 2.73 10.31 2.7 9.72 3.26L9.16 2.65C10.06 1.76 11.45 1.78 12.32 2.73C13.2 3.67 13.22 5.19 12.39 6.17ZM4.79 10.87C4.77 10.9 4.74 10.92 4.71 10.94C4.44 11.24 4.44 11.72 4.71 12.02C4.99 12.31 5.43 12.31 5.7 12.02C5.73 11.99 5.75 11.96 5.77 11.93L6.33 12.55C6.31 12.58 6.29 12.6 6.27 12.63C5.68 13.26 4.74 13.26 4.15 12.63C3.57 11.99 3.57 10.96 4.15 10.33C4.18 10.3 4.2 10.28 4.23 10.26L4.79 10.87ZM3.52 9.8C3.5 9.82 3.47 9.85 3.45 9.87C2.55 10.84 2.55 12.42 3.45 13.39C4.34 14.37 5.79 14.37 6.69 13.39C6.71 13.37 6.73 13.34 6.75 13.31L7.32 13.93C7.3 13.96 7.28 13.98 7.25 14.01C6.05 15.32 4.09 15.32 2.88 14.01C1.68 12.7 1.68 10.57 2.88 9.26C2.91 9.23 2.93 9.21 2.96 9.18L3.52 9.8Z" />
			</g>
		</g>
	</g>
</svg>