<?xml version="1.0" encoding="utf-8"?>
<!-- Generator: Adobe Illustrator 17.1.0, SVG Export Plug-In . SVG Version: 6.00 Build 0)  -->
<!DOCTYPE svg PUBLIC "-//W3C//DTD SVG 1.1//EN" "http://www.w3.org/Graphics/SVG/1.1/DTD/svg11.dtd">
<svg version="1.1" id="MAN" xmlns="http://www.w3.org/2000/svg" xmlns:xlink="http://www.w3.org/1999/xlink" x="0px" y="0px"
	 viewBox="60 158.6 492 474.8" enable-background="new 60 158.6 492 474.8" xml:space="preserve">
<g>
	<g>
		<defs>
			<rect id="SVGID_1_" x="60" y="158.6" width="492" height="474.8"/>
		</defs>
		<clipPath id="SVGID_2_">
			<use xlink:href="#SVGID_1_"  overflow="visible"/>
		</clipPath>
		<g clip-path="url(#SVGID_2_)">
			<g>
				<path fill="#CE0F10" d="M582.2,550.1c0.9-0.9,0.9-2.6,0-3.5c-0.4-0.4-1.3-0.9-1.7-0.9h-28.1c-1.3,0-2.6,1.3-2.6,2.6
					c0,1.3,1.3,2.2,2.6,2.6h28.1C581.4,550.9,581.8,550.5,582.2,550.1z"/>
			</g>
		</g>
	</g>
	<g>
		<defs>
			<rect id="SVGID_3_" x="60" y="158.6" width="492" height="474.8"/>
		</defs>
		<clipPath id="SVGID_4_">
			<use xlink:href="#SVGID_3_"  overflow="visible"/>
		</clipPath>
		<g clip-path="url(#SVGID_4_)">
			<g>
				<path fill="#CE0F10" d="M432,568.2c-0.4-0.9-1.3-1.7-2.2-1.7h-28.5l16.4-67.3c0.4-1.3-0.4-2.6-1.7-3c-0.9,0-1.7,0-2.2,0.9
					l-70.3,70.3c-0.9,0.9-0.9,2.6,0,3.5c0.4,0.4,1.3,0.9,1.7,0.9h28.5L357.4,639c-0.4,1.3,0.4,2.6,1.7,3c0.9,0,1.7,0,2.2-0.9
					l69.9-70.3C432.5,569.9,432.5,569.1,432,568.2z M364.3,631.2l15.1-61.7c0.4-1.3-0.4-2.6-1.7-3h-0.4h-25.9l59.6-60l-15.1,61.7
					c-0.4,1.3,0.4,2.6,1.7,3h0.4h25.9L364.3,631.2z"/>
				<path fill="#CE0F10" d="M438.9,601.9c-0.9-0.9-2.6-0.9-3.5,0c-0.9,0.9-0.9,2.6,0,3.5l19.9,19.9c0.9,0.9,2.6,0.9,3.5,0
					c0.9-0.9,0.9-2.6,0-3.5L438.9,601.9z"/>
				<path fill="#CE0F10" d="M426,614.8c-0.9-0.9-2.6-0.9-3.5,0c-0.9,0.9-0.9,2.6,0,3.5l19.9,19.9c0.9,0.9,2.6,0.9,3.5,0
					c0.9-0.9,0.9-2.6,0-3.5L426,614.8z"/>
				<path fill="#CE0F10" d="M430.3,531.1c0.9,0.9,2.6,0.9,3.5,0l19.9-19.9c0.9-0.9,0.9-2.6,0-3.5c-0.9-0.9-2.6-0.9-3.5,0l-19.9,19.9
					C429.4,528.5,429.4,530.2,430.3,531.1z"/>
				<path fill="#CE0F10" d="M336.2,598l-19.9,19.9c-0.9,0.9-0.9,2.6,0,3.5s2.6,0.9,3.5,0l0,0l19.9-19.9c0.9-0.9,0.9-2.6,0-3.5
					C338.8,597.1,337.1,597.1,336.2,598L336.2,598z"/>
				<circle fill="#CE0F10" cx="328.9" cy="585.5" r="4.3"/>
				<circle fill="#CE0F10" cx="318.1" cy="595.4" r="4.3"/>
				<circle fill="#CE0F10" cx="453.2" cy="555.7" r="4.3"/>
			</g>
			<g>
				<circle fill="#CE0F10" cx="394.9" cy="634.2" r="4.3"/>
			</g>
			<g>
				<path fill="#CE0F10" d="M543.8,588.1c-0.9-0.4-2.2,0-2.6,0.4l-20.3,20.3l-35.8-59.1c-0.9-1.3-2.2-1.3-3.5-0.9
					c-0.9,0.4-1.3,1.3-1.3,2.2v99.3c0,1.3,1.3,2.6,2.6,2.6c0.9,0,1.3-0.4,1.7-0.9l20.3-20.3l35.8,59.1c0.9,1.3,2.2,1.3,3.5,0.9
					c0.9-0.4,1.3-1.3,1.3-2.2v-99.3C545.5,589.4,545.1,588.5,543.8,588.1z M540.8,680.4L508,626c-0.9-1.3-2.2-1.7-3.5-0.9l-0.4,0.4
					L486,643.7l-0.4-84.2l32.8,54.4c0.9,1.3,2.2,1.7,3.5,0.9l0.4-0.4l18.1-18.1L540.8,680.4z"/>
				<path fill="#CE0F10" d="M336.2,550.1c0.9-0.9,0.9-2.6,0-3.5c-0.4-0.4-1.3-0.9-1.7-0.9h-28.1c-1.3,0-2.6,1.3-2.6,2.6
					c0,1.3,1.3,2.2,2.6,2.6h28.1C335.3,550.9,335.8,550.5,336.2,550.1z"/>
				<path fill="#CE0F10" d="M520.1,568.2c1.3,0,2.6-1.3,2.6-2.6v-28.1c0-1.3-1.3-2.6-2.6-2.6s-2.2,1.3-2.6,2.6v28.1
					C517.5,566.9,518.8,568.2,520.1,568.2z"/>
				<circle fill="#CE0F10" cx="550.3" cy="564.3" r="4.3"/>
				<circle fill="#CE0F10" cx="452.7" cy="573" r="4.3"/>
			</g>
		</g>
	</g>
	<g>
		<defs>
			<rect id="SVGID_5_" x="60" y="158.6" width="492" height="474.8"/>
		</defs>
		<clipPath id="SVGID_6_">
			<use xlink:href="#SVGID_5_"  overflow="visible"/>
		</clipPath>
		<g clip-path="url(#SVGID_6_)">
			<g>
				<path fill="#CE0F10" d="M186,568.2c-0.4-0.9-1.3-1.7-2.2-1.7h-28.5l16.4-67.3c0.4-1.3-0.4-2.6-1.7-3c-0.9,0-1.7,0-2.2,0.9
					l-70.3,70.3c-0.9,0.9-0.9,2.6,0,3.5c0.4,0.4,1.3,0.9,1.7,0.9h28.5L111.4,639c-0.4,1.3,0.4,2.6,1.7,3c0.9,0,1.7,0,2.2-0.9
					l69.9-70.3C186.4,569.9,186.4,569.1,186,568.2z M118.3,631.2l15.1-61.7c0.4-1.3-0.4-2.6-1.7-3h-0.4h-25.9l59.6-60l-15.1,61.7
					c-0.4,1.3,0.4,2.6,1.7,3h0.4h25.9L118.3,631.2z"/>
				<path fill="#CE0F10" d="M192.9,601.9c-0.9-0.9-2.6-0.9-3.5,0c-0.9,0.9-0.9,2.6,0,3.5l19.9,19.9c0.9,0.9,2.6,0.9,3.5,0
					s0.9-2.6,0-3.5L192.9,601.9z"/>
				<path fill="#CE0F10" d="M180,614.8c-0.9-0.9-2.6-0.9-3.5,0c-0.9,0.9-0.9,2.6,0,3.5l19.9,19.9c0.9,0.9,2.6,0.9,3.5,0
					c0.9-0.9,0.9-2.6,0-3.5L180,614.8z"/>
				<path fill="#CE0F10" d="M184.3,531.1c0.9,0.9,2.6,0.9,3.5,0l19.9-19.9c0.9-0.9,0.9-2.6,0-3.5s-2.6-0.9-3.5,0l-19.9,19.9
					C183.4,528.5,183.4,530.2,184.3,531.1z"/>
				<path fill="#CE0F10" d="M90.2,598l-19.9,19.9c-0.9,0.9-0.9,2.6,0,3.5c0.9,0.9,2.6,0.9,3.5,0l0,0l19.9-19.9
					c0.9-0.9,0.9-2.6,0-3.5S91.1,597.1,90.2,598L90.2,598z"/>
				<circle fill="#CE0F10" cx="82.9" cy="585.5" r="4.3"/>
				<circle fill="#CE0F10" cx="72.1" cy="595.4" r="4.3"/>
				<circle fill="#CE0F10" cx="207.2" cy="555.7" r="4.3"/>
			</g>
			<g>
				<circle fill="#CE0F10" cx="148.9" cy="634.2" r="4.3"/>
			</g>
			<g>
				<path fill="#CE0F10" d="M297.8,588.1c-0.9-0.4-2.2,0-2.6,0.4l-20.3,20.3l-35.8-59.1c-0.9-1.3-2.2-1.3-3.5-0.9
					c-0.9,0.4-1.3,1.3-1.3,2.2v99.3c0,1.3,1.3,2.6,2.6,2.6c0.9,0,1.3-0.4,1.7-0.9l20.3-20.3l35.8,59.1c0.9,1.3,2.2,1.3,3.5,0.9
					c0.9-0.4,1.3-1.3,1.3-2.2v-99.3C299.5,589.4,299.1,588.5,297.8,588.1z M294.8,680.4L262,626c-0.9-1.3-2.2-1.7-3.5-0.9l-0.4,0.4
					L240,643.7l-0.4-84.2l32.8,54.4c0.9,1.3,2.2,1.7,3.5,0.9l0.4-0.4l18.1-18.1L294.8,680.4z"/>
				<path fill="#CE0F10" d="M90.2,550.1c0.9-0.9,0.9-2.6,0-3.5c-0.4-0.4-1.3-0.9-1.7-0.9H60.4c-1.3,0-2.6,1.3-2.6,2.6
					c0,1.3,1.3,2.2,2.6,2.6h28.1C89.3,550.9,89.8,550.5,90.2,550.1z"/>
				<path fill="#CE0F10" d="M274.1,568.2c1.3,0,2.6-1.3,2.6-2.6v-28.1c0-1.3-1.3-2.6-2.6-2.6c-1.3,0-2.2,1.3-2.6,2.6v28.1
					C271.5,566.9,272.8,568.2,274.1,568.2z"/>
				<circle fill="#CE0F10" cx="304.3" cy="564.3" r="4.3"/>
				<circle fill="#CE0F10" cx="206.7" cy="573" r="4.3"/>
			</g>
		</g>
	</g>
	<g>
		<defs>
			<rect id="SVGID_7_" x="60" y="158.6" width="492" height="474.8"/>
		</defs>
		<clipPath id="SVGID_8_">
			<use xlink:href="#SVGID_7_"  overflow="visible"/>
		</clipPath>
		<g clip-path="url(#SVGID_8_)">
			<g>
				<circle fill="#CE0F10" cx="58.3" cy="564.3" r="4.3"/>
			</g>
		</g>
	</g>
	<g>
		<defs>
			<rect id="SVGID_9_" x="60" y="158.6" width="492" height="474.8"/>
		</defs>
		<clipPath id="SVGID_10_">
			<use xlink:href="#SVGID_9_"  overflow="visible"/>
		</clipPath>
		<g clip-path="url(#SVGID_10_)">
			<g>
				<path fill="#CE0F10" d="M555,330.8c-0.4-0.9-1.3-1.7-2.2-1.7h-28.5l16.4-67.3c0.4-1.3-0.4-2.6-1.7-3c-0.9,0-1.7,0-2.2,0.9
					L466.6,330c-0.9,0.9-0.9,2.6,0,3.5c0.4,0.4,1.3,0.9,1.7,0.9h28.5l-16.4,67.3c-0.4,1.3,0.4,2.6,1.7,3c0.9,0,1.7,0,2.2-0.9
					l69.9-70.3C555.5,332.6,555.5,331.7,555,330.8z M487.3,393.8l15.1-61.7c0.4-1.3-0.4-2.6-1.7-3h-0.4h-25.9l59.6-60l-15.1,61.7
					c-0.4,1.3,0.4,2.6,1.7,3h0.4h25.9L487.3,393.8z"/>
				<path fill="#CE0F10" d="M549,377.4c-0.9-0.9-2.6-0.9-3.5,0c-0.9,0.9-0.9,2.6,0,3.5l19.9,19.9c0.9,0.9,2.6,0.9,3.5,0
					c0.9-0.9,0.9-2.6,0-3.5L549,377.4z"/>
				<path fill="#CE0F10" d="M455.3,477.1c1.3,0,2.6-1.3,2.6-2.6c0-0.9-0.4-1.3-0.9-1.7L437.2,453c-0.9-0.9-2.6-0.9-3.5,0
					c-0.9,0.9-0.9,2.6,0,3.5l19.9,19.9C454,477.1,454.5,477.1,455.3,477.1z"/>
				<path fill="#CE0F10" d="M459.2,360.6l-19.9,19.9c-0.9,0.9-0.9,2.6,0,3.5c0.9,0.9,2.6,0.9,3.5,0l0,0l19.9-19.9
					c0.9-0.9,0.9-2.6,0-3.5S460.1,359.7,459.2,360.6L459.2,360.6z"/>
				<circle fill="#CE0F10" cx="451.9" cy="348.1" r="4.3"/>
				<circle fill="#CE0F10" cx="441.1" cy="358" r="4.3"/>
				<circle fill="#CE0F10" cx="435" cy="411.5" r="4.3"/>
			</g>
			<g>
				<path fill="#CE0F10" d="M525.2,421.9c-0.9,0.4-1.7,1.3-1.7,2.2v28.5l-66.9-16.4c-1.3-0.4-2.6,0.4-3,1.7c0,0.9,0,1.7,0.9,2.2
					l70.3,69.9c0.9,0.9,2.6,0.9,3.5,0c0.4-0.4,0.9-1.3,0.9-1.7v-28.5l67.3,16.4c1.3,0.4,2.6-0.4,3-1.7c0-0.9,0-1.7-0.9-2.2
					l-70.3-69.9C527.4,421.5,526.1,421.5,525.2,421.9z M588.7,489.2L527,474.1c-1.3-0.4-2.6,0.4-3,1.7v0.4v25.9L464,443l61.7,15.1
					c1.3,0.4,2.6-0.4,3-1.7V456v-25.9L588.7,489.2z"/>
				<path fill="#CE0F10" d="M493.3,502.6c0-1.3-1.3-2.6-2.6-2.6c-0.9,0-1.3,0.4-1.7,0.9l-19.9,19.9c-0.9,0.9-0.9,2.6,0,3.5
					c0.9,0.9,2.6,0.9,3.5,0l19.9-19.9C492.9,503.9,493.3,503.5,493.3,502.6z"/>
				<path fill="#CE0F10" d="M486,431.4c0.9-0.9,0.9-2.6,0-3.5l-19.9-19.9c-0.9-0.9-2.6-0.9-3.5,0c-0.9,0.9-0.9,2.6,0,3.5l19.9,19.9
					C483.4,432.7,485.1,432.7,486,431.4z"/>
				<circle fill="#CE0F10" cx="546" cy="518.6" r="4.3"/>
				<circle fill="#CE0F10" cx="556.3" cy="529.4" r="4.3"/>
				<circle fill="#CE0F10" cx="517.9" cy="396.9" r="4.3"/>
				<circle fill="#CE0F10" cx="471.7" cy="497" r="4.3"/>
			</g>
			<g>
				<path fill="#CE0F10" d="M459.2,312.7c0.9-0.9,0.9-2.6,0-3.5c-0.4-0.4-1.3-0.9-1.7-0.9h-28.1c-1.3,0-2.6,1.3-2.6,2.6
					c0,1.3,1.3,2.2,2.6,2.6h28.1C458.4,313.6,458.8,313.1,459.2,312.7z"/>
			</g>
		</g>
	</g>
	<g>
		<defs>
			<rect id="SVGID_11_" x="60" y="158.6" width="492" height="474.8"/>
		</defs>
		<clipPath id="SVGID_12_">
			<use xlink:href="#SVGID_11_"  overflow="visible"/>
		</clipPath>
		<g clip-path="url(#SVGID_12_)">
			<g>
				<path fill="#CE0F10" d="M309,330.8c-0.4-0.9-1.3-1.7-2.2-1.7h-28.5l16.4-67.3c0.4-1.3-0.4-2.6-1.7-3c-0.9,0-1.7,0-2.2,0.9
					L220.5,330c-0.9,0.9-0.9,2.6,0,3.5c0.4,0.4,1.3,0.9,1.7,0.9h28.5l-16.4,67.3c-0.4,1.3,0.4,2.6,1.7,3c0.9,0,1.7,0,2.2-0.9
					l69.9-70.3C309.5,332.6,309.5,331.7,309,330.8z M241.3,393.8l15.1-61.7c0.4-1.3-0.4-2.6-1.7-3h-0.4h-25.9l59.6-60l-15.1,61.7
					c-0.4,1.3,0.4,2.6,1.7,3h0.4h25.9L241.3,393.8z"/>
				<path fill="#CE0F10" d="M315.9,364.5c-0.9-0.9-2.6-0.9-3.5,0s-0.9,2.6,0,3.5l19.9,19.9c0.9,0.9,2.6,0.9,3.5,0s0.9-2.6,0-3.5
					L315.9,364.5z"/>
				<path fill="#CE0F10" d="M303,377.4c-0.9-0.9-2.6-0.9-3.5,0c-0.9,0.9-0.9,2.6,0,3.5l19.9,19.9c0.9,0.9,2.6,0.9,3.5,0
					s0.9-2.6,0-3.5L303,377.4z"/>
				<path fill="#CE0F10" d="M209.3,477.1c1.3,0,2.6-1.3,2.6-2.6c0-0.9-0.4-1.3-0.9-1.7L191.2,453c-0.9-0.9-2.6-0.9-3.5,0
					c-0.9,0.9-0.9,2.6,0,3.5l19.9,19.9C208,477.1,208.5,477.1,209.3,477.1z"/>
				<path fill="#CE0F10" d="M307.3,293.7c0.9,0.9,2.6,0.9,3.5,0l19.9-19.9c0.9-0.9,0.9-2.6,0-3.5s-2.6-0.9-3.5,0l-19.9,19.9
					C306.4,291.1,306.4,292.8,307.3,293.7z"/>
				<path fill="#CE0F10" d="M213.2,360.6l-19.9,19.9c-0.9,0.9-0.9,2.6,0,3.5s2.6,0.9,3.5,0l0,0l19.9-19.9c0.9-0.9,0.9-2.6,0-3.5
					C215.8,359.7,214.1,359.7,213.2,360.6L213.2,360.6z"/>
				<circle fill="#CE0F10" cx="205.9" cy="348.1" r="4.3"/>
				<circle fill="#CE0F10" cx="195.1" cy="358" r="4.3"/>
				<circle fill="#CE0F10" cx="330.2" cy="318.3" r="4.3"/>
				<circle fill="#CE0F10" cx="189" cy="411.5" r="4.3"/>
			</g>
			<g>
				<path fill="#CE0F10" d="M279.2,421.9c-0.9,0.4-1.7,1.3-1.7,2.2v28.5l-66.9-16.4c-1.3-0.4-2.6,0.4-3,1.7c0,0.9,0,1.7,0.9,2.2
					l70.3,69.9c0.9,0.9,2.6,0.9,3.5,0c0.4-0.4,0.9-1.3,0.9-1.7v-28.5l67.3,16.4c1.3,0.4,2.6-0.4,3-1.7c0-0.9,0-1.7-0.9-2.2
					l-70.8-69.9C281.4,421.5,280.1,421.5,279.2,421.9z M342.7,489.2L281,474.1c-1.3-0.4-2.6,0.4-3,1.7v0.4v25.9L218,443l61.7,15.1
					c1.3,0.4,2.6-0.4,3-1.7V456v-25.9L342.7,489.2z"/>
				<path fill="#CE0F10" d="M361.7,452.5c-0.9,0.9-0.9,2.6,0,3.5c0.9,0.9,2.6,0.9,3.5,0l19.9-19.9c0.9-0.9,0.9-2.6,0-3.5
					c-0.9-0.9-2.6-0.9-3.5,0L361.7,452.5z"/>
				<path fill="#CE0F10" d="M361.7,474.1c-0.9,0.9-0.9,2.6,0,3.5c0.9,0.9,2.6,0.9,3.5,0l19.9-19.9c0.9-0.9,0.9-2.6,0-3.5
					c-0.9-0.9-2.6-0.9-3.5,0L361.7,474.1z"/>
				<path fill="#CE0F10" d="M247.3,502.6c0-1.3-1.3-2.6-2.6-2.6c-0.9,0-1.3,0.4-1.7,0.9l-19.9,19.9c-0.9,0.9-0.9,2.6,0,3.5
					c0.9,0.9,2.6,0.9,3.5,0l19.9-19.9C246.9,503.9,247.3,503.5,247.3,502.6z"/>
				<path fill="#CE0F10" d="M240,431.4c0.9-0.9,0.9-2.6,0-3.5l-19.9-19.9c-0.9-0.9-2.6-0.9-3.5,0c-0.9,0.9-0.9,2.6,0,3.5l19.9,19.9
					C237.4,432.7,239.1,432.7,240,431.4z"/>
				<path fill="#CE0F10" d="M311.6,503.5l19.9,19.9c0.9,0.9,2.6,0.9,3.5,0c0.9-0.9,0.9-2.6,0-3.5l0,0L315.1,500
					c-0.9-0.9-2.6-0.9-3.5,0C310.7,501.3,310.7,502.6,311.6,503.5L311.6,503.5z"/>
				<circle fill="#CE0F10" cx="300" cy="518.6" r="4.3"/>
				<circle fill="#CE0F10" cx="310.3" cy="529.4" r="4.3"/>
				<circle fill="#CE0F10" cx="271.9" cy="396.9" r="4.3"/>
				<circle fill="#CE0F10" cx="340.5" cy="425.8" r="4.3"/>
				<circle fill="#CE0F10" cx="381.5" cy="484.5" r="4.3"/>
				<circle fill="#CE0F10" cx="225.7" cy="497" r="4.3"/>
			</g>
			<g>
				<path fill="#CE0F10" d="M420.8,350.7c-0.9-0.4-2.2,0-2.6,0.4l-20.3,20.3l-35.8-59.1c-0.9-1.3-2.2-1.3-3.5-0.9
					c-0.9,0.4-1.3,1.3-1.3,2.2v99.3c0,1.3,1.3,2.6,2.6,2.6c0.9,0,1.3-0.4,1.7-0.9l20.3-20.3l35.8,59.1c0.9,1.3,2.2,1.3,3.5,0.9
					c0.9-0.4,1.3-1.3,1.3-2.2v-99.3C422.5,352,422.1,351.1,420.8,350.7z M417.8,443L385,388.7c-0.9-1.3-2.2-1.7-3.5-0.9l-0.4,0.4
					L363,406.4l-0.4-84.2l32.8,54.4c0.9,1.3,2.2,1.7,3.5,0.9l0.4-0.4l18.1-18.1L417.8,443z"/>
				<path fill="#CE0F10" d="M213.2,312.7c0.9-0.9,0.9-2.6,0-3.5c-0.4-0.4-1.3-0.9-1.7-0.9h-28.1c-1.3,0-2.6,1.3-2.6,2.6
					c0,1.3,1.3,2.2,2.6,2.6h28.1C212.3,313.6,212.8,313.1,213.2,312.7z"/>
				<path fill="#CE0F10" d="M397.1,330.8c1.3,0,2.6-1.3,2.6-2.6v-28.1c0-1.3-1.3-2.6-2.6-2.6c-1.3,0-2.2,1.3-2.6,2.6v28.1
					C394.5,329.5,395.8,330.8,397.1,330.8z"/>
				<circle fill="#CE0F10" cx="393.2" cy="474.1" r="4.3"/>
				<circle fill="#CE0F10" cx="327.6" cy="437.9" r="4.3"/>
				<circle fill="#CE0F10" cx="427.3" cy="326.9" r="4.3"/>
				<circle fill="#CE0F10" cx="329.7" cy="335.6" r="4.3"/>
			</g>
		</g>
	</g>
	<g>
		<defs>
			<rect id="SVGID_13_" x="60" y="158.6" width="492" height="474.8"/>
		</defs>
		<clipPath id="SVGID_14_">
			<use xlink:href="#SVGID_13_"  overflow="visible"/>
		</clipPath>
		<g clip-path="url(#SVGID_14_)">
			<g>
				<path fill="#CE0F10" d="M63,330.8c-0.4-0.9-1.3-1.7-2.2-1.7H32.4l16.4-67.3c0.4-1.3-0.4-2.6-1.7-3c-0.9,0-1.7,0-2.2,0.9L-25,330
					c-0.9,0.9-0.9,2.6,0,3.5c0.4,0.4,1.3,0.9,1.7,0.9H5.2l-16.4,67.3c-0.4,1.3,0.4,2.6,1.7,3c0.9,0,1.7,0,2.2-0.9l69.9-70.3
					C63.4,332.6,63.4,331.7,63,330.8z M-4.7,393.8l15.1-61.7c0.4-1.3-0.4-2.6-1.7-3H8.2h-25.9l59.6-60l-15.1,61.7
					c-0.4,1.3,0.4,2.6,1.7,3h0.4h25.9L-4.7,393.8z"/>
				<path fill="#CE0F10" d="M69.9,364.5c-0.9-0.9-2.6-0.9-3.5,0s-0.9,2.6,0,3.5l19.9,19.9c0.9,0.9,2.6,0.9,3.5,0
					c0.9-0.9,0.9-2.6,0-3.5L69.9,364.5z"/>
				<path fill="#CE0F10" d="M57,377.4c-0.9-0.9-2.6-0.9-3.5,0c-0.9,0.9-0.9,2.6,0,3.5l19.9,19.9c0.9,0.9,2.6,0.9,3.5,0
					c0.9-0.9,0.9-2.6,0-3.5L57,377.4z"/>
				<path fill="#CE0F10" d="M61.3,293.7c0.9,0.9,2.6,0.9,3.5,0l19.9-19.9c0.9-0.9,0.9-2.6,0-3.5s-2.6-0.9-3.5,0l-19.9,19.9
					C60.4,291.1,60.4,292.8,61.3,293.7z"/>
				<circle fill="#CE0F10" cx="84.2" cy="318.3" r="4.3"/>
			</g>
			<g>
				<path fill="#CE0F10" d="M33.2,421.9c-0.9,0.4-1.7,1.3-1.7,2.2v28.5l-66.9-16.4c-1.3-0.4-2.6,0.4-3,1.7c0,0.9,0,1.7,0.9,2.2
					l70.3,69.9c0.9,0.9,2.6,0.9,3.5,0c0.4-0.4,0.9-1.3,0.9-1.7v-28.5l67.3,16.4c1.3,0.4,2.6-0.4,3-1.7c0-0.9,0-1.7-0.9-2.2
					l-70.8-69.9C35.4,421.5,34.1,421.5,33.2,421.9z M96.7,489.2L35,474.1c-1.3-0.4-2.6,0.4-3,1.7v0.4v25.9l-60-59.1l61.7,15.1
					c1.3,0.4,2.6-0.4,3-1.7V456v-25.9L96.7,489.2z"/>
				<path fill="#CE0F10" d="M115.7,452.5c-0.9,0.9-0.9,2.6,0,3.5c0.9,0.9,2.6,0.9,3.5,0l19.9-19.9c0.9-0.9,0.9-2.6,0-3.5
					s-2.6-0.9-3.5,0L115.7,452.5z"/>
				<path fill="#CE0F10" d="M115.7,474.1c-0.9,0.9-0.9,2.6,0,3.5c0.9,0.9,2.6,0.9,3.5,0l19.9-19.9c0.9-0.9,0.9-2.6,0-3.5
					s-2.6-0.9-3.5,0L115.7,474.1z"/>
				<path fill="#CE0F10" d="M65.6,503.5l19.9,19.9c0.9,0.9,2.6,0.9,3.5,0c0.9-0.9,0.9-2.6,0-3.5l0,0L69.1,500
					c-0.9-0.9-2.6-0.9-3.5,0C64.7,501.3,64.7,502.6,65.6,503.5L65.6,503.5z"/>
				<circle fill="#CE0F10" cx="64.3" cy="529.4" r="4.3"/>
				<circle fill="#CE0F10" cx="94.5" cy="425.8" r="4.3"/>
				<circle fill="#CE0F10" cx="135.5" cy="484.5" r="4.3"/>
			</g>
			<g>
				<path fill="#CE0F10" d="M174.8,350.7c-0.9-0.4-2.2,0-2.6,0.4l-20.3,20.3l-35.8-59.1c-0.9-1.3-2.2-1.3-3.5-0.9
					c-0.9,0.4-1.3,1.3-1.3,2.2v99.3c0,1.3,1.3,2.6,2.6,2.6c0.9,0,1.3-0.4,1.7-0.9l20.3-20.3l35.8,59.1c0.9,1.3,2.2,1.3,3.5,0.9
					c0.9-0.4,1.3-1.3,1.3-2.2v-99.3C176.5,352,176.1,351.1,174.8,350.7z M171.8,443L139,388.7c-0.9-1.3-2.2-1.7-3.5-0.9l-0.4,0.4
					L117,406.4l-0.4-84.2l32.8,54.4c0.9,1.3,2.2,1.7,3.5,0.9l0.4-0.4l18.1-18.1L171.8,443z"/>
				<path fill="#CE0F10" d="M151.1,330.8c1.3,0,2.6-1.3,2.6-2.6v-28.1c0-1.3-1.3-2.6-2.6-2.6c-1.3,0-2.2,1.3-2.6,2.6v28.1
					C148.5,329.5,149.8,330.8,151.1,330.8z"/>
				<circle fill="#CE0F10" cx="147.2" cy="474.1" r="4.3"/>
				<circle fill="#CE0F10" cx="81.6" cy="437.9" r="4.3"/>
				<circle fill="#CE0F10" cx="181.3" cy="326.9" r="4.3"/>
				<circle fill="#CE0F10" cx="83.7" cy="335.6" r="4.3"/>
			</g>
		</g>
	</g>
	<g>
		<defs>
			<rect id="SVGID_15_" x="60" y="158.6" width="492" height="474.8"/>
		</defs>
		<clipPath id="SVGID_16_">
			<use xlink:href="#SVGID_15_"  overflow="visible"/>
		</clipPath>
		<g clip-path="url(#SVGID_16_)">
			<g>
				<path fill="#CE0F10" d="M432,93.5c-0.4-0.9-1.3-1.7-2.2-1.7h-28.5l16.4-67.3c0.4-1.3-0.4-2.6-1.7-3c-0.9,0-1.7,0-2.2,0.9
					l-70.3,70.3c-0.9,0.9-0.9,2.6,0,3.5c0.4,0.4,1.3,0.9,1.7,0.9h28.5l-16.4,67.3c-0.4,1.3,0.4,2.6,1.7,3c0.9,0,1.7,0,2.2-0.9
					L431.2,96C432.5,95.2,432.5,94.3,432,93.5z M364.3,156.5l15.1-61.7c0.4-1.3-0.4-2.6-1.7-3h-0.4h-25.9l59.6-60l-15.1,61.7
					c-0.4,1.3,0.4,2.6,1.7,3h0.4h25.9L364.3,156.5z"/>
				<path fill="#CE0F10" d="M426,140.1c-0.9-0.9-2.6-0.9-3.5,0s-0.9,2.6,0,3.5l19.9,19.9c0.9,0.9,2.6,0.9,3.5,0
					c0.9-0.9,0.9-2.6,0-3.5L426,140.1z"/>
				<path fill="#CE0F10" d="M332.3,239.8c1.3,0,2.6-1.3,2.6-2.6c0-0.9-0.4-1.3-0.9-1.7L314.2,216c-0.9-0.9-2.6-0.9-3.5,0
					s-0.9,2.6,0,3.5l19.9,19.9C331,239.8,331.5,239.8,332.3,239.8z"/>
				<circle fill="#CE0F10" cx="312" cy="174.2" r="4.3"/>
			</g>
			<g>
				<path fill="#CE0F10" d="M402.2,184.5c-0.9,0.4-1.7,1.3-1.7,2.2v28.5l-67.3-16.4c-1.3-0.4-2.6,0.4-3,1.7c0,0.9,0,1.7,0.9,2.2
					l70.3,69.9c0.9,0.9,2.6,0.9,3.5,0c0.4-0.4,0.9-1.3,0.9-1.7v-28.5l67.3,16.4c1.3,0.4,2.6-0.4,3-1.7c0-0.9,0-1.7-0.9-2.2
					L404.8,185C404.4,184.1,403.1,184.1,402.2,184.5z M465.7,251.8L404,236.7c-1.3-0.4-2.6,0.4-3,1.7v0.4v25.9l-60-59.1l61.7,15.1
					c1.3,0.4,2.6-0.4,3-1.7v-0.4v-25.9L465.7,251.8z"/>
				<path fill="#CE0F10" d="M484.7,215.2c-0.9,0.9-0.9,2.6,0,3.5c0.9,0.9,2.6,0.9,3.5,0l19.9-19.9c0.9-0.9,0.9-2.6,0-3.5
					c-0.9-0.9-2.6-0.9-3.5,0L484.7,215.2z"/>
				<path fill="#CE0F10" d="M484.7,236.7c-0.9,0.9-0.9,2.6,0,3.5c0.9,0.9,2.6,0.9,3.5,0l19.9-19.9c0.9-0.9,0.9-2.6,0-3.5
					c-0.9-0.9-2.6-0.9-3.5,0L484.7,236.7z"/>
				<path fill="#CE0F10" d="M370.3,265.2c0-1.3-1.3-2.6-2.6-2.6c-0.9,0-1.3,0.4-1.7,0.9l-19.9,19.9c-0.9,0.9-0.9,2.6,0,3.5
					c0.9,0.9,2.6,0.9,3.5,0l19.9-19.9C369.9,266.5,370.3,266.1,370.3,265.2z"/>
				<path fill="#CE0F10" d="M363,194c0.9-0.9,0.9-2.6,0-3.5l-19.9-19.9c-0.9-0.9-2.6-0.9-3.5,0c-0.9,0.9-0.9,2.6,0,3.5l19.9,19.9
					C360.4,195.3,362.1,195.3,363,194z"/>
				<path fill="#CE0F10" d="M434.6,266.1l19.9,19.9c0.9,0.9,2.6,0.9,3.5,0s0.9-2.6,0-3.5l0,0l-19.9-19.9c-0.9-0.9-2.6-0.9-3.5,0
					C433.8,263.9,433.8,265.2,434.6,266.1L434.6,266.1z"/>
				<circle fill="#CE0F10" cx="423" cy="281.2" r="4.3"/>
				<circle fill="#CE0F10" cx="433.3" cy="292" r="4.3"/>
				<circle fill="#CE0F10" cx="394.9" cy="159.5" r="4.3"/>
				<circle fill="#CE0F10" cx="463.5" cy="188.4" r="4.3"/>
				<circle fill="#CE0F10" cx="504.5" cy="247.1" r="4.3"/>
				<circle fill="#CE0F10" cx="348.7" cy="259.6" r="4.3"/>
			</g>
			<g>
				<path fill="#CE0F10" d="M543.8,113.3c-0.9-0.4-2.2,0-2.6,0.4L520.9,134l-35.8-59.1c-0.9-1.3-2.2-1.3-3.5-0.9
					c-0.9,0.4-1.3,1.3-1.3,2.2v99.3c0,1.3,1.3,2.6,2.6,2.6c0.9,0,1.3-0.4,1.7-0.9l20.3-20.3l35.8,59.1c0.9,1.3,2.2,1.3,3.5,0.9
					c0.9-0.4,1.3-1.3,1.3-2.2v-99.3C545.5,114.6,545.1,113.7,543.8,113.3z M540.8,205.7L508,151.3c-0.9-1.3-2.2-1.7-3.5-0.9
					l-0.4,0.4L486,169l-0.4-84.2l32.8,54.4c0.9,1.3,2.2,1.7,3.5,0.9l0.4-0.4l18.1-18.1L540.8,205.7z"/>
				<circle fill="#CE0F10" cx="516.2" cy="236.7" r="4.3"/>
				<circle fill="#CE0F10" cx="450.6" cy="200.5" r="4.3"/>
			</g>
		</g>
	</g>
	<g>
		<defs>
			<rect id="SVGID_17_" x="60" y="158.6" width="492" height="474.8"/>
		</defs>
		<clipPath id="SVGID_18_">
			<use xlink:href="#SVGID_17_"  overflow="visible"/>
		</clipPath>
		<g clip-path="url(#SVGID_18_)">
			<g>
				<path fill="#CE0F10" d="M186,93.5c-0.4-0.9-1.3-1.7-2.2-1.7h-28.5l16.4-67.3c0.4-1.3-0.4-2.6-1.7-3c-0.9,0-1.7,0-2.2,0.9
					L97.5,92.6c-0.9,0.9-0.9,2.6,0,3.5c0.4,0.4,1.3,0.9,1.7,0.9h28.5l-16.4,67.3c-0.4,1.3,0.4,2.6,1.7,3c0.9,0,1.7,0,2.2-0.9
					L185.2,96C186.4,95.2,186.4,94.3,186,93.5z M118.3,156.5l15.1-61.7c0.4-1.3-0.4-2.6-1.7-3h-0.4h-25.9l59.6-60l-15.1,61.7
					c-0.4,1.3,0.4,2.6,1.7,3h0.4h25.9L118.3,156.5z"/>
				<path fill="#CE0F10" d="M180,140.1c-0.9-0.9-2.6-0.9-3.5,0s-0.9,2.6,0,3.5l19.9,19.9c0.9,0.9,2.6,0.9,3.5,0
					c0.9-0.9,0.9-2.6,0-3.5L180,140.1z"/>
				<path fill="#CE0F10" d="M86.3,239.8c1.3,0,2.6-1.3,2.6-2.6c0-0.9-0.4-1.3-0.9-1.7L68.2,216c-0.9-0.9-2.6-0.9-3.5,0
					c-0.9,0.9-0.9,2.6,0,3.5l19.9,19.9C85,239.8,85.5,239.8,86.3,239.8z"/>
				<circle fill="#CE0F10" cx="66" cy="174.2" r="4.3"/>
			</g>
			<g>
				<path fill="#CE0F10" d="M156.2,184.5c-0.9,0.4-1.7,1.3-1.7,2.2v28.5l-66.9-16.4c-1.3-0.4-2.6,0.4-3,1.7c0,0.9,0,1.7,0.9,2.2
					l70.3,69.9c0.9,0.9,2.6,0.9,3.5,0c0.4-0.4,0.9-1.3,0.9-1.7v-28.5l67.3,16.4c1.3,0.4,2.6-0.4,3-1.7c0-0.9,0-1.7-0.9-2.2
					L158.8,185C158.4,184.1,157.1,184.1,156.2,184.5z M219.7,251.8L158,236.7c-1.3-0.4-2.6,0.4-3,1.7v0.4v25.9l-60-59.1l61.7,15.1
					c1.3,0.4,2.6-0.4,3-1.7v-0.4v-25.9L219.7,251.8z"/>
				<path fill="#CE0F10" d="M238.7,215.2c-0.9,0.9-0.9,2.6,0,3.5s2.6,0.9,3.5,0l19.9-19.9c0.9-0.9,0.9-2.6,0-3.5
					c-0.9-0.9-2.6-0.9-3.5,0L238.7,215.2z"/>
				<path fill="#CE0F10" d="M238.7,236.7c-0.9,0.9-0.9,2.6,0,3.5c0.9,0.9,2.6,0.9,3.5,0l19.9-19.9c0.9-0.9,0.9-2.6,0-3.5
					s-2.6-0.9-3.5,0L238.7,236.7z"/>
				<path fill="#CE0F10" d="M124.3,265.2c0-1.3-1.3-2.6-2.6-2.6c-0.9,0-1.3,0.4-1.7,0.9l-19.9,19.9c-0.9,0.9-0.9,2.6,0,3.5
					s2.6,0.9,3.5,0l19.9-19.9C123.9,266.5,124.3,266.1,124.3,265.2z"/>
				<path fill="#CE0F10" d="M117,194c0.9-0.9,0.9-2.6,0-3.5l-19.9-19.9c-0.9-0.9-2.6-0.9-3.5,0c-0.9,0.9-0.9,2.6,0,3.5l19.9,19.9
					C114.4,195.3,116.1,195.3,117,194z"/>
				<path fill="#CE0F10" d="M188.6,266.1l19.9,19.9c0.9,0.9,2.6,0.9,3.5,0s0.9-2.6,0-3.5l0,0l-19.9-19.9c-0.9-0.9-2.6-0.9-3.5,0
					C187.7,263.9,187.7,265.2,188.6,266.1L188.6,266.1z"/>
				<circle fill="#CE0F10" cx="177" cy="281.2" r="4.3"/>
				<circle fill="#CE0F10" cx="187.3" cy="292" r="4.3"/>
				<circle fill="#CE0F10" cx="148.9" cy="159.5" r="4.3"/>
				<circle fill="#CE0F10" cx="217.5" cy="188.4" r="4.3"/>
				<circle fill="#CE0F10" cx="258.5" cy="247.1" r="4.3"/>
				<circle fill="#CE0F10" cx="102.7" cy="259.6" r="4.3"/>
			</g>
			<g>
				<path fill="#CE0F10" d="M297.8,113.3c-0.9-0.4-2.2,0-2.6,0.4L274.9,134l-35.8-59.1c-0.9-1.3-2.2-1.3-3.5-0.9
					c-0.9,0.4-1.3,1.3-1.3,2.2v99.3c0,1.3,1.3,2.6,2.6,2.6c0.9,0,1.3-0.4,1.7-0.9l20.3-20.3l35.8,59.1c0.9,1.3,2.2,1.3,3.5,0.9
					c0.9-0.4,1.3-1.3,1.3-2.2v-99.3C299.5,114.6,299.1,113.7,297.8,113.3z M294.8,205.7L262,151.3c-0.9-1.3-2.2-1.7-3.5-0.9
					l-0.4,0.4L240,169l-0.4-84.2l32.8,54.4c0.9,1.3,2.2,1.7,3.5,0.9l0.4-0.4l18.1-18.1L294.8,205.7z"/>
				<circle fill="#CE0F10" cx="270.2" cy="236.7" r="4.3"/>
				<circle fill="#CE0F10" cx="204.6" cy="200.5" r="4.3"/>
			</g>
		</g>
	</g>
</g>
</svg>
