<?xml version="1.0" encoding="utf-8"?>
<!-- Generator: Adobe Illustrator 17.1.0, SVG Export Plug-In . SVG Version: 6.00 Build 0)  -->
<!DOCTYPE svg PUBLIC "-//W3C//DTD SVG 1.1//EN" "http://www.w3.org/Graphics/SVG/1.1/DTD/svg11.dtd">
<svg version="1.1" id="MAN" xmlns="http://www.w3.org/2000/svg" xmlns:xlink="http://www.w3.org/1999/xlink" x="0px" y="0px"
	 viewBox="156 196 300 400" enable-background="new 156 196 300 400" xml:space="preserve">
<g>
	<g>
		<g>
			<defs>
				<rect id="SVGID_1_" x="156" y="196" width="300" height="400"/>
			</defs>
			<clipPath id="SVGID_2_">
				<use xlink:href="#SVGID_1_"  overflow="visible"/>
			</clipPath>
			<g clip-path="url(#SVGID_2_)">
				<g>
					<path fill="#C7B900" d="M153.5,621.9c0.9-4.2,3.7-19.4-3.7-29.5l-0.1-0.1c-0.1-0.1-0.1-0.2-0.2-0.3c-0.2-0.2-0.4-0.5-0.5-0.7
						c-7.6-9-23.7-8.5-28-8.2c-1,4.1-4.4,20,3.2,29C132.6,622.2,149.1,622.1,153.5,621.9z M121.5,613.9c-9.5-11.7-3.6-31.8-3.3-32.7
						c0.2-0.6,0.7-1,1.3-1.1c0.9-0.1,21.7-2.5,31.6,8.9l1.9,2.5c8.5,12.9,3.4,31.4,3.2,32.3c-0.2,0.6-0.7,1.1-1.4,1.1
						c-0.9,0.1-20,1.8-31.2-8.8L121.5,613.9z"/>
				</g>
			</g>
		</g>
		<g>
			<defs>
				<rect id="SVGID_3_" x="156" y="196" width="300" height="400"/>
			</defs>
			<clipPath id="SVGID_4_">
				<use xlink:href="#SVGID_3_"  overflow="visible"/>
			</clipPath>
			<g clip-path="url(#SVGID_4_)">
				<g>
					<path fill="#C7B900" d="M303.5,621.9c0.9-4.2,3.7-19.4-3.7-29.5l-0.1-0.1c-0.1-0.1-0.1-0.2-0.2-0.3c-0.2-0.2-0.4-0.5-0.5-0.7
						c-7.6-9-23.7-8.5-28-8.2c-1,4.1-4.4,20,3.2,29C282.6,622.2,299.1,622.1,303.5,621.9z M271.5,613.9c-9.5-11.7-3.6-31.8-3.3-32.7
						c0.2-0.6,0.7-1,1.3-1.1c0.9-0.1,21.7-2.5,31.6,8.9l1.9,2.5c8.5,12.9,3.4,31.4,3.2,32.3c-0.2,0.6-0.7,1.1-1.4,1.1
						c-0.9,0.1-20,1.8-31.2-8.8L271.5,613.9z"/>
					<path fill="#C7B900" d="M280.2,594.1c4.9-4.1,12-3.6,15.9,1s3.1,11.7-1.7,15.8c-4.9,4.1-12,3.6-15.9-1
						C274.5,605.3,275.3,598.2,280.2,594.1z M280.8,607.9c2.8,3.3,7.9,3.6,11.4,0.6s4.1-8.1,1.3-11.4c-2.8-3.3-7.9-3.6-11.4-0.6
						C278.7,599.5,278.1,604.6,280.8,607.9z"/>
				</g>
			</g>
		</g>
		<g>
			<defs>
				<rect id="SVGID_5_" x="156" y="196" width="300" height="400"/>
			</defs>
			<clipPath id="SVGID_6_">
				<use xlink:href="#SVGID_5_"  overflow="visible"/>
			</clipPath>
			<g clip-path="url(#SVGID_6_)">
				<g>
					<path fill="#C7B900" d="M453.5,621.9c0.9-4.2,3.7-19.4-3.7-29.5l-0.1-0.1c-0.1-0.1-0.1-0.2-0.2-0.3c-0.2-0.2-0.4-0.5-0.5-0.7
						c-7.6-9-23.7-8.5-28-8.2c-1,4.1-4.4,20,3.2,29C432.6,622.2,449.1,622.1,453.5,621.9z M421.5,613.9c-9.5-11.7-3.6-31.8-3.3-32.7
						c0.2-0.6,0.7-1,1.3-1.1c0.9-0.1,21.7-2.5,31.6,8.9l1.9,2.5c8.5,12.9,3.4,31.4,3.2,32.3c-0.2,0.6-0.7,1.1-1.4,1.1
						c-0.9,0.1-20,1.8-31.2-8.8L421.5,613.9z"/>
					<path fill="#C7B900" d="M430.2,594.1c4.9-4.1,12-3.6,15.9,1s3.1,11.7-1.7,15.8c-4.9,4.1-12,3.6-15.9-1
						C424.5,605.3,425.3,598.2,430.2,594.1z M430.8,607.9c2.8,3.3,7.9,3.6,11.4,0.6s4.1-8.1,1.3-11.4c-2.8-3.3-7.9-3.6-11.4-0.6
						C428.7,599.5,428.1,604.6,430.8,607.9z"/>
				</g>
			</g>
		</g>
		<g>
			<defs>
				<rect id="SVGID_7_" x="156" y="196" width="300" height="400"/>
			</defs>
			<clipPath id="SVGID_8_">
				<use xlink:href="#SVGID_7_"  overflow="visible"/>
			</clipPath>
			<g clip-path="url(#SVGID_8_)">
				<path fill="#C7B900" d="M177.5,542.9c0.9,0,1.6-0.7,1.6-1.5c0-0.4-0.1-0.8-0.4-1.1l-12.3-13.1c-0.6-0.6-1.6-0.6-2.2,0
					c-0.6,0.6-0.6,1.5-0.1,2.2l12.3,13.1C176.7,542.7,177.1,542.9,177.5,542.9z"/>
				<path fill="#C7B900" d="M217.1,553.6c0.2,0.9,1,1.4,1.9,1.2c0.4-0.1,0.8-0.3,1-0.7l9.7-15.1c0.4-0.8,0.2-1.7-0.6-2.2
					c-0.7-0.4-1.6-0.2-2.1,0.5l-9.7,15.1C217.1,552.8,217,553.2,217.1,553.6z"/>
				<path fill="#C7B900" d="M213.5,595.1c0.7,0.5,1.7,0.4,2.2-0.3c0.3-0.3,0.4-0.8,0.3-1.2l-2.1-17.9c-0.1-0.9-0.9-1.5-1.8-1.3
					c-0.8,0.1-1.4,0.9-1.3,1.7l2.1,17.9C213,594.5,213.2,594.8,213.5,595.1z"/>
				<path fill="#C7B900" d="M161.8,602.1c0.7,0.5,1.7,0.2,2.2-0.5c0.2-0.4,0.3-0.8,0.2-1.2l-4-17.6c-0.2-0.8-1.1-1.4-1.9-1.1
					c-0.8,0.2-1.3,1-1.2,1.8l4,17.6C161.2,601.5,161.5,601.9,161.8,602.1z"/>
				<path fill="#C7B900" d="M177.3,555.8c0-0.9-0.7-1.6-1.5-1.6c-0.4,0-0.8,0.1-1.1,0.4l-13.1,12.3c-0.6,0.6-0.6,1.6,0,2.2
					c0.6,0.6,1.5,0.6,2.2,0.1l13.1-12.3C177.1,556.6,177.3,556.2,177.3,555.8z"/>
				<path fill="#C7B900" d="M189.1,549c-0.7,0.6-0.8,1.6-0.2,2.2c0.3,0.3,0.7,0.5,1.1,0.6l17.9,1.7c0.9,0.1,1.6-0.6,1.7-1.5
					c0-0.8-0.6-1.6-1.4-1.7l-17.9-1.7C189.8,548.6,189.4,548.7,189.1,549z"/>
				<circle fill="#C7B900" cx="182.2" cy="548.4" r="2.7"/>
				<circle fill="#C7B900" cx="159" cy="522.6" r="2.7"/>
				<path fill="#C7B900" d="M151.9,568.8c0.9-2.4,3.9-2.5,5-0.3c0.3,0.7,0.3,1.5,0,2.2c-1.1,2.2-4.1,2.1-5-0.3
					C151.7,569.9,151.7,569.3,151.9,568.8z"/>
				<path fill="#C7B900" d="M158.5,574.8c0.9-2.4,3.9-2.5,5-0.3c0.3,0.7,0.3,1.5,0,2.2c-1.1,2.2-4.1,2.1-5-0.3
					C158.3,575.9,158.3,575.3,158.5,574.8z"/>
				<circle fill="#C7B900" cx="223.9" cy="527.8" r="2.7"/>
				<circle fill="#C7B900" cx="239.2" cy="538.2" r="2.7"/>
				<path fill="#C7B900" d="M207.1,558.6c0.6-3.2,4.8-3.2,5.4,0c0,0.2,0,0.4,0,0.5c-0.6,3.2-4.8,3.2-5.4,0
					C207.1,558.9,207.1,558.8,207.1,558.6z"/>
				<circle fill="#C7B900" cx="210.8" cy="568.2" r="2.7"/>
				<g>
					<path fill="#C7B900" d="M142.5,564.6c11.8,0.1,21.8-12.6,24.4-16c-2.5-3.5-12.4-16.3-24.1-16.4c-0.3,0-0.6,0-0.9,0
						c-0.1,0-0.2,0-0.4,0c-0.1,0-0.1,0-0.2,0c-12.4,0.8-22.4,12.6-25,15.9C119,551.7,129.5,564.5,142.5,564.6z M139.7,567.5
						c-15.3-1.9-26.2-17.8-26.6-18.5c-0.4-0.5-0.4-1.2,0-1.8c0.5-0.7,11.6-16.4,26.9-18.1l3.2-0.1c15.1,0.4,26.5,17.9,27,18.7
						c0.3,0.5,0.3,1.2,0,1.7c-0.5,0.7-12.2,18.1-27.3,18.3L139.7,567.5z"/>
				</g>
				<g>
					<path fill="#C7B900" d="M202.7,590c4.4-10.9-3.8-24.9-6.1-28.5c-4.1,1-19.7,5.6-24,16.5c-0.1,0.3-0.2,0.6-0.3,0.8
						c0,0.1,0,0.2-0.1,0.4c0,0.1-0.1,0.1-0.1,0.2c-3.8,11.9,3.6,25.5,5.8,29.1C182.1,607.2,197.8,602.1,202.7,590z M204.4,593.7
						c-7.3,13.6-26.1,17.9-26.9,18.1c-0.6,0.1-1.3-0.1-1.7-0.7c-0.5-0.7-11.1-16.7-7.1-31.6l1-3c5.8-13.9,26.3-18.2,27.2-18.4
						c0.6-0.1,1.2,0.1,1.6,0.6c0.5,0.7,12.5,17.9,7.1,32.1L204.4,593.7z"/>
					<path fill="#C7B900" d="M197.9,589.2c-2.2,5.6-8.9,8.3-14.8,6c-5.9-2.3-8.9-8.8-6.6-14.5s8.9-8.3,14.8-6
						C197.2,577.1,200.2,583.6,197.9,589.2z M190.2,577.7c-4.3-1.7-9.1,0.2-10.7,4.2s0.6,8.7,4.8,10.4c4.3,1.7,9.1-0.2,10.7-4.2
						C196.6,584,194.4,579.4,190.2,577.7z"/>
				</g>
				<g>
					<path fill="#C7B900" d="M254.8,572.7c4.4-10.9-3.8-24.9-6.1-28.5c-4.1,1-19.7,5.6-24,16.5c-0.1,0.3-0.2,0.6-0.3,0.8
						c0,0.1,0,0.2-0.1,0.4c0,0.1-0.1,0.1-0.1,0.2c-3.8,11.9,3.6,25.5,5.8,29.1C234.2,590,249.9,584.9,254.8,572.7z M256.5,576.5
						c-7.3,13.6-26.1,17.9-26.9,18.1c-0.6,0.1-1.3-0.1-1.7-0.7c-0.5-0.7-11.1-16.7-7.1-31.6l1-3c5.8-13.9,26.3-18.2,27.2-18.4
						c0.6-0.1,1.2,0.1,1.6,0.6c0.5,0.7,12.5,17.9,7.1,32.1L256.5,576.5z"/>
					<path fill="#C7B900" d="M250,572c-2.2,5.6-8.9,8.3-14.8,6c-5.9-2.3-8.9-8.8-6.6-14.5s8.9-8.3,14.8-6
						C249.3,559.9,252.3,566.4,250,572z M242.2,560.4c-4.3-1.7-9.1,0.2-10.7,4.2c-1.6,4,0.6,8.7,4.8,10.4c4.3,1.7,9.1-0.2,10.7-4.2
						C248.7,566.8,246.5,562.1,242.2,560.4z"/>
				</g>
				<g>
					<path fill="#C7B900" d="M213.5,541.9c0.9-4.2,3.7-19.4-3.7-29.5l-0.1-0.1c-0.1-0.1-0.1-0.2-0.2-0.3c-0.2-0.2-0.4-0.5-0.5-0.7
						c-7.6-9-23.7-8.5-28-8.2c-1,4.1-4.4,20,3.2,29C192.6,542.2,209.1,542.1,213.5,541.9z M181.5,533.9c-9.5-11.7-3.6-31.8-3.3-32.7
						c0.2-0.6,0.7-1,1.3-1.1c0.9-0.1,21.7-2.5,31.6,8.9l1.9,2.5c8.5,12.9,3.4,31.4,3.2,32.3c-0.2,0.6-0.7,1.1-1.4,1.1
						c-0.9,0.1-20,1.8-31.2-8.8L181.5,533.9z"/>
					<path fill="#C7B900" d="M190.2,514.1c4.9-4.1,12-3.6,15.9,1c3.9,4.6,3.1,11.7-1.7,15.8c-4.9,4.1-12,3.6-15.9-1
						C184.5,525.3,185.3,518.2,190.2,514.1z M190.8,527.9c2.8,3.3,7.9,3.6,11.4,0.6s4.1-8.1,1.3-11.4c-2.8-3.3-7.9-3.6-11.4-0.6
						C188.7,519.5,188.1,524.6,190.8,527.9z"/>
				</g>
			</g>
		</g>
		<g>
			<defs>
				<rect id="SVGID_9_" x="156" y="196" width="300" height="400"/>
			</defs>
			<clipPath id="SVGID_10_">
				<use xlink:href="#SVGID_9_"  overflow="visible"/>
			</clipPath>
			<g clip-path="url(#SVGID_10_)">
				<path fill="#C7B900" d="M327.5,542.9c0.9,0,1.6-0.7,1.6-1.5c0-0.4-0.1-0.8-0.4-1.1l-12.3-13.1c-0.6-0.6-1.6-0.6-2.2,0
					s-0.6,1.5-0.1,2.2l12.3,13.1C326.7,542.7,327.1,542.9,327.5,542.9z"/>
				<path fill="#C7B900" d="M367.1,553.6c0.2,0.9,1,1.4,1.9,1.2c0.4-0.1,0.8-0.3,1-0.7l9.7-15.1c0.4-0.8,0.2-1.7-0.6-2.2
					c-0.7-0.4-1.6-0.2-2.1,0.5l-9.7,15.1C367.1,552.8,367,553.2,367.1,553.6z"/>
				<path fill="#C7B900" d="M363.5,595.1c0.7,0.5,1.7,0.4,2.2-0.3c0.3-0.3,0.4-0.8,0.3-1.2l-2.1-17.9c-0.1-0.9-0.9-1.5-1.8-1.3
					c-0.8,0.1-1.4,0.9-1.3,1.7l2.1,17.9C363,594.5,363.2,594.8,363.5,595.1z"/>
				<path fill="#C7B900" d="M311.8,602.1c0.7,0.5,1.7,0.2,2.2-0.5c0.2-0.4,0.3-0.8,0.2-1.2l-4-17.6c-0.2-0.8-1.1-1.4-1.9-1.1
					c-0.8,0.2-1.3,1-1.2,1.8l4,17.6C311.2,601.5,311.5,601.9,311.8,602.1z"/>
				<path fill="#C7B900" d="M327.3,555.8c0-0.9-0.7-1.6-1.5-1.6c-0.4,0-0.8,0.1-1.1,0.4l-13.1,12.3c-0.6,0.6-0.6,1.6,0,2.2
					c0.6,0.6,1.5,0.6,2.2,0.1l13.1-12.3C327.1,556.6,327.3,556.2,327.3,555.8z"/>
				<path fill="#C7B900" d="M339.1,549c-0.7,0.6-0.8,1.6-0.2,2.2c0.3,0.3,0.7,0.5,1.1,0.6l17.9,1.7c0.9,0.1,1.6-0.6,1.7-1.5
					c0-0.8-0.6-1.6-1.4-1.7l-17.9-1.7C339.8,548.6,339.4,548.7,339.1,549z"/>
				<path fill="#C7B900" d="M274.2,571.8c-0.7,0.6-0.8,1.6-0.2,2.2c0.3,0.3,0.7,0.5,1.1,0.6l17.9,1.6c0.9,0,1.6-0.6,1.7-1.5
					c0-0.8-0.6-1.6-1.4-1.7l-17.9-1.6C274.9,571.4,274.5,571.6,274.2,571.8z"/>
				<path fill="#C7B900" d="M279.8,522.1c-0.6,0.7-0.5,1.7,0.1,2.2c0.3,0.3,0.7,0.4,1.2,0.4l18-1.2c0.9-0.1,1.5-0.9,1.4-1.7
					s-0.8-1.5-1.6-1.4l-18,1.2C280.5,521.6,280.1,521.8,279.8,522.1z"/>
				<circle fill="#C7B900" cx="332.2" cy="548.4" r="2.7"/>
				<circle fill="#C7B900" cx="309" cy="522.6" r="2.7"/>
				<path fill="#C7B900" d="M301.9,568.8c0.9-2.4,3.9-2.5,5-0.3c0.3,0.7,0.3,1.5,0,2.2c-1.1,2.2-4.1,2.1-5-0.3
					C301.7,569.9,301.7,569.3,301.9,568.8z"/>
				<path fill="#C7B900" d="M308.5,574.8c0.9-2.4,3.9-2.5,5-0.3c0.3,0.7,0.3,1.5,0,2.2c-1.1,2.2-4.1,2.1-5-0.3
					C308.3,575.9,308.3,575.3,308.5,574.8z"/>
				<path fill="#C7B900" d="M298.6,577c0.9-2.4,3.9-2.5,5-0.3c0.3,0.7,0.3,1.5,0,2.2c-1.1,2.2-4.1,2.1-5-0.3
					C298.5,578.1,298.5,577.5,298.6,577z"/>
				<path fill="#C7B900" d="M267.1,563.4c0.3-1.9,2.3-2.9,4-1.9c0.9,0.5,1.4,1.6,1.3,2.7c-0.3,1.9-2.3,2.9-4,1.9
					C267.5,565.5,267,564.5,267.1,563.4z"/>
				<path fill="#C7B900" d="M261.8,576c-0.2-2.5,2.5-3.9,4.4-2.4c0.6,0.5,1,1.2,1,2c0,2.4-2.8,3.6-4.6,1.9
					C262.1,577,261.9,576.5,261.8,576z"/>
				<circle fill="#C7B900" cx="373.9" cy="527.8" r="2.7"/>
				<circle fill="#C7B900" cx="389.2" cy="538.2" r="2.7"/>
				<path fill="#C7B900" d="M357.1,558.6c0.6-3.2,4.8-3.2,5.4,0c0,0.2,0,0.4,0,0.5c-0.6,3.2-4.8,3.2-5.4,0
					C357.1,558.9,357.1,558.8,357.1,558.6z"/>
				<circle fill="#C7B900" cx="360.8" cy="568.2" r="2.7"/>
				<g>
					<path fill="#C7B900" d="M292.5,564.6c11.8,0.1,21.8-12.6,24.4-16c-2.5-3.5-12.4-16.3-24.1-16.4c-0.3,0-0.6,0-0.9,0
						c-0.1,0-0.2,0-0.4,0c-0.1,0-0.1,0-0.2,0c-12.4,0.8-22.4,12.6-25,15.9C269,551.7,279.5,564.5,292.5,564.6z M289.7,567.5
						c-15.3-1.9-26.2-17.8-26.6-18.5c-0.4-0.5-0.4-1.2,0-1.8c0.5-0.7,11.6-16.4,26.9-18.1l3.2-0.1c15.1,0.4,26.5,17.9,27,18.7
						c0.3,0.5,0.3,1.2,0,1.7c-0.5,0.7-12.2,18.1-27.3,18.3L289.7,567.5z"/>
					<path fill="#C7B900" d="M291.5,559.9c-6.1,0-11-5.2-10.9-11.6c0-6.3,5-11.5,11.1-11.4c6.1,0,11,5.2,10.9,11.6
						C302.6,554.8,297.6,559.9,291.5,559.9z M299.5,548.4c0-4.6-3.5-8.4-7.8-8.4s-7.9,3.7-7.9,8.3s3.5,8.4,7.8,8.4
						C295.9,556.8,299.4,553,299.5,548.4z"/>
				</g>
				<g>
					<path fill="#C7B900" d="M352.7,590c4.4-10.9-3.8-24.9-6.1-28.5c-4.1,1-19.7,5.6-24,16.5c-0.1,0.3-0.2,0.6-0.3,0.8
						c0,0.1,0,0.2-0.1,0.4c0,0.1-0.1,0.1-0.1,0.2c-3.8,11.9,3.6,25.5,5.8,29.1C332.1,607.2,347.8,602.1,352.7,590z M354.4,593.7
						c-7.3,13.6-26.1,17.9-26.9,18.1c-0.6,0.1-1.3-0.1-1.7-0.7c-0.5-0.7-11.1-16.7-7.1-31.6l1-3c5.8-13.9,26.3-18.2,27.2-18.4
						c0.6-0.1,1.2,0.1,1.6,0.6c0.5,0.7,12.5,17.9,7.1,32.1L354.4,593.7z"/>
					<path fill="#C7B900" d="M347.9,589.2c-2.2,5.6-8.9,8.3-14.8,6s-8.9-8.8-6.6-14.5c2.2-5.6,8.9-8.3,14.8-6
						C347.2,577.1,350.2,583.6,347.9,589.2z M340.2,577.7c-4.3-1.7-9.1,0.2-10.7,4.2s0.6,8.7,4.8,10.4c4.3,1.7,9.1-0.2,10.7-4.2
						C346.6,584,344.4,579.4,340.2,577.7z"/>
				</g>
				<g>
					<path fill="#C7B900" d="M404.8,572.7c4.4-10.9-3.8-24.9-6.1-28.5c-4.1,1-19.7,5.6-24,16.5c-0.1,0.3-0.2,0.6-0.3,0.8
						c0,0.1,0,0.2-0.1,0.4c0,0.1-0.1,0.1-0.1,0.2c-3.8,11.9,3.6,25.5,5.8,29.1C384.2,590,399.9,584.9,404.8,572.7z M406.5,576.5
						c-7.3,13.6-26.1,17.9-26.9,18.1c-0.6,0.1-1.3-0.1-1.7-0.7c-0.5-0.7-11.1-16.7-7.1-31.6l1-3c5.8-13.9,26.3-18.2,27.2-18.4
						c0.6-0.1,1.2,0.1,1.6,0.6c0.5,0.7,12.5,17.9,7.1,32.1L406.5,576.5z"/>
					<path fill="#C7B900" d="M400,572c-2.2,5.6-8.9,8.3-14.8,6s-8.9-8.8-6.6-14.5c2.2-5.6,8.9-8.3,14.8-6S402.3,566.4,400,572z
						 M392.2,560.4c-4.3-1.7-9.1,0.2-10.7,4.2s0.6,8.7,4.8,10.4c4.3,1.7,9.1-0.2,10.7-4.2C398.7,566.8,396.5,562.1,392.2,560.4z"/>
				</g>
				<g>
					<path fill="#C7B900" d="M363.5,541.9c0.9-4.2,3.7-19.4-3.7-29.5l-0.1-0.1c-0.1-0.1-0.1-0.2-0.2-0.3c-0.2-0.2-0.4-0.5-0.5-0.7
						c-7.6-9-23.7-8.5-28-8.2c-1,4.1-4.4,20,3.2,29C342.6,542.2,359.1,542.1,363.5,541.9z M331.5,533.9c-9.5-11.7-3.6-31.8-3.3-32.7
						c0.2-0.6,0.7-1,1.3-1.1c0.9-0.1,21.7-2.5,31.6,8.9l1.9,2.5c8.5,12.9,3.4,31.4,3.2,32.3c-0.2,0.6-0.7,1.1-1.4,1.1
						c-0.9,0.1-20,1.8-31.2-8.8L331.5,533.9z"/>
					<path fill="#C7B900" d="M340.2,514.1c4.9-4.1,12-3.6,15.9,1c3.9,4.6,3.1,11.7-1.7,15.8c-4.9,4.1-12,3.6-15.9-1
						C334.5,525.3,335.3,518.2,340.2,514.1z M340.8,527.9c2.8,3.3,7.9,3.6,11.4,0.6s4.1-8.1,1.3-11.4c-2.8-3.3-7.9-3.6-11.4-0.6
						C338.7,519.5,338.1,524.6,340.8,527.9z"/>
				</g>
			</g>
		</g>
		<g>
			<defs>
				<rect id="SVGID_11_" x="156" y="196" width="300" height="400"/>
			</defs>
			<clipPath id="SVGID_12_">
				<use xlink:href="#SVGID_11_"  overflow="visible"/>
			</clipPath>
			<g clip-path="url(#SVGID_12_)">
				<path fill="#C7B900" d="M424.2,571.8c-0.7,0.6-0.8,1.6-0.2,2.2c0.3,0.3,0.7,0.5,1.1,0.6l17.9,1.6c0.9,0,1.6-0.6,1.7-1.5
					c0-0.8-0.6-1.6-1.4-1.7l-17.9-1.6C424.9,571.4,424.5,571.6,424.2,571.8z"/>
				<path fill="#C7B900" d="M429.8,522.1c-0.6,0.7-0.5,1.7,0.1,2.2c0.3,0.3,0.7,0.4,1.2,0.4l18-1.2c0.9-0.1,1.5-0.9,1.4-1.7
					s-0.8-1.5-1.6-1.4l-18,1.2C430.5,521.6,430.1,521.8,429.8,522.1z"/>
				<path fill="#C7B900" d="M451.9,568.8c0.9-2.4,3.9-2.5,5-0.3c0.3,0.7,0.3,1.5,0,2.2c-1.1,2.2-4.1,2.1-5-0.3
					C451.7,569.9,451.7,569.3,451.9,568.8z"/>
				<path fill="#C7B900" d="M448.6,577c0.9-2.4,3.9-2.5,5-0.3c0.3,0.7,0.3,1.5,0,2.2c-1.1,2.2-4.1,2.1-5-0.3
					C448.5,578.1,448.5,577.5,448.6,577z"/>
				<path fill="#C7B900" d="M417.1,563.4c0.3-1.9,2.3-2.9,4-1.9c0.9,0.5,1.4,1.6,1.3,2.7c-0.3,1.9-2.3,2.9-4,1.9
					C417.5,565.5,417,564.5,417.1,563.4z"/>
				<path fill="#C7B900" d="M411.8,576c-0.2-2.5,2.5-3.9,4.4-2.4c0.6,0.5,1,1.2,1,2c0,2.4-2.8,3.6-4.6,1.9
					C412.1,577,411.9,576.5,411.8,576z"/>
				<g>
					<path fill="#C7B900" d="M442.5,564.6c11.8,0.1,21.8-12.6,24.4-16c-2.5-3.5-12.4-16.3-24.1-16.4c-0.3,0-0.6,0-0.9,0
						c-0.1,0-0.2,0-0.4,0c-0.1,0-0.1,0-0.2,0c-12.4,0.8-22.4,12.6-25,15.9C419,551.7,429.5,564.5,442.5,564.6z M439.7,567.5
						c-15.3-1.9-26.2-17.8-26.6-18.5c-0.4-0.5-0.4-1.2,0-1.8c0.5-0.7,11.6-16.4,26.9-18.1l3.2-0.1c15.1,0.4,26.5,17.9,27,18.7
						c0.3,0.5,0.3,1.2,0,1.7c-0.5,0.7-12.2,18.1-27.3,18.3L439.7,567.5z"/>
					<path fill="#C7B900" d="M441.5,559.9c-6.1,0-11-5.2-10.9-11.6c0-6.3,5-11.5,11.1-11.4c6.1,0,11,5.2,10.9,11.6
						C452.6,554.8,447.6,559.9,441.5,559.9z M449.5,548.4c0-4.6-3.5-8.4-7.8-8.4s-7.9,3.7-7.9,8.3s3.5,8.4,7.8,8.4
						C445.9,556.8,449.4,553,449.5,548.4z"/>
				</g>
			</g>
		</g>
		<g>
			<defs>
				<rect id="SVGID_13_" x="156" y="196" width="300" height="400"/>
			</defs>
			<clipPath id="SVGID_14_">
				<use xlink:href="#SVGID_13_"  overflow="visible"/>
			</clipPath>
			<g clip-path="url(#SVGID_14_)">
				<g>
					<path fill="#C7B900" d="M164.8,492.7c4.4-10.9-3.8-24.9-6.1-28.5c-4.1,1-19.7,5.6-24,16.5c-0.1,0.3-0.2,0.6-0.3,0.8
						c0,0.1,0,0.2-0.1,0.4c0,0.1-0.1,0.1-0.1,0.2c-3.8,11.9,3.6,25.5,5.8,29.1C144.2,510,159.9,504.9,164.8,492.7z M166.5,496.5
						c-7.3,13.6-26.1,17.9-26.9,18.1c-0.6,0.1-1.3-0.1-1.7-0.7c-0.5-0.7-11.1-16.7-7.1-31.6l1-3c5.8-13.9,26.3-18.2,27.2-18.4
						c0.6-0.1,1.2,0.1,1.6,0.6c0.5,0.7,12.5,17.9,7.1,32.1L166.5,496.5z"/>
					<path fill="#C7B900" d="M160,492c-2.2,5.6-8.9,8.3-14.8,6c-5.9-2.3-8.9-8.8-6.6-14.5c2.2-5.6,8.9-8.3,14.8-6
						C159.3,479.9,162.3,486.4,160,492z M152.2,480.4c-4.3-1.7-9.1,0.2-10.7,4.2c-1.6,4,0.6,8.7,4.8,10.4c4.3,1.7,9.1-0.2,10.7-4.2
						C158.7,486.8,156.5,482.1,152.2,480.4z"/>
				</g>
			</g>
		</g>
		<g>
			<defs>
				<rect id="SVGID_15_" x="156" y="196" width="300" height="400"/>
			</defs>
			<clipPath id="SVGID_16_">
				<use xlink:href="#SVGID_15_"  overflow="visible"/>
			</clipPath>
			<g clip-path="url(#SVGID_16_)">
				<path fill="#C7B900" d="M237.5,462.9c0.9,0,1.6-0.7,1.6-1.5c0-0.4-0.1-0.8-0.4-1.1l-12.3-13.1c-0.6-0.6-1.6-0.6-2.2,0
					c-0.6,0.6-0.6,1.5-0.1,2.2l12.3,13.1C236.7,462.7,237.1,462.9,237.5,462.9z"/>
				<path fill="#C7B900" d="M277.1,473.6c0.2,0.9,1,1.4,1.9,1.2c0.4-0.1,0.8-0.3,1-0.7l9.7-15.1c0.4-0.8,0.2-1.7-0.6-2.2
					c-0.7-0.4-1.6-0.2-2.1,0.5l-9.7,15.1C277.1,472.8,277,473.2,277.1,473.6z"/>
				<path fill="#C7B900" d="M273.5,515.1c0.7,0.5,1.7,0.4,2.2-0.3c0.3-0.3,0.4-0.8,0.3-1.2l-2.1-17.9c-0.1-0.9-0.9-1.5-1.8-1.3
					c-0.8,0.1-1.4,0.9-1.3,1.7l2.1,17.9C273,514.5,273.2,514.8,273.5,515.1z"/>
				<path fill="#C7B900" d="M221.8,522.1c0.7,0.5,1.7,0.2,2.2-0.5c0.2-0.4,0.3-0.8,0.2-1.2l-4-17.6c-0.2-0.8-1.1-1.4-1.9-1.1
					c-0.8,0.2-1.3,1-1.2,1.8l4,17.6C221.2,521.5,221.5,521.9,221.8,522.1z"/>
				<path fill="#C7B900" d="M237.3,475.8c0-0.9-0.7-1.6-1.5-1.6c-0.4,0-0.8,0.1-1.1,0.4l-13.1,12.3c-0.6,0.6-0.6,1.6,0,2.2
					s1.5,0.6,2.2,0.1l13.1-12.3C237.1,476.6,237.3,476.2,237.3,475.8z"/>
				<path fill="#C7B900" d="M249.1,469c-0.7,0.6-0.8,1.6-0.2,2.2c0.3,0.3,0.7,0.5,1.1,0.6l17.9,1.7c0.9,0.1,1.6-0.6,1.7-1.5
					c0-0.8-0.6-1.6-1.4-1.7l-17.9-1.7C249.8,468.6,249.4,468.7,249.1,469z"/>
				<path fill="#C7B900" d="M184.2,491.8c-0.7,0.6-0.8,1.6-0.2,2.2c0.3,0.3,0.7,0.5,1.1,0.6l17.9,1.6c0.9,0,1.6-0.6,1.7-1.5
					c0-0.8-0.6-1.6-1.4-1.7l-17.9-1.6C184.9,491.4,184.5,491.6,184.2,491.8z"/>
				<path fill="#C7B900" d="M189.8,442.1c-0.6,0.7-0.5,1.7,0.1,2.2c0.3,0.3,0.7,0.4,1.2,0.4l18-1.2c0.9-0.1,1.5-0.9,1.4-1.7
					c-0.1-0.8-0.8-1.5-1.6-1.4l-18,1.2C190.5,441.6,190.1,441.8,189.8,442.1z"/>
				<circle fill="#C7B900" cx="242.2" cy="468.4" r="2.7"/>
				<circle fill="#C7B900" cx="219" cy="442.6" r="2.7"/>
				<path fill="#C7B900" d="M211.9,488.8c0.9-2.4,3.9-2.5,5-0.3c0.3,0.7,0.3,1.5,0,2.2c-1.1,2.2-4.1,2.1-5-0.3
					C211.7,489.9,211.7,489.3,211.9,488.8z"/>
				<path fill="#C7B900" d="M218.5,494.8c0.9-2.4,3.9-2.5,5-0.3c0.3,0.7,0.3,1.5,0,2.2c-1.1,2.2-4.1,2.1-5-0.3
					C218.3,495.9,218.3,495.3,218.5,494.8z"/>
				<path fill="#C7B900" d="M208.6,497c0.9-2.4,3.9-2.5,5-0.3c0.3,0.7,0.3,1.5,0,2.2c-1.1,2.2-4.1,2.1-5-0.3
					C208.5,498.1,208.5,497.5,208.6,497z"/>
				<path fill="#C7B900" d="M177.1,483.4c0.3-1.9,2.3-2.9,4-1.9c0.9,0.5,1.4,1.6,1.3,2.7c-0.3,1.9-2.3,2.9-4,1.9
					C177.5,485.5,177,484.5,177.1,483.4z"/>
				<path fill="#C7B900" d="M171.8,496c-0.2-2.5,2.5-3.9,4.4-2.4c0.6,0.5,1,1.2,1,2c0,2.4-2.8,3.6-4.6,1.9
					C172.1,497,171.9,496.5,171.8,496z"/>
				<circle fill="#C7B900" cx="283.9" cy="447.8" r="2.7"/>
				<circle fill="#C7B900" cx="299.2" cy="458.2" r="2.7"/>
				<path fill="#C7B900" d="M267.1,478.6c0.6-3.2,4.8-3.2,5.4,0c0,0.2,0,0.4,0,0.5c-0.6,3.2-4.8,3.2-5.4,0
					C267.1,478.9,267.1,478.8,267.1,478.6z"/>
				<circle fill="#C7B900" cx="270.8" cy="488.2" r="2.7"/>
				<path fill="#C7B900" d="M260.2,528.3c0.6-1.8,2.8-2.4,4.3-1.2c0.8,0.7,1.1,1.8,0.8,2.8c-0.6,1.8-2.8,2.4-4.3,1.2
					C260.2,530.4,259.8,529.3,260.2,528.3z"/>
				<circle fill="#C7B900" cx="271.9" cy="525.8" r="2.7"/>
				<g>
					<path fill="#C7B900" d="M202.5,484.6c11.8,0.1,21.8-12.6,24.4-16c-2.5-3.5-12.4-16.3-24.1-16.4c-0.3,0-0.6,0-0.9,0
						c-0.1,0-0.2,0-0.4,0c-0.1,0-0.1,0-0.2,0c-12.4,0.8-22.4,12.6-25,15.9C179,471.7,189.5,484.5,202.5,484.6z M199.7,487.5
						c-15.3-1.9-26.2-17.8-26.6-18.5c-0.4-0.5-0.4-1.2,0-1.8c0.5-0.7,11.6-16.4,26.9-18.1l3.2-0.1c15.1,0.4,26.5,17.9,27,18.7
						c0.3,0.5,0.3,1.2,0,1.7c-0.5,0.7-12.2,18.1-27.3,18.3L199.7,487.5z"/>
					<path fill="#C7B900" d="M201.5,479.9c-6.1,0-11-5.2-10.9-11.6c0-6.3,5-11.5,11.1-11.4c6.1,0,11,5.2,10.9,11.6
						S207.6,479.9,201.5,479.9z M209.5,468.4c0-4.6-3.5-8.4-7.8-8.4s-7.9,3.7-7.9,8.3c0,4.6,3.5,8.4,7.8,8.4
						C205.9,476.8,209.4,473,209.5,468.4z"/>
				</g>
				<g>
					<path fill="#C7B900" d="M262.7,510c4.4-10.9-3.8-24.9-6.1-28.5c-4.1,1-19.7,5.6-24,16.5c-0.1,0.3-0.2,0.6-0.3,0.8
						c0,0.1,0,0.2-0.1,0.4c0,0.1-0.1,0.1-0.1,0.2c-3.8,11.9,3.6,25.5,5.8,29.1C242.1,527.2,257.8,522.1,262.7,510z M264.4,513.7
						c-7.3,13.6-26.1,17.9-26.9,18.1c-0.6,0.1-1.3-0.1-1.7-0.7c-0.5-0.7-11.1-16.7-7.1-31.6l1-3c5.8-13.9,26.3-18.2,27.2-18.4
						c0.6-0.1,1.2,0.1,1.6,0.6c0.5,0.7,12.5,17.9,7.1,32.1L264.4,513.7z"/>
					<path fill="#C7B900" d="M257.9,509.2c-2.2,5.6-8.9,8.3-14.8,6c-5.9-2.3-8.9-8.8-6.6-14.5s8.9-8.3,14.8-6
						C257.2,497.1,260.2,503.6,257.9,509.2z M250.2,497.7c-4.3-1.7-9.1,0.2-10.7,4.2c-1.6,4,0.6,8.7,4.8,10.4
						c4.3,1.7,9.1-0.2,10.7-4.2C256.6,504,254.4,499.4,250.2,497.7z"/>
				</g>
				<g>
					<path fill="#C7B900" d="M314.8,492.7c4.4-10.9-3.8-24.9-6.1-28.5c-4.1,1-19.7,5.6-24,16.5c-0.1,0.3-0.2,0.6-0.3,0.8
						c0,0.1,0,0.2-0.1,0.4c0,0.1-0.1,0.1-0.1,0.2c-3.8,11.9,3.6,25.5,5.8,29.1C294.2,510,309.9,504.9,314.8,492.7z M316.5,496.5
						c-7.3,13.6-26.1,17.9-26.9,18.1c-0.6,0.1-1.3-0.1-1.7-0.7c-0.5-0.7-11.1-16.7-7.1-31.6l1-3c5.8-13.9,26.3-18.2,27.2-18.4
						c0.6-0.1,1.2,0.1,1.6,0.6c0.5,0.7,12.5,17.9,7.1,32.1L316.5,496.5z"/>
					<path fill="#C7B900" d="M310,492c-2.2,5.6-8.9,8.3-14.8,6s-8.9-8.8-6.6-14.5c2.2-5.6,8.9-8.3,14.8-6
						C309.3,479.9,312.3,486.4,310,492z M302.2,480.4c-4.3-1.7-9.1,0.2-10.7,4.2s0.6,8.7,4.8,10.4c4.3,1.7,9.1-0.2,10.7-4.2
						C308.7,486.8,306.5,482.1,302.2,480.4z"/>
				</g>
				<g>
					<path fill="#C7B900" d="M273.5,461.9c0.9-4.2,3.7-19.4-3.7-29.5l-0.1-0.1c-0.1-0.1-0.1-0.2-0.2-0.3c-0.2-0.2-0.4-0.5-0.5-0.7
						c-7.6-9-23.7-8.5-28-8.2c-1,4.1-4.4,20,3.2,29C252.6,462.2,269.1,462.1,273.5,461.9z M241.5,453.9c-9.5-11.7-3.6-31.8-3.3-32.7
						c0.2-0.6,0.7-1,1.3-1.1c0.9-0.1,21.7-2.5,31.6,8.9l1.9,2.5c8.5,12.9,3.4,31.4,3.2,32.3c-0.2,0.6-0.7,1.1-1.4,1.1
						c-0.9,0.1-20,1.8-31.2-8.8L241.5,453.9z"/>
					<path fill="#C7B900" d="M250.2,434.1c4.9-4.1,12-3.6,15.9,1s3.1,11.7-1.7,15.8c-4.9,4.1-12,3.6-15.9-1
						C244.5,445.3,245.3,438.2,250.2,434.1z M250.8,447.9c2.8,3.3,7.9,3.6,11.4,0.6s4.1-8.1,1.3-11.4c-2.8-3.3-7.9-3.6-11.4-0.6
						C248.7,439.5,248.1,444.6,250.8,447.9z"/>
				</g>
			</g>
		</g>
		<g>
			<defs>
				<rect id="SVGID_17_" x="156" y="196" width="300" height="400"/>
			</defs>
			<clipPath id="SVGID_18_">
				<use xlink:href="#SVGID_17_"  overflow="visible"/>
			</clipPath>
			<g clip-path="url(#SVGID_18_)">
				<path fill="#C7B900" d="M387.5,462.9c0.9,0,1.6-0.7,1.6-1.5c0-0.4-0.1-0.8-0.4-1.1l-12.3-13.1c-0.6-0.6-1.6-0.6-2.2,0
					s-0.6,1.5-0.1,2.2l12.3,13.1C386.7,462.7,387.1,462.9,387.5,462.9z"/>
				<path fill="#C7B900" d="M427.1,473.6c0.2,0.9,1,1.4,1.9,1.2c0.4-0.1,0.8-0.3,1-0.7l9.7-15.1c0.4-0.8,0.2-1.7-0.6-2.2
					c-0.7-0.4-1.6-0.2-2.1,0.5l-9.7,15.1C427.1,472.8,427,473.2,427.1,473.6z"/>
				<path fill="#C7B900" d="M423.5,515.1c0.7,0.5,1.7,0.4,2.2-0.3c0.3-0.3,0.4-0.8,0.3-1.2l-2.1-17.9c-0.1-0.9-0.9-1.5-1.8-1.3
					c-0.8,0.1-1.4,0.9-1.3,1.7l2.1,17.9C423,514.5,423.2,514.8,423.5,515.1z"/>
				<path fill="#C7B900" d="M371.8,522.1c0.7,0.5,1.7,0.2,2.2-0.5c0.2-0.4,0.3-0.8,0.2-1.2l-4-17.6c-0.2-0.8-1.1-1.4-1.9-1.1
					c-0.8,0.2-1.3,1-1.2,1.8l4,17.6C371.2,521.5,371.5,521.9,371.8,522.1z"/>
				<path fill="#C7B900" d="M387.3,475.8c0-0.9-0.7-1.6-1.5-1.6c-0.4,0-0.8,0.1-1.1,0.4l-13.1,12.3c-0.6,0.6-0.6,1.6,0,2.2
					s1.5,0.6,2.2,0.1l13.1-12.3C387.1,476.6,387.3,476.2,387.3,475.8z"/>
				<path fill="#C7B900" d="M399.1,469c-0.7,0.6-0.8,1.6-0.2,2.2c0.3,0.3,0.7,0.5,1.1,0.6l17.9,1.7c0.9,0.1,1.6-0.6,1.7-1.5
					c0-0.8-0.6-1.6-1.4-1.7l-17.9-1.7C399.8,468.6,399.4,468.7,399.1,469z"/>
				<path fill="#C7B900" d="M334.2,491.8c-0.7,0.6-0.8,1.6-0.2,2.2c0.3,0.3,0.7,0.5,1.1,0.6l17.9,1.6c0.9,0,1.6-0.6,1.7-1.5
					c0-0.8-0.6-1.6-1.4-1.7l-17.9-1.6C334.9,491.4,334.5,491.6,334.2,491.8z"/>
				<path fill="#C7B900" d="M339.8,442.1c-0.6,0.7-0.5,1.7,0.1,2.2c0.3,0.3,0.7,0.4,1.2,0.4l18-1.2c0.9-0.1,1.5-0.9,1.4-1.7
					c-0.1-0.8-0.8-1.5-1.6-1.4l-18,1.2C340.5,441.6,340.1,441.8,339.8,442.1z"/>
				<circle fill="#C7B900" cx="392.2" cy="468.4" r="2.7"/>
				<circle fill="#C7B900" cx="369" cy="442.6" r="2.7"/>
				<path fill="#C7B900" d="M361.9,488.8c0.9-2.4,3.9-2.5,5-0.3c0.3,0.7,0.3,1.5,0,2.2c-1.1,2.2-4.1,2.1-5-0.3
					C361.7,489.9,361.7,489.3,361.9,488.8z"/>
				<path fill="#C7B900" d="M368.5,494.8c0.9-2.4,3.9-2.5,5-0.3c0.3,0.7,0.3,1.5,0,2.2c-1.1,2.2-4.1,2.1-5-0.3
					C368.3,495.9,368.3,495.3,368.5,494.8z"/>
				<path fill="#C7B900" d="M358.6,497c0.9-2.4,3.9-2.5,5-0.3c0.3,0.7,0.3,1.5,0,2.2c-1.1,2.2-4.1,2.1-5-0.3
					C358.5,498.1,358.5,497.5,358.6,497z"/>
				<path fill="#C7B900" d="M327.1,483.4c0.3-1.9,2.3-2.9,4-1.9c0.9,0.5,1.4,1.6,1.3,2.7c-0.3,1.9-2.3,2.9-4,1.9
					C327.5,485.5,327,484.5,327.1,483.4z"/>
				<path fill="#C7B900" d="M321.8,496c-0.2-2.5,2.5-3.9,4.4-2.4c0.6,0.5,1,1.2,1,2c0,2.4-2.8,3.6-4.6,1.9
					C322.1,497,321.9,496.5,321.8,496z"/>
				<circle fill="#C7B900" cx="433.9" cy="447.8" r="2.7"/>
				<circle fill="#C7B900" cx="449.2" cy="458.2" r="2.7"/>
				<path fill="#C7B900" d="M417.1,478.6c0.6-3.2,4.8-3.2,5.4,0c0,0.2,0,0.4,0,0.5c-0.6,3.2-4.8,3.2-5.4,0
					C417.1,478.9,417.1,478.8,417.1,478.6z"/>
				<circle fill="#C7B900" cx="420.8" cy="488.2" r="2.7"/>
				<path fill="#C7B900" d="M410.2,528.3c0.6-1.8,2.8-2.4,4.3-1.2c0.8,0.7,1.1,1.8,0.8,2.8c-0.6,1.8-2.8,2.4-4.3,1.2
					C410.2,530.4,409.8,529.3,410.2,528.3z"/>
				<circle fill="#C7B900" cx="421.9" cy="525.8" r="2.7"/>
				<g>
					<path fill="#C7B900" d="M352.5,484.6c11.8,0.1,21.8-12.6,24.4-16c-2.5-3.5-12.4-16.3-24.1-16.4c-0.3,0-0.6,0-0.9,0
						c-0.1,0-0.2,0-0.4,0c-0.1,0-0.1,0-0.2,0c-12.4,0.8-22.4,12.6-25,15.9C329,471.7,339.5,484.5,352.5,484.6z M349.7,487.5
						c-15.3-1.9-26.2-17.8-26.6-18.5c-0.4-0.5-0.4-1.2,0-1.8c0.5-0.7,11.6-16.4,26.9-18.1l3.2-0.1c15.1,0.4,26.5,17.9,27,18.7
						c0.3,0.5,0.3,1.2,0,1.7c-0.5,0.7-12.2,18.1-27.3,18.3L349.7,487.5z"/>
					<path fill="#C7B900" d="M351.5,479.9c-6.1,0-11-5.2-10.9-11.6c0-6.3,5-11.5,11.1-11.4c6.1,0,11,5.2,10.9,11.6
						S357.6,479.9,351.5,479.9z M359.5,468.4c0-4.6-3.5-8.4-7.8-8.4s-7.9,3.7-7.9,8.3c0,4.6,3.5,8.4,7.8,8.4
						C355.9,476.8,359.4,473,359.5,468.4z"/>
				</g>
				<g>
					<path fill="#C7B900" d="M412.7,510c4.4-10.9-3.8-24.9-6.1-28.5c-4.1,1-19.7,5.6-24,16.5c-0.1,0.3-0.2,0.6-0.3,0.8
						c0,0.1,0,0.2-0.1,0.4c0,0.1-0.1,0.1-0.1,0.2c-3.8,11.9,3.6,25.5,5.8,29.1C392.1,527.2,407.8,522.1,412.7,510z M414.4,513.7
						c-7.3,13.6-26.1,17.9-26.9,18.1c-0.6,0.1-1.3-0.1-1.7-0.7c-0.5-0.7-11.1-16.7-7.1-31.6l1-3c5.8-13.9,26.3-18.2,27.2-18.4
						c0.6-0.1,1.2,0.1,1.6,0.6c0.5,0.7,12.5,17.9,7.1,32.1L414.4,513.7z"/>
					<path fill="#C7B900" d="M407.9,509.2c-2.2,5.6-8.9,8.3-14.8,6s-8.9-8.8-6.6-14.5c2.2-5.6,8.9-8.3,14.8-6
						C407.2,497.1,410.2,503.6,407.9,509.2z M400.2,497.7c-4.3-1.7-9.1,0.2-10.7,4.2s0.6,8.7,4.8,10.4c4.3,1.7,9.1-0.2,10.7-4.2
						C406.6,504,404.4,499.4,400.2,497.7z"/>
				</g>
				<g>
					<path fill="#C7B900" d="M464.8,492.7c4.4-10.9-3.8-24.9-6.1-28.5c-4.1,1-19.7,5.6-24,16.5c-0.1,0.3-0.2,0.6-0.3,0.8
						c0,0.1,0,0.2-0.1,0.4c0,0.1-0.1,0.1-0.1,0.2c-3.8,11.9,3.6,25.5,5.8,29.1C444.2,510,459.9,504.9,464.8,492.7z M466.5,496.5
						c-7.3,13.6-26.1,17.9-26.9,18.1c-0.6,0.1-1.3-0.1-1.7-0.7c-0.5-0.7-11.1-16.7-7.1-31.6l1-3c5.8-13.9,26.3-18.2,27.2-18.4
						c0.6-0.1,1.2,0.1,1.6,0.6c0.5,0.7,12.5,17.9,7.1,32.1L466.5,496.5z"/>
					<path fill="#C7B900" d="M460,492c-2.2,5.6-8.9,8.3-14.8,6s-8.9-8.8-6.6-14.5c2.2-5.6,8.9-8.3,14.8-6
						C459.3,479.9,462.3,486.4,460,492z M452.2,480.4c-4.3-1.7-9.1,0.2-10.7,4.2s0.6,8.7,4.8,10.4c4.3,1.7,9.1-0.2,10.7-4.2
						C458.7,486.8,456.5,482.1,452.2,480.4z"/>
				</g>
				<g>
					<path fill="#C7B900" d="M423.5,461.9c0.9-4.2,3.7-19.4-3.7-29.5l-0.1-0.1c-0.1-0.1-0.1-0.2-0.2-0.3c-0.2-0.2-0.4-0.5-0.5-0.7
						c-7.6-9-23.7-8.5-28-8.2c-1,4.1-4.4,20,3.2,29C402.6,462.2,419.1,462.1,423.5,461.9z M391.5,453.9c-9.5-11.7-3.6-31.8-3.3-32.7
						c0.2-0.6,0.7-1,1.3-1.1c0.9-0.1,21.7-2.5,31.6,8.9l1.9,2.5c8.5,12.9,3.4,31.4,3.2,32.3c-0.2,0.6-0.7,1.1-1.4,1.1
						c-0.9,0.1-20,1.8-31.2-8.8L391.5,453.9z"/>
					<path fill="#C7B900" d="M400.2,434.1c4.9-4.1,12-3.6,15.9,1s3.1,11.7-1.7,15.8c-4.9,4.1-12,3.6-15.9-1
						C394.5,445.3,395.3,438.2,400.2,434.1z M400.8,447.9c2.8,3.3,7.9,3.6,11.4,0.6s4.1-8.1,1.3-11.4c-2.8-3.3-7.9-3.6-11.4-0.6
						C398.7,439.5,398.1,444.6,400.8,447.9z"/>
				</g>
			</g>
		</g>
		<g>
			<defs>
				<rect id="SVGID_19_" x="156" y="196" width="300" height="400"/>
			</defs>
			<clipPath id="SVGID_20_">
				<use xlink:href="#SVGID_19_"  overflow="visible"/>
			</clipPath>
			<g clip-path="url(#SVGID_20_)">
				<path fill="#C7B900" d="M187.1,393.6c0.2,0.9,1,1.4,1.9,1.2c0.4-0.1,0.8-0.3,1-0.7l9.7-15.1c0.4-0.8,0.2-1.7-0.6-2.2
					c-0.7-0.4-1.6-0.2-2.1,0.5l-9.7,15.1C187.1,392.8,187,393.2,187.1,393.6z"/>
				<path fill="#C7B900" d="M183.5,435.1c0.7,0.5,1.7,0.4,2.2-0.3c0.3-0.3,0.4-0.8,0.3-1.2l-2.1-17.9c-0.1-0.9-0.9-1.5-1.8-1.3
					c-0.8,0.1-1.4,0.9-1.3,1.7l2.1,17.9C183,434.5,183.2,434.8,183.5,435.1z"/>
				<path fill="#C7B900" d="M159.1,389c-0.7,0.6-0.8,1.6-0.2,2.2c0.3,0.3,0.7,0.5,1.1,0.6l17.9,1.7c0.9,0.1,1.6-0.6,1.7-1.5
					c0-0.8-0.6-1.6-1.4-1.7l-17.9-1.7C159.8,388.6,159.4,388.7,159.1,389z"/>
				<circle fill="#C7B900" cx="193.9" cy="367.8" r="2.7"/>
				<circle fill="#C7B900" cx="209.2" cy="378.2" r="2.7"/>
				<path fill="#C7B900" d="M177.1,398.6c0.6-3.2,4.8-3.2,5.4,0c0,0.2,0,0.4,0,0.5c-0.6,3.2-4.8,3.2-5.4,0
					C177.1,398.9,177.1,398.8,177.1,398.6z"/>
				<circle fill="#C7B900" cx="180.8" cy="408.2" r="2.7"/>
				<path fill="#C7B900" d="M170.2,448.3c0.6-1.8,2.8-2.4,4.3-1.2c0.8,0.7,1.1,1.8,0.8,2.8c-0.6,1.8-2.8,2.4-4.3,1.2
					C170.2,450.4,169.8,449.3,170.2,448.3z"/>
				<circle fill="#C7B900" cx="181.9" cy="445.8" r="2.7"/>
				<g>
					<path fill="#C7B900" d="M172.7,430c4.4-10.9-3.8-24.9-6.1-28.5c-4.1,1-19.7,5.6-24,16.5c-0.1,0.3-0.2,0.6-0.3,0.8
						c0,0.1,0,0.2-0.1,0.4c0,0.1-0.1,0.1-0.1,0.2c-3.8,11.9,3.6,25.5,5.8,29.1C152.1,447.2,167.8,442.1,172.7,430z M174.4,433.7
						c-7.3,13.6-26.1,17.9-26.9,18.1c-0.6,0.1-1.3-0.1-1.7-0.7c-0.5-0.7-11.1-16.7-7.1-31.6l1-3c5.8-13.9,26.3-18.2,27.2-18.4
						c0.6-0.1,1.2,0.1,1.6,0.6c0.5,0.7,12.5,17.9,7.1,32.1L174.4,433.7z"/>
					<path fill="#C7B900" d="M167.9,429.2c-2.2,5.6-8.9,8.3-14.8,6c-5.9-2.3-8.9-8.8-6.6-14.5s8.9-8.3,14.8-6
						C167.2,417.1,170.2,423.6,167.9,429.2z M160.2,417.7c-4.3-1.7-9.1,0.2-10.7,4.2c-1.6,4,0.6,8.7,4.8,10.4
						c4.3,1.7,9.1-0.2,10.7-4.2C166.6,424,164.4,419.4,160.2,417.7z"/>
				</g>
				<g>
					<path fill="#C7B900" d="M224.8,412.7c4.4-10.9-3.8-24.9-6.1-28.5c-4.1,1-19.7,5.6-24,16.5c-0.1,0.3-0.2,0.6-0.3,0.8
						c0,0.1,0,0.2-0.1,0.4c0,0.1-0.1,0.1-0.1,0.2c-3.8,11.9,3.6,25.5,5.8,29.1C204.2,430,219.9,424.9,224.8,412.7z M226.5,416.5
						c-7.3,13.6-26.1,17.9-26.9,18.1c-0.6,0.1-1.3-0.1-1.7-0.7c-0.5-0.7-11.1-16.7-7.1-31.6l1-3c5.8-13.9,26.3-18.2,27.2-18.4
						c0.6-0.1,1.2,0.1,1.6,0.6c0.5,0.7,12.5,17.9,7.1,32.1L226.5,416.5z"/>
					<path fill="#C7B900" d="M220,412c-2.2,5.6-8.9,8.3-14.8,6c-5.9-2.3-8.9-8.8-6.6-14.5c2.2-5.6,8.9-8.3,14.8-6
						C219.3,399.9,222.3,406.4,220,412z M212.2,400.4c-4.3-1.7-9.1,0.2-10.7,4.2c-1.6,4,0.6,8.7,4.8,10.4c4.3,1.7,9.1-0.2,10.7-4.2
						C218.7,406.8,216.5,402.1,212.2,400.4z"/>
				</g>
				<g>
					<path fill="#C7B900" d="M183.5,381.9c0.9-4.2,3.7-19.4-3.7-29.5l-0.1-0.1c-0.1-0.1-0.1-0.2-0.2-0.3c-0.2-0.2-0.4-0.5-0.5-0.7
						c-7.6-9-23.7-8.5-28-8.2c-1,4.1-4.4,20,3.2,29C162.6,382.2,179.1,382.1,183.5,381.9z M151.5,373.9c-9.5-11.7-3.6-31.8-3.3-32.7
						c0.2-0.6,0.7-1,1.3-1.1c0.9-0.1,21.7-2.5,31.6,8.9l1.9,2.5c8.5,12.9,3.4,31.4,3.2,32.3c-0.2,0.6-0.7,1.1-1.4,1.1
						c-0.9,0.1-20,1.8-31.2-8.8L151.5,373.9z"/>
					<path fill="#C7B900" d="M160.2,354.1c4.9-4.1,12-3.6,15.9,1s3.1,11.7-1.7,15.8s-12,3.6-15.9-1
						C154.5,365.3,155.3,358.2,160.2,354.1z M160.8,367.9c2.8,3.3,7.9,3.6,11.4,0.6s4.1-8.1,1.3-11.4s-7.9-3.6-11.4-0.6
						C158.7,359.5,158.1,364.6,160.8,367.9z"/>
				</g>
			</g>
		</g>
		<g>
			<defs>
				<rect id="SVGID_21_" x="156" y="196" width="300" height="400"/>
			</defs>
			<clipPath id="SVGID_22_">
				<use xlink:href="#SVGID_21_"  overflow="visible"/>
			</clipPath>
			<g clip-path="url(#SVGID_22_)">
				<path fill="#C7B900" d="M297.5,382.9c0.9,0,1.6-0.7,1.6-1.5c0-0.4-0.1-0.8-0.4-1.1l-12.3-13.1c-0.6-0.6-1.6-0.6-2.2,0
					s-0.6,1.5-0.1,2.2l12.3,13.1C296.7,382.7,297.1,382.9,297.5,382.9z"/>
				<path fill="#C7B900" d="M337.1,393.6c0.2,0.9,1,1.4,1.9,1.2c0.4-0.1,0.8-0.3,1-0.7l9.7-15.1c0.4-0.8,0.2-1.7-0.6-2.2
					c-0.7-0.4-1.6-0.2-2.1,0.5l-9.7,15.1C337.1,392.8,337,393.2,337.1,393.6z"/>
				<path fill="#C7B900" d="M333.5,435.1c0.7,0.5,1.7,0.4,2.2-0.3c0.3-0.3,0.4-0.8,0.3-1.2l-2.1-17.9c-0.1-0.9-0.9-1.5-1.8-1.3
					c-0.8,0.1-1.4,0.9-1.3,1.7l2.1,17.9C333,434.5,333.2,434.8,333.5,435.1z"/>
				<path fill="#C7B900" d="M281.8,442.1c0.7,0.5,1.7,0.2,2.2-0.5c0.2-0.4,0.3-0.8,0.2-1.2l-4-17.6c-0.2-0.8-1.1-1.4-1.9-1.1
					c-0.8,0.2-1.3,1-1.2,1.8l4,17.6C281.2,441.5,281.5,441.9,281.8,442.1z"/>
				<path fill="#C7B900" d="M297.3,395.8c0-0.9-0.7-1.6-1.5-1.6c-0.4,0-0.8,0.1-1.1,0.4l-13.1,12.3c-0.6,0.6-0.6,1.6,0,2.2
					s1.5,0.6,2.2,0.1l13.1-12.3C297.1,396.6,297.3,396.2,297.3,395.8z"/>
				<path fill="#C7B900" d="M309.1,389c-0.7,0.6-0.8,1.6-0.2,2.2c0.3,0.3,0.7,0.5,1.1,0.6l17.9,1.7c0.9,0.1,1.6-0.6,1.7-1.5
					c0-0.8-0.6-1.6-1.4-1.7l-17.9-1.7C309.8,388.6,309.4,388.7,309.1,389z"/>
				<path fill="#C7B900" d="M244.2,411.8c-0.7,0.6-0.8,1.6-0.2,2.2c0.3,0.3,0.7,0.5,1.1,0.6l17.9,1.6c0.9,0,1.6-0.6,1.7-1.5
					c0-0.8-0.6-1.6-1.4-1.7l-17.9-1.6C244.9,411.4,244.5,411.6,244.2,411.8z"/>
				<path fill="#C7B900" d="M249.8,362.1c-0.6,0.7-0.5,1.7,0.1,2.2c0.3,0.3,0.7,0.4,1.2,0.4l18-1.2c0.9-0.1,1.5-0.9,1.4-1.7
					c-0.1-0.8-0.8-1.5-1.6-1.4l-18,1.2C250.5,361.6,250.1,361.8,249.8,362.1z"/>
				<circle fill="#C7B900" cx="302.2" cy="388.4" r="2.7"/>
				<circle fill="#C7B900" cx="279" cy="362.6" r="2.7"/>
				<path fill="#C7B900" d="M271.9,408.8c0.9-2.4,3.9-2.5,5-0.3c0.3,0.7,0.3,1.5,0,2.2c-1.1,2.2-4.1,2.1-5-0.3
					C271.7,409.9,271.7,409.3,271.9,408.8z"/>
				<path fill="#C7B900" d="M278.5,414.8c0.9-2.4,3.9-2.5,5-0.3c0.3,0.7,0.3,1.5,0,2.2c-1.1,2.2-4.1,2.1-5-0.3
					C278.3,415.9,278.3,415.3,278.5,414.8z"/>
				<path fill="#C7B900" d="M268.6,417c0.9-2.4,3.9-2.5,5-0.3c0.3,0.7,0.3,1.5,0,2.2c-1.1,2.2-4.1,2.1-5-0.3
					C268.5,418.1,268.5,417.5,268.6,417z"/>
				<path fill="#C7B900" d="M237.1,403.4c0.3-1.9,2.3-2.9,4-1.9c0.9,0.5,1.4,1.6,1.3,2.7c-0.3,1.9-2.3,2.9-4,1.9
					C237.5,405.5,237,404.5,237.1,403.4z"/>
				<path fill="#C7B900" d="M231.8,416c-0.2-2.5,2.5-3.9,4.4-2.4c0.6,0.5,1,1.2,1,2c0,2.4-2.8,3.6-4.6,1.9
					C232.1,417,231.9,416.5,231.8,416z"/>
				<circle fill="#C7B900" cx="343.9" cy="367.8" r="2.7"/>
				<circle fill="#C7B900" cx="359.2" cy="378.2" r="2.7"/>
				<path fill="#C7B900" d="M327.1,398.6c0.6-3.2,4.8-3.2,5.4,0c0,0.2,0,0.4,0,0.5c-0.6,3.2-4.8,3.2-5.4,0
					C327.1,398.9,327.1,398.8,327.1,398.6z"/>
				<circle fill="#C7B900" cx="330.8" cy="408.2" r="2.7"/>
				<path fill="#C7B900" d="M320.2,448.3c0.6-1.8,2.8-2.4,4.3-1.2c0.8,0.7,1.1,1.8,0.8,2.8c-0.6,1.8-2.8,2.4-4.3,1.2
					C320.2,450.4,319.8,449.3,320.2,448.3z"/>
				<circle fill="#C7B900" cx="331.9" cy="445.8" r="2.7"/>
				<g>
					<path fill="#C7B900" d="M262.5,404.6c11.8,0.1,21.8-12.6,24.4-16c-2.5-3.5-12.4-16.3-24.1-16.4c-0.3,0-0.6,0-0.9,0
						c-0.1,0-0.2,0-0.4,0c-0.1,0-0.1,0-0.2,0c-12.4,0.8-22.4,12.6-25,15.9C239,391.7,249.5,404.5,262.5,404.6z M259.7,407.5
						c-15.3-1.9-26.2-17.8-26.6-18.5c-0.4-0.5-0.4-1.2,0-1.8c0.5-0.7,11.6-16.4,26.9-18.1l3.2-0.1c15.1,0.4,26.5,17.9,27,18.7
						c0.3,0.5,0.3,1.2,0,1.7c-0.5,0.7-12.2,18.1-27.3,18.3L259.7,407.5z"/>
					<path fill="#C7B900" d="M261.5,399.9c-6.1,0-11-5.2-10.9-11.6c0-6.3,5-11.5,11.1-11.4c6.1,0,11,5.2,10.9,11.6
						S267.6,399.9,261.5,399.9z M269.5,388.4c0-4.6-3.5-8.4-7.8-8.4s-7.9,3.7-7.9,8.3c0,4.6,3.5,8.4,7.8,8.4
						C265.9,396.8,269.4,393,269.5,388.4z"/>
				</g>
				<g>
					<path fill="#C7B900" d="M322.7,430c4.4-10.9-3.8-24.9-6.1-28.5c-4.1,1-19.7,5.6-24,16.5c-0.1,0.3-0.2,0.6-0.3,0.8
						c0,0.1,0,0.2-0.1,0.4c0,0.1-0.1,0.1-0.1,0.2c-3.8,11.9,3.6,25.5,5.8,29.1C302.1,447.2,317.8,442.1,322.7,430z M324.4,433.7
						c-7.3,13.6-26.1,17.9-26.9,18.1c-0.6,0.1-1.3-0.1-1.7-0.7c-0.5-0.7-11.1-16.7-7.1-31.6l1-3c5.8-13.9,26.3-18.2,27.2-18.4
						c0.6-0.1,1.2,0.1,1.6,0.6c0.5,0.7,12.5,17.9,7.1,32.1L324.4,433.7z"/>
					<path fill="#C7B900" d="M317.9,429.2c-2.2,5.6-8.9,8.3-14.8,6s-8.9-8.8-6.6-14.5c2.2-5.6,8.9-8.3,14.8-6
						C317.2,417.1,320.2,423.6,317.9,429.2z M310.2,417.7c-4.3-1.7-9.1,0.2-10.7,4.2s0.6,8.7,4.8,10.4c4.3,1.7,9.1-0.2,10.7-4.2
						C316.6,424,314.4,419.4,310.2,417.7z"/>
				</g>
				<g>
					<path fill="#C7B900" d="M374.8,412.7c4.4-10.9-3.8-24.9-6.1-28.5c-4.1,1-19.7,5.6-24,16.5c-0.1,0.3-0.2,0.6-0.3,0.8
						c0,0.1,0,0.2-0.1,0.4c0,0.1-0.1,0.1-0.1,0.2c-3.8,11.9,3.6,25.5,5.8,29.1C354.2,430,369.9,424.9,374.8,412.7z M376.5,416.5
						c-7.3,13.6-26.1,17.9-26.9,18.1c-0.6,0.1-1.3-0.1-1.7-0.7c-0.5-0.7-11.1-16.7-7.1-31.6l1-3c5.8-13.9,26.3-18.2,27.2-18.4
						c0.6-0.1,1.2,0.1,1.6,0.6c0.5,0.7,12.5,17.9,7.1,32.1L376.5,416.5z"/>
					<path fill="#C7B900" d="M370,412c-2.2,5.6-8.9,8.3-14.8,6s-8.9-8.8-6.6-14.5c2.2-5.6,8.9-8.3,14.8-6
						C369.3,399.9,372.3,406.4,370,412z M362.2,400.4c-4.3-1.7-9.1,0.2-10.7,4.2s0.6,8.7,4.8,10.4c4.3,1.7,9.1-0.2,10.7-4.2
						C368.7,406.8,366.5,402.1,362.2,400.4z"/>
				</g>
				<g>
					<path fill="#C7B900" d="M333.5,381.9c0.9-4.2,3.7-19.4-3.7-29.5l-0.1-0.1c-0.1-0.1-0.1-0.2-0.2-0.3c-0.2-0.2-0.4-0.5-0.5-0.7
						c-7.6-9-23.7-8.5-28-8.2c-1,4.1-4.4,20,3.2,29C312.6,382.2,329.1,382.1,333.5,381.9z M301.5,373.9c-9.5-11.7-3.6-31.8-3.3-32.7
						c0.2-0.6,0.7-1,1.3-1.1c0.9-0.1,21.7-2.5,31.6,8.9l1.9,2.5c8.5,12.9,3.4,31.4,3.2,32.3c-0.2,0.6-0.7,1.1-1.4,1.1
						c-0.9,0.1-20,1.8-31.2-8.8L301.5,373.9z"/>
					<path fill="#C7B900" d="M310.2,354.1c4.9-4.1,12-3.6,15.9,1s3.1,11.7-1.7,15.8c-4.9,4.1-12,3.6-15.9-1
						C304.5,365.3,305.3,358.2,310.2,354.1z M310.8,367.9c2.8,3.3,7.9,3.6,11.4,0.6s4.1-8.1,1.3-11.4c-2.8-3.3-7.9-3.6-11.4-0.6
						C308.7,359.5,308.1,364.6,310.8,367.9z"/>
				</g>
			</g>
		</g>
		<g>
			<defs>
				<rect id="SVGID_23_" x="156" y="196" width="300" height="400"/>
			</defs>
			<clipPath id="SVGID_24_">
				<use xlink:href="#SVGID_23_"  overflow="visible"/>
			</clipPath>
			<g clip-path="url(#SVGID_24_)">
				<path fill="#C7B900" d="M447.5,382.9c0.9,0,1.6-0.7,1.6-1.5c0-0.4-0.1-0.8-0.4-1.1l-12.3-13.1c-0.6-0.6-1.6-0.6-2.2,0
					s-0.6,1.5-0.1,2.2l12.3,13.1C446.7,382.7,447.1,382.9,447.5,382.9z"/>
				<path fill="#C7B900" d="M431.8,442.1c0.7,0.5,1.7,0.2,2.2-0.5c0.2-0.4,0.3-0.8,0.2-1.2l-4-17.6c-0.2-0.8-1.1-1.4-1.9-1.1
					c-0.8,0.2-1.3,1-1.2,1.8l4,17.6C431.2,441.5,431.5,441.9,431.8,442.1z"/>
				<path fill="#C7B900" d="M447.3,395.8c0-0.9-0.7-1.6-1.5-1.6c-0.4,0-0.8,0.1-1.1,0.4l-13.1,12.3c-0.6,0.6-0.6,1.6,0,2.2
					s1.5,0.6,2.2,0.1l13.1-12.3C447.1,396.6,447.3,396.2,447.3,395.8z"/>
				<path fill="#C7B900" d="M394.2,411.8c-0.7,0.6-0.8,1.6-0.2,2.2c0.3,0.3,0.7,0.5,1.1,0.6l17.9,1.6c0.9,0,1.6-0.6,1.7-1.5
					c0-0.8-0.6-1.6-1.4-1.7l-17.9-1.6C394.9,411.4,394.5,411.6,394.2,411.8z"/>
				<path fill="#C7B900" d="M399.8,362.1c-0.6,0.7-0.5,1.7,0.1,2.2c0.3,0.3,0.7,0.4,1.2,0.4l18-1.2c0.9-0.1,1.5-0.9,1.4-1.7
					c-0.1-0.8-0.8-1.5-1.6-1.4l-18,1.2C400.5,361.6,400.1,361.8,399.8,362.1z"/>
				<circle fill="#C7B900" cx="452.2" cy="388.4" r="2.7"/>
				<circle fill="#C7B900" cx="429" cy="362.6" r="2.7"/>
				<path fill="#C7B900" d="M421.9,408.8c0.9-2.4,3.9-2.5,5-0.3c0.3,0.7,0.3,1.5,0,2.2c-1.1,2.2-4.1,2.1-5-0.3
					C421.7,409.9,421.7,409.3,421.9,408.8z"/>
				<path fill="#C7B900" d="M428.5,414.8c0.9-2.4,3.9-2.5,5-0.3c0.3,0.7,0.3,1.5,0,2.2c-1.1,2.2-4.1,2.1-5-0.3
					C428.3,415.9,428.3,415.3,428.5,414.8z"/>
				<path fill="#C7B900" d="M418.6,417c0.9-2.4,3.9-2.5,5-0.3c0.3,0.7,0.3,1.5,0,2.2c-1.1,2.2-4.1,2.1-5-0.3
					C418.5,418.1,418.5,417.5,418.6,417z"/>
				<path fill="#C7B900" d="M387.1,403.4c0.3-1.9,2.3-2.9,4-1.9c0.9,0.5,1.4,1.6,1.3,2.7c-0.3,1.9-2.3,2.9-4,1.9
					C387.5,405.5,387,404.5,387.1,403.4z"/>
				<path fill="#C7B900" d="M381.8,416c-0.2-2.5,2.5-3.9,4.4-2.4c0.6,0.5,1,1.2,1,2c0,2.4-2.8,3.6-4.6,1.9
					C382.1,417,381.9,416.5,381.8,416z"/>
				<g>
					<path fill="#C7B900" d="M412.5,404.6c11.8,0.1,21.8-12.6,24.4-16c-2.5-3.5-12.4-16.3-24.1-16.4c-0.3,0-0.6,0-0.9,0
						c-0.1,0-0.2,0-0.4,0c-0.1,0-0.1,0-0.2,0c-12.4,0.8-22.4,12.6-25,15.9C389,391.7,399.5,404.5,412.5,404.6z M409.7,407.5
						c-15.3-1.9-26.2-17.8-26.6-18.5c-0.4-0.5-0.4-1.2,0-1.8c0.5-0.7,11.6-16.4,26.9-18.1l3.2-0.1c15.1,0.4,26.5,17.9,27,18.7
						c0.3,0.5,0.3,1.2,0,1.7c-0.5,0.7-12.2,18.1-27.3,18.3L409.7,407.5z"/>
					<path fill="#C7B900" d="M411.5,399.9c-6.1,0-11-5.2-10.9-11.6c0-6.3,5-11.5,11.1-11.4c6.1,0,11,5.2,10.9,11.6
						S417.6,399.9,411.5,399.9z M419.5,388.4c0-4.6-3.5-8.4-7.8-8.4s-7.9,3.7-7.9,8.3c0,4.6,3.5,8.4,7.8,8.4
						C415.9,396.8,419.4,393,419.5,388.4z"/>
				</g>
				<g>
					<path fill="#C7B900" d="M472.7,430c4.4-10.9-3.8-24.9-6.1-28.5c-4.1,1-19.7,5.6-24,16.5c-0.1,0.3-0.2,0.6-0.3,0.8
						c0,0.1,0,0.2-0.1,0.4c0,0.1-0.1,0.1-0.1,0.2c-3.8,11.9,3.6,25.5,5.8,29.1C452.1,447.2,467.8,442.1,472.7,430z M474.4,433.7
						c-7.3,13.6-26.1,17.9-26.9,18.1c-0.6,0.1-1.3-0.1-1.7-0.7c-0.5-0.7-11.1-16.7-7.1-31.6l1-3c5.8-13.9,26.3-18.2,27.2-18.4
						c0.6-0.1,1.2,0.1,1.6,0.6c0.5,0.7,12.5,17.9,7.1,32.1L474.4,433.7z"/>
					<path fill="#C7B900" d="M467.9,429.2c-2.2,5.6-8.9,8.3-14.8,6s-8.9-8.8-6.6-14.5c2.2-5.6,8.9-8.3,14.8-6
						C467.2,417.1,470.2,423.6,467.9,429.2z M460.2,417.7c-4.3-1.7-9.1,0.2-10.7,4.2s0.6,8.7,4.8,10.4c4.3,1.7,9.1-0.2,10.7-4.2
						C466.6,424,464.4,419.4,460.2,417.7z"/>
				</g>
				<g>
					<path fill="#C7B900" d="M483.5,381.9c0.9-4.2,3.7-19.4-3.7-29.5l-0.1-0.1c-0.1-0.1-0.1-0.2-0.2-0.3c-0.2-0.2-0.4-0.5-0.5-0.7
						c-7.6-9-23.7-8.5-28-8.2c-1,4.1-4.4,20,3.2,29C462.6,382.2,479.1,382.1,483.5,381.9z M451.5,373.9c-9.5-11.7-3.6-31.8-3.3-32.7
						c0.2-0.6,0.7-1,1.3-1.1c0.9-0.1,21.7-2.5,31.6,8.9l1.9,2.5c8.5,12.9,3.4,31.4,3.2,32.3c-0.2,0.6-0.7,1.1-1.4,1.1
						c-0.9,0.1-20,1.8-31.2-8.8L451.5,373.9z"/>
					<path fill="#C7B900" d="M460.2,354.1c4.9-4.1,12-3.6,15.9,1s3.1,11.7-1.7,15.8c-4.9,4.1-12,3.6-15.9-1
						C454.5,365.3,455.3,358.2,460.2,354.1z M460.8,367.9c2.8,3.3,7.9,3.6,11.4,0.6s4.1-8.1,1.3-11.4c-2.8-3.3-7.9-3.6-11.4-0.6
						C458.7,359.5,458.1,364.6,460.8,367.9z"/>
				</g>
			</g>
		</g>
		<g>
			<defs>
				<rect id="SVGID_25_" x="156" y="196" width="300" height="400"/>
			</defs>
			<clipPath id="SVGID_26_">
				<use xlink:href="#SVGID_25_"  overflow="visible"/>
			</clipPath>
			<g clip-path="url(#SVGID_26_)">
				<path fill="#C7B900" d="M207.5,302.9c0.9,0,1.6-0.7,1.6-1.5c0-0.4-0.1-0.8-0.4-1.1l-12.3-13.1c-0.6-0.6-1.6-0.6-2.2,0
					c-0.6,0.6-0.6,1.5-0.1,2.2l12.3,13.1C206.7,302.7,207.1,302.9,207.5,302.9z"/>
				<path fill="#C7B900" d="M247.1,313.6c0.2,0.9,1,1.4,1.9,1.2c0.4-0.1,0.8-0.3,1-0.7l9.7-15.1c0.4-0.8,0.2-1.7-0.6-2.2
					c-0.7-0.4-1.6-0.2-2.1,0.5l-9.7,15.1C247.1,312.8,247,313.2,247.1,313.6z"/>
				<path fill="#C7B900" d="M243.5,355.1c0.7,0.5,1.7,0.4,2.2-0.3c0.3-0.3,0.4-0.8,0.3-1.2l-2.1-17.9c-0.1-0.9-0.9-1.5-1.8-1.3
					c-0.8,0.1-1.4,0.9-1.3,1.7l2.1,17.9C243,354.5,243.2,354.8,243.5,355.1z"/>
				<path fill="#C7B900" d="M191.8,362.1c0.7,0.5,1.7,0.2,2.2-0.5c0.2-0.4,0.3-0.8,0.2-1.2l-4-17.6c-0.2-0.8-1.1-1.4-1.9-1.1
					c-0.8,0.2-1.3,1-1.2,1.8l4,17.6C191.2,361.5,191.5,361.9,191.8,362.1z"/>
				<path fill="#C7B900" d="M207.3,315.8c0-0.9-0.7-1.6-1.5-1.6c-0.4,0-0.8,0.1-1.1,0.4l-13.1,12.3c-0.6,0.6-0.6,1.6,0,2.2
					s1.5,0.6,2.2,0.1l13.1-12.3C207.1,316.6,207.3,316.2,207.3,315.8z"/>
				<path fill="#C7B900" d="M219.1,309c-0.7,0.6-0.8,1.6-0.2,2.2c0.3,0.3,0.7,0.5,1.1,0.6l17.9,1.7c0.9,0.1,1.6-0.6,1.7-1.5
					c0-0.8-0.6-1.6-1.4-1.7l-17.9-1.7C219.8,308.6,219.4,308.7,219.1,309z"/>
				<path fill="#C7B900" d="M154.2,331.8c-0.7,0.6-0.8,1.6-0.2,2.2c0.3,0.3,0.7,0.5,1.1,0.6l17.9,1.6c0.9,0,1.6-0.6,1.7-1.5
					c0-0.8-0.6-1.6-1.4-1.7l-17.9-1.6C154.9,331.4,154.5,331.6,154.2,331.8z"/>
				<path fill="#C7B900" d="M159.8,282.1c-0.6,0.7-0.5,1.7,0.1,2.2c0.3,0.3,0.7,0.4,1.2,0.4l18-1.2c0.9-0.1,1.5-0.9,1.4-1.7
					c-0.1-0.8-0.8-1.5-1.6-1.4l-18,1.2C160.5,281.6,160.1,281.8,159.8,282.1z"/>
				<circle fill="#C7B900" cx="212.2" cy="308.4" r="2.7"/>
				<circle fill="#C7B900" cx="189" cy="282.6" r="2.7"/>
				<path fill="#C7B900" d="M181.9,328.8c0.9-2.4,3.9-2.5,5-0.3c0.3,0.7,0.3,1.5,0,2.2c-1.1,2.2-4.1,2.1-5-0.3
					C181.7,329.9,181.7,329.3,181.9,328.8z"/>
				<path fill="#C7B900" d="M188.5,334.8c0.9-2.4,3.9-2.5,5-0.3c0.3,0.7,0.3,1.5,0,2.2c-1.1,2.2-4.1,2.1-5-0.3
					C188.3,335.9,188.3,335.3,188.5,334.8z"/>
				<path fill="#C7B900" d="M178.6,337c0.9-2.4,3.9-2.5,5-0.3c0.3,0.7,0.3,1.5,0,2.2c-1.1,2.2-4.1,2.1-5-0.3
					C178.5,338.1,178.5,337.5,178.6,337z"/>
				<circle fill="#C7B900" cx="253.9" cy="287.8" r="2.7"/>
				<circle fill="#C7B900" cx="269.2" cy="298.2" r="2.7"/>
				<path fill="#C7B900" d="M237.1,318.6c0.6-3.2,4.8-3.2,5.4,0c0,0.2,0,0.4,0,0.5c-0.6,3.2-4.8,3.2-5.4,0
					C237.1,318.9,237.1,318.8,237.1,318.6z"/>
				<circle fill="#C7B900" cx="240.8" cy="328.2" r="2.7"/>
				<path fill="#C7B900" d="M230.2,368.3c0.6-1.8,2.8-2.4,4.3-1.2c0.8,0.7,1.1,1.8,0.8,2.8c-0.6,1.8-2.8,2.4-4.3,1.2
					C230.2,370.4,229.8,369.3,230.2,368.3z"/>
				<circle fill="#C7B900" cx="241.9" cy="365.8" r="2.7"/>
				<g>
					<path fill="#C7B900" d="M172.5,324.6c11.8,0.1,21.8-12.6,24.4-16c-2.5-3.5-12.4-16.3-24.1-16.4c-0.3,0-0.6,0-0.9,0
						c-0.1,0-0.2,0-0.4,0c-0.1,0-0.1,0-0.2,0c-12.4,0.8-22.4,12.6-25,15.9C149,311.7,159.5,324.5,172.5,324.6z M169.7,327.5
						c-15.3-1.9-26.2-17.8-26.6-18.5c-0.4-0.5-0.4-1.2,0-1.8c0.5-0.7,11.6-16.4,26.9-18.1l3.2-0.1c15.1,0.4,26.5,17.9,27,18.7
						c0.3,0.5,0.3,1.2,0,1.7c-0.5,0.7-12.2,18.1-27.3,18.3L169.7,327.5z"/>
					<path fill="#C7B900" d="M171.5,319.9c-6.1,0-11-5.2-10.9-11.6c0-6.3,5-11.5,11.1-11.4c6.1,0,11,5.2,10.9,11.6
						S177.6,319.9,171.5,319.9z M179.5,308.4c0-4.6-3.5-8.4-7.8-8.4s-7.9,3.7-7.9,8.3c0,4.6,3.5,8.4,7.8,8.4
						C175.9,316.8,179.4,313,179.5,308.4z"/>
				</g>
				<g>
					<path fill="#C7B900" d="M232.7,350c4.4-10.9-3.8-24.9-6.1-28.5c-4.1,1-19.7,5.6-24,16.5c-0.1,0.3-0.2,0.6-0.3,0.8
						c0,0.1,0,0.2-0.1,0.4c0,0.1-0.1,0.1-0.1,0.2c-3.8,11.9,3.6,25.5,5.8,29.1C212.1,367.2,227.8,362.1,232.7,350z M234.4,353.7
						c-7.3,13.6-26.1,17.9-26.9,18.1c-0.6,0.1-1.3-0.1-1.7-0.7c-0.5-0.7-11.1-16.7-7.1-31.6l1-3c5.8-13.9,26.3-18.2,27.2-18.4
						c0.6-0.1,1.2,0.1,1.6,0.6c0.5,0.7,12.5,17.9,7.1,32.1L234.4,353.7z"/>
					<path fill="#C7B900" d="M227.9,349.2c-2.2,5.6-8.9,8.3-14.8,6c-5.9-2.3-8.9-8.8-6.6-14.5s8.9-8.3,14.8-6
						C227.2,337.1,230.2,343.6,227.9,349.2z M220.2,337.7c-4.3-1.7-9.1,0.2-10.7,4.2c-1.6,4,0.6,8.7,4.8,10.4
						c4.3,1.7,9.1-0.2,10.7-4.2C226.6,344,224.4,339.4,220.2,337.7z"/>
				</g>
				<g>
					<path fill="#C7B900" d="M284.8,332.7c4.4-10.9-3.8-24.9-6.1-28.5c-4.1,1-19.7,5.6-24,16.5c-0.1,0.3-0.2,0.6-0.3,0.8
						c0,0.1,0,0.2-0.1,0.4c0,0.1-0.1,0.1-0.1,0.2c-3.8,11.9,3.6,25.5,5.8,29.1C264.2,350,279.9,344.9,284.8,332.7z M286.5,336.5
						c-7.3,13.6-26.1,17.9-26.9,18.1c-0.6,0.1-1.3-0.1-1.7-0.7c-0.5-0.7-11.1-16.7-7.1-31.6l1-3c5.8-13.9,26.3-18.2,27.2-18.4
						c0.6-0.1,1.2,0.1,1.6,0.6c0.5,0.7,12.5,17.9,7.1,32.1L286.5,336.5z"/>
					<path fill="#C7B900" d="M280,332c-2.2,5.6-8.9,8.3-14.8,6s-8.9-8.8-6.6-14.5c2.2-5.6,8.9-8.3,14.8-6
						C279.3,319.9,282.3,326.4,280,332z M272.2,320.4c-4.3-1.7-9.1,0.2-10.7,4.2s0.6,8.7,4.8,10.4c4.3,1.7,9.1-0.2,10.7-4.2
						C278.7,326.8,276.5,322.1,272.2,320.4z"/>
				</g>
				<g>
					<path fill="#C7B900" d="M243.5,301.9c0.9-4.2,3.7-19.4-3.7-29.5l-0.1-0.1c-0.1-0.1-0.1-0.2-0.2-0.3c-0.2-0.2-0.4-0.5-0.5-0.7
						c-7.6-9-23.7-8.5-28-8.2c-1,4.1-4.4,20,3.2,29C222.6,302.2,239.1,302.1,243.5,301.9z M211.5,293.9c-9.5-11.7-3.6-31.8-3.3-32.7
						c0.2-0.6,0.7-1,1.3-1.1c0.9-0.1,21.7-2.5,31.6,8.9l1.9,2.5c8.5,12.9,3.4,31.4,3.2,32.3c-0.2,0.6-0.7,1.1-1.4,1.1
						c-0.9,0.1-20,1.8-31.2-8.8L211.5,293.9z"/>
					<path fill="#C7B900" d="M220.2,274.1c4.9-4.1,12-3.6,15.9,1s3.1,11.7-1.7,15.8s-12,3.6-15.9-1
						C214.5,285.3,215.3,278.2,220.2,274.1z M220.8,287.9c2.8,3.3,7.9,3.6,11.4,0.6s4.1-8.1,1.3-11.4s-7.9-3.6-11.4-0.6
						C218.7,279.5,218.1,284.6,220.8,287.9z"/>
				</g>
			</g>
		</g>
		<g>
			<defs>
				<rect id="SVGID_27_" x="156" y="196" width="300" height="400"/>
			</defs>
			<clipPath id="SVGID_28_">
				<use xlink:href="#SVGID_27_"  overflow="visible"/>
			</clipPath>
			<g clip-path="url(#SVGID_28_)">
				<path fill="#C7B900" d="M357.5,302.9c0.9,0,1.6-0.7,1.6-1.5c0-0.4-0.1-0.8-0.4-1.1l-12.3-13.1c-0.6-0.6-1.6-0.6-2.2,0
					s-0.6,1.5-0.1,2.2l12.3,13.1C356.7,302.7,357.1,302.9,357.5,302.9z"/>
				<path fill="#C7B900" d="M397.1,313.6c0.2,0.9,1,1.4,1.9,1.2c0.4-0.1,0.8-0.3,1-0.7l9.7-15.1c0.4-0.8,0.2-1.7-0.6-2.2
					c-0.7-0.4-1.6-0.2-2.1,0.5l-9.7,15.1C397.1,312.8,397,313.2,397.1,313.6z"/>
				<path fill="#C7B900" d="M393.5,355.1c0.7,0.5,1.7,0.4,2.2-0.3c0.3-0.3,0.4-0.8,0.3-1.2l-2.1-17.9c-0.1-0.9-0.9-1.5-1.8-1.3
					c-0.8,0.1-1.4,0.9-1.3,1.7l2.1,17.9C393,354.5,393.2,354.8,393.5,355.1z"/>
				<path fill="#C7B900" d="M341.8,362.1c0.7,0.5,1.7,0.2,2.2-0.5c0.2-0.4,0.3-0.8,0.2-1.2l-4-17.6c-0.2-0.8-1.1-1.4-1.9-1.1
					c-0.8,0.2-1.3,1-1.2,1.8l4,17.6C341.2,361.5,341.5,361.9,341.8,362.1z"/>
				<path fill="#C7B900" d="M357.3,315.8c0-0.9-0.7-1.6-1.5-1.6c-0.4,0-0.8,0.1-1.1,0.4l-13.1,12.3c-0.6,0.6-0.6,1.6,0,2.2
					s1.5,0.6,2.2,0.1l13.1-12.3C357.1,316.6,357.3,316.2,357.3,315.8z"/>
				<path fill="#C7B900" d="M369.1,309c-0.7,0.6-0.8,1.6-0.2,2.2c0.3,0.3,0.7,0.5,1.1,0.6l17.9,1.7c0.9,0.1,1.6-0.6,1.7-1.5
					c0-0.8-0.6-1.6-1.4-1.7l-17.9-1.7C369.8,308.6,369.4,308.7,369.1,309z"/>
				<path fill="#C7B900" d="M304.2,331.8c-0.7,0.6-0.8,1.6-0.2,2.2c0.3,0.3,0.7,0.5,1.1,0.6l17.9,1.6c0.9,0,1.6-0.6,1.7-1.5
					c0-0.8-0.6-1.6-1.4-1.7l-17.9-1.6C304.9,331.4,304.5,331.6,304.2,331.8z"/>
				<path fill="#C7B900" d="M309.8,282.1c-0.6,0.7-0.5,1.7,0.1,2.2c0.3,0.3,0.7,0.4,1.2,0.4l18-1.2c0.9-0.1,1.5-0.9,1.4-1.7
					c-0.1-0.8-0.8-1.5-1.6-1.4l-18,1.2C310.5,281.6,310.1,281.8,309.8,282.1z"/>
				<circle fill="#C7B900" cx="362.2" cy="308.4" r="2.7"/>
				<circle fill="#C7B900" cx="339" cy="282.6" r="2.7"/>
				<path fill="#C7B900" d="M331.9,328.8c0.9-2.4,3.9-2.5,5-0.3c0.3,0.7,0.3,1.5,0,2.2c-1.1,2.2-4.1,2.1-5-0.3
					C331.7,329.9,331.7,329.3,331.9,328.8z"/>
				<path fill="#C7B900" d="M338.5,334.8c0.9-2.4,3.9-2.5,5-0.3c0.3,0.7,0.3,1.5,0,2.2c-1.1,2.2-4.1,2.1-5-0.3
					C338.3,335.9,338.3,335.3,338.5,334.8z"/>
				<path fill="#C7B900" d="M328.6,337c0.9-2.4,3.9-2.5,5-0.3c0.3,0.7,0.3,1.5,0,2.2c-1.1,2.2-4.1,2.1-5-0.3
					C328.5,338.1,328.5,337.5,328.6,337z"/>
				<path fill="#C7B900" d="M297.1,323.4c0.3-1.9,2.3-2.9,4-1.9c0.9,0.5,1.4,1.6,1.3,2.7c-0.3,1.9-2.3,2.9-4,1.9
					C297.5,325.5,297,324.5,297.1,323.4z"/>
				<path fill="#C7B900" d="M291.8,336c-0.2-2.5,2.5-3.9,4.4-2.4c0.6,0.5,1,1.2,1,2c0,2.4-2.8,3.6-4.6,1.9
					C292.1,337,291.9,336.5,291.8,336z"/>
				<circle fill="#C7B900" cx="403.9" cy="287.8" r="2.7"/>
				<circle fill="#C7B900" cx="419.2" cy="298.2" r="2.7"/>
				<path fill="#C7B900" d="M387.1,318.6c0.6-3.2,4.8-3.2,5.4,0c0,0.2,0,0.4,0,0.5c-0.6,3.2-4.8,3.2-5.4,0
					C387.1,318.9,387.1,318.8,387.1,318.6z"/>
				<circle fill="#C7B900" cx="390.8" cy="328.2" r="2.7"/>
				<path fill="#C7B900" d="M380.2,368.3c0.6-1.8,2.8-2.4,4.3-1.2c0.8,0.7,1.1,1.8,0.8,2.8c-0.6,1.8-2.8,2.4-4.3,1.2
					C380.2,370.4,379.8,369.3,380.2,368.3z"/>
				<circle fill="#C7B900" cx="391.9" cy="365.8" r="2.7"/>
				<g>
					<path fill="#C7B900" d="M322.5,324.6c11.8,0.1,21.8-12.6,24.4-16c-2.5-3.5-12.4-16.3-24.1-16.4c-0.3,0-0.6,0-0.9,0
						c-0.1,0-0.2,0-0.4,0c-0.1,0-0.1,0-0.2,0c-12.4,0.8-22.4,12.6-25,15.9C299,311.7,309.5,324.5,322.5,324.6z M319.7,327.5
						c-15.3-1.9-26.2-17.8-26.6-18.5c-0.4-0.5-0.4-1.2,0-1.8c0.5-0.7,11.6-16.4,26.9-18.1l3.2-0.1c15.1,0.4,26.5,17.9,27,18.7
						c0.3,0.5,0.3,1.2,0,1.7c-0.5,0.7-12.2,18.1-27.3,18.3L319.7,327.5z"/>
					<path fill="#C7B900" d="M321.5,319.9c-6.1,0-11-5.2-10.9-11.6c0-6.3,5-11.5,11.1-11.4c6.1,0,11,5.2,10.9,11.6
						S327.6,319.9,321.5,319.9z M329.5,308.4c0-4.6-3.5-8.4-7.8-8.4s-7.9,3.7-7.9,8.3c0,4.6,3.5,8.4,7.8,8.4
						C325.9,316.8,329.4,313,329.5,308.4z"/>
				</g>
				<g>
					<path fill="#C7B900" d="M382.7,350c4.4-10.9-3.8-24.9-6.1-28.5c-4.1,1-19.7,5.6-24,16.5c-0.1,0.3-0.2,0.6-0.3,0.8
						c0,0.1,0,0.2-0.1,0.4c0,0.1-0.1,0.1-0.1,0.2c-3.8,11.9,3.6,25.5,5.8,29.1C362.1,367.2,377.8,362.1,382.7,350z M384.4,353.7
						c-7.3,13.6-26.1,17.9-26.9,18.1c-0.6,0.1-1.3-0.1-1.7-0.7c-0.5-0.7-11.1-16.7-7.1-31.6l1-3c5.8-13.9,26.3-18.2,27.2-18.4
						c0.6-0.1,1.2,0.1,1.6,0.6c0.5,0.7,12.5,17.9,7.1,32.1L384.4,353.7z"/>
					<path fill="#C7B900" d="M377.9,349.2c-2.2,5.6-8.9,8.3-14.8,6s-8.9-8.8-6.6-14.5c2.2-5.6,8.9-8.3,14.8-6
						C377.2,337.1,380.2,343.6,377.9,349.2z M370.2,337.7c-4.3-1.7-9.1,0.2-10.7,4.2s0.6,8.7,4.8,10.4c4.3,1.7,9.1-0.2,10.7-4.2
						C376.6,344,374.4,339.4,370.2,337.7z"/>
				</g>
				<g>
					<path fill="#C7B900" d="M434.8,332.7c4.4-10.9-3.8-24.9-6.1-28.5c-4.1,1-19.7,5.6-24,16.5c-0.1,0.3-0.2,0.6-0.3,0.8
						c0,0.1,0,0.2-0.1,0.4c0,0.1-0.1,0.1-0.1,0.2c-3.8,11.9,3.6,25.5,5.8,29.1C414.2,350,429.9,344.9,434.8,332.7z M436.5,336.5
						c-7.3,13.6-26.1,17.9-26.9,18.1c-0.6,0.1-1.3-0.1-1.7-0.7c-0.5-0.7-11.1-16.7-7.1-31.6l1-3c5.8-13.9,26.3-18.2,27.2-18.4
						c0.6-0.1,1.2,0.1,1.6,0.6c0.5,0.7,12.5,17.9,7.1,32.1L436.5,336.5z"/>
					<path fill="#C7B900" d="M430,332c-2.2,5.6-8.9,8.3-14.8,6s-8.9-8.8-6.6-14.5c2.2-5.6,8.9-8.3,14.8-6
						C429.3,319.9,432.3,326.4,430,332z M422.2,320.4c-4.3-1.7-9.1,0.2-10.7,4.2s0.6,8.7,4.8,10.4c4.3,1.7,9.1-0.2,10.7-4.2
						C428.7,326.8,426.5,322.1,422.2,320.4z"/>
				</g>
				<g>
					<path fill="#C7B900" d="M393.5,301.9c0.9-4.2,3.7-19.4-3.7-29.5l-0.1-0.1c-0.1-0.1-0.1-0.2-0.2-0.3c-0.2-0.2-0.4-0.5-0.5-0.7
						c-7.6-9-23.7-8.5-28-8.2c-1,4.1-4.4,20,3.2,29C372.6,302.2,389.1,302.1,393.5,301.9z M361.5,293.9c-9.5-11.7-3.6-31.8-3.3-32.7
						c0.2-0.6,0.7-1,1.3-1.1c0.9-0.1,21.7-2.5,31.6,8.9l1.9,2.5c8.5,12.9,3.4,31.4,3.2,32.3c-0.2,0.6-0.7,1.1-1.4,1.1
						c-0.9,0.1-20,1.8-31.2-8.8L361.5,293.9z"/>
					<path fill="#C7B900" d="M370.2,274.1c4.9-4.1,12-3.6,15.9,1s3.1,11.7-1.7,15.8c-4.9,4.1-12,3.6-15.9-1
						C364.5,285.3,365.3,278.2,370.2,274.1z M370.8,287.9c2.8,3.3,7.9,3.6,11.4,0.6s4.1-8.1,1.3-11.4c-2.8-3.3-7.9-3.6-11.4-0.6
						C368.7,279.5,368.1,284.6,370.8,287.9z"/>
				</g>
			</g>
		</g>
		<g>
			<defs>
				<rect id="SVGID_29_" x="156" y="196" width="300" height="400"/>
			</defs>
			<clipPath id="SVGID_30_">
				<use xlink:href="#SVGID_29_"  overflow="visible"/>
			</clipPath>
			<g clip-path="url(#SVGID_30_)">
				<path fill="#C7B900" d="M454.2,331.8c-0.7,0.6-0.8,1.6-0.2,2.2c0.3,0.3,0.7,0.5,1.1,0.6l17.9,1.6c0.9,0,1.6-0.6,1.7-1.5
					c0-0.8-0.6-1.6-1.4-1.7l-17.9-1.6C454.9,331.4,454.5,331.6,454.2,331.8z"/>
				<path fill="#C7B900" d="M447.1,323.4c0.3-1.9,2.3-2.9,4-1.9c0.9,0.5,1.4,1.6,1.3,2.7c-0.3,1.9-2.3,2.9-4,1.9
					C447.5,325.5,447,324.5,447.1,323.4z"/>
				<path fill="#C7B900" d="M441.8,336c-0.2-2.5,2.5-3.9,4.4-2.4c0.6,0.5,1,1.2,1,2c0,2.4-2.8,3.6-4.6,1.9
					C442.1,337,441.9,336.5,441.8,336z"/>
				<g>
					<path fill="#C7B900" d="M472.5,324.6c11.8,0.1,21.8-12.6,24.4-16c-2.5-3.5-12.4-16.3-24.1-16.4c-0.3,0-0.6,0-0.9,0
						c-0.1,0-0.2,0-0.4,0c-0.1,0-0.1,0-0.2,0c-12.4,0.8-22.4,12.6-25,15.9C449,311.7,459.5,324.5,472.5,324.6z M469.7,327.5
						c-15.3-1.9-26.2-17.8-26.6-18.5c-0.4-0.5-0.4-1.2,0-1.8c0.5-0.7,11.6-16.4,26.9-18.1l3.2-0.1c15.1,0.4,26.5,17.9,27,18.7
						c0.3,0.5,0.3,1.2,0,1.7c-0.5,0.7-12.2,18.1-27.3,18.3L469.7,327.5z"/>
				</g>
			</g>
		</g>
		<g>
			<defs>
				<rect id="SVGID_31_" x="156" y="196" width="300" height="400"/>
			</defs>
			<clipPath id="SVGID_32_">
				<use xlink:href="#SVGID_31_"  overflow="visible"/>
			</clipPath>
			<g clip-path="url(#SVGID_32_)">
				<path fill="#C7B900" d="M157.1,233.6c0.2,0.9,1,1.4,1.9,1.2c0.4-0.1,0.8-0.3,1-0.7l9.7-15.1c0.4-0.8,0.2-1.7-0.6-2.2
					c-0.7-0.4-1.6-0.2-2.1,0.5l-9.7,15.1C157.1,232.8,157,233.2,157.1,233.6z"/>
				<path fill="#C7B900" d="M153.5,275.1c0.7,0.5,1.7,0.4,2.2-0.3c0.3-0.3,0.4-0.8,0.3-1.2l-2.1-17.9c-0.1-0.9-0.9-1.5-1.8-1.3
					c-0.8,0.1-1.4,0.9-1.3,1.7l2.1,17.9C153,274.5,153.2,274.8,153.5,275.1z"/>
				<circle fill="#C7B900" cx="163.9" cy="207.8" r="2.7"/>
				<circle fill="#C7B900" cx="179.2" cy="218.2" r="2.7"/>
				<g>
					<path fill="#C7B900" d="M194.8,252.7c4.4-10.9-3.8-24.9-6.1-28.5c-4.1,1-19.7,5.6-24,16.5c-0.1,0.3-0.2,0.6-0.3,0.8
						c0,0.1,0,0.2-0.1,0.4c0,0.1-0.1,0.1-0.1,0.2c-3.8,11.9,3.6,25.5,5.8,29.1C174.2,270,189.9,264.9,194.8,252.7z M196.5,256.5
						c-7.3,13.6-26.1,17.9-26.9,18.1c-0.6,0.1-1.3-0.1-1.7-0.7c-0.5-0.7-11.1-16.7-7.1-31.6l1-3c5.8-13.9,26.3-18.2,27.2-18.4
						c0.6-0.1,1.2,0.1,1.6,0.6c0.5,0.7,12.5,17.9,7.1,32.1L196.5,256.5z"/>
					<path fill="#C7B900" d="M190,252c-2.2,5.6-8.9,8.3-14.8,6c-5.9-2.3-8.9-8.8-6.6-14.5c2.2-5.6,8.9-8.3,14.8-6
						C189.3,239.9,192.3,246.4,190,252z M182.2,240.4c-4.3-1.7-9.1,0.2-10.7,4.2c-1.6,4,0.6,8.7,4.8,10.4c4.3,1.7,9.1-0.2,10.7-4.2
						C188.7,246.8,186.5,242.1,182.2,240.4z"/>
				</g>
				<g>
					<path fill="#C7B900" d="M153.5,221.9c0.9-4.2,3.7-19.4-3.7-29.5l-0.1-0.1c-0.1-0.1-0.1-0.2-0.2-0.3c-0.2-0.2-0.4-0.5-0.5-0.7
						c-7.6-9-23.7-8.5-28-8.2c-1,4.1-4.4,20,3.2,29C132.6,222.2,149.1,222.1,153.5,221.9z M121.5,213.9c-9.5-11.7-3.6-31.8-3.3-32.7
						c0.2-0.6,0.7-1,1.3-1.1c0.9-0.1,21.7-2.5,31.6,8.9l1.9,2.5c8.5,12.9,3.4,31.4,3.2,32.3c-0.2,0.6-0.7,1.1-1.4,1.1
						c-0.9,0.1-20,1.8-31.2-8.8L121.5,213.9z"/>
				</g>
			</g>
		</g>
		<g>
			<defs>
				<rect id="SVGID_33_" x="156" y="196" width="300" height="400"/>
			</defs>
			<clipPath id="SVGID_34_">
				<use xlink:href="#SVGID_33_"  overflow="visible"/>
			</clipPath>
			<g clip-path="url(#SVGID_34_)">
				<path fill="#C7B900" d="M267.5,222.9c0.9,0,1.6-0.7,1.6-1.5c0-0.4-0.1-0.8-0.4-1.1l-12.3-13.1c-0.6-0.6-1.6-0.6-2.2,0
					c-0.6,0.6-0.6,1.5-0.1,2.2l12.3,13.1C266.7,222.7,267.1,222.9,267.5,222.9z"/>
				<path fill="#C7B900" d="M307.1,233.6c0.2,0.9,1,1.4,1.9,1.2c0.4-0.1,0.8-0.3,1-0.7l9.7-15.1c0.4-0.8,0.2-1.7-0.6-2.2
					c-0.7-0.4-1.6-0.2-2.1,0.5l-9.7,15.1C307.1,232.8,307,233.2,307.1,233.6z"/>
				<path fill="#C7B900" d="M303.5,275.1c0.7,0.5,1.7,0.4,2.2-0.3c0.3-0.3,0.4-0.8,0.3-1.2l-2.1-17.9c-0.1-0.9-0.9-1.5-1.8-1.3
					c-0.8,0.1-1.4,0.9-1.3,1.7l2.1,17.9C303,274.5,303.2,274.8,303.5,275.1z"/>
				<path fill="#C7B900" d="M251.8,282.1c0.7,0.5,1.7,0.2,2.2-0.5c0.2-0.4,0.3-0.8,0.2-1.2l-4-17.6c-0.2-0.8-1.1-1.4-1.9-1.1
					c-0.8,0.2-1.3,1-1.2,1.8l4,17.6C251.2,281.5,251.5,281.9,251.8,282.1z"/>
				<path fill="#C7B900" d="M267.3,235.8c0-0.9-0.7-1.6-1.5-1.6c-0.4,0-0.8,0.1-1.1,0.4l-13.1,12.3c-0.6,0.6-0.6,1.6,0,2.2
					c0.6,0.6,1.5,0.6,2.2,0.1l13.1-12.3C267.1,236.6,267.3,236.2,267.3,235.8z"/>
				<path fill="#C7B900" d="M279.1,229c-0.7,0.6-0.8,1.6-0.2,2.2c0.3,0.3,0.7,0.5,1.1,0.6l17.9,1.7c0.9,0.1,1.6-0.6,1.7-1.5
					c0-0.8-0.6-1.6-1.4-1.7l-17.9-1.7C279.8,228.6,279.4,228.7,279.1,229z"/>
				<path fill="#C7B900" d="M214.2,251.8c-0.7,0.6-0.8,1.6-0.2,2.2c0.3,0.3,0.7,0.5,1.1,0.6l17.9,1.6c0.9,0,1.6-0.6,1.7-1.5
					c0-0.8-0.6-1.6-1.4-1.7l-17.9-1.6C214.9,251.4,214.5,251.6,214.2,251.8z"/>
				<path fill="#C7B900" d="M219.8,202.1c-0.6,0.7-0.5,1.7,0.1,2.2c0.3,0.3,0.7,0.4,1.2,0.4l18-1.2c0.9-0.1,1.5-0.9,1.4-1.7
					s-0.8-1.5-1.6-1.4l-18,1.2C220.5,201.6,220.1,201.8,219.8,202.1z"/>
				<circle fill="#C7B900" cx="272.2" cy="228.4" r="2.7"/>
				<circle fill="#C7B900" cx="249" cy="202.6" r="2.7"/>
				<path fill="#C7B900" d="M241.9,248.8c0.9-2.4,3.9-2.5,5-0.3c0.3,0.7,0.3,1.5,0,2.2c-1.1,2.2-4.1,2.1-5-0.3
					C241.7,249.9,241.7,249.3,241.9,248.8z"/>
				<path fill="#C7B900" d="M248.5,254.8c0.9-2.4,3.9-2.5,5-0.3c0.3,0.7,0.3,1.5,0,2.2c-1.1,2.2-4.1,2.1-5-0.3
					C248.3,255.9,248.3,255.3,248.5,254.8z"/>
				<path fill="#C7B900" d="M238.6,257c0.9-2.4,3.9-2.5,5-0.3c0.3,0.7,0.3,1.5,0,2.2c-1.1,2.2-4.1,2.1-5-0.3
					C238.5,258.1,238.5,257.5,238.6,257z"/>
				<path fill="#C7B900" d="M207.1,243.4c0.3-1.9,2.3-2.9,4-1.9c0.9,0.5,1.4,1.6,1.3,2.7c-0.3,1.9-2.3,2.9-4,1.9
					C207.5,245.5,207,244.5,207.1,243.4z"/>
				<path fill="#C7B900" d="M201.8,256c-0.2-2.5,2.5-3.9,4.4-2.4c0.6,0.5,1,1.2,1,2c0,2.4-2.8,3.6-4.6,1.9
					C202.1,257,201.9,256.5,201.8,256z"/>
				<circle fill="#C7B900" cx="313.9" cy="207.8" r="2.7"/>
				<circle fill="#C7B900" cx="329.2" cy="218.2" r="2.7"/>
				<path fill="#C7B900" d="M297.1,238.6c0.6-3.2,4.8-3.2,5.4,0c0,0.2,0,0.4,0,0.5c-0.6,3.2-4.8,3.2-5.4,0
					C297.1,238.9,297.1,238.8,297.1,238.6z"/>
				<circle fill="#C7B900" cx="300.8" cy="248.2" r="2.7"/>
				<path fill="#C7B900" d="M290.2,288.3c0.6-1.8,2.8-2.4,4.3-1.2c0.8,0.7,1.1,1.8,0.8,2.8c-0.6,1.8-2.8,2.4-4.3,1.2
					C290.2,290.4,289.8,289.3,290.2,288.3z"/>
				<circle fill="#C7B900" cx="301.9" cy="285.8" r="2.7"/>
				<g>
					<path fill="#C7B900" d="M232.5,244.6c11.8,0.1,21.8-12.6,24.4-16c-2.5-3.5-12.4-16.3-24.1-16.4c-0.3,0-0.6,0-0.9,0
						c-0.1,0-0.2,0-0.4,0c-0.1,0-0.1,0-0.2,0c-12.4,0.8-22.4,12.6-25,15.9C209,231.7,219.5,244.5,232.5,244.6z M229.7,247.5
						c-15.3-1.9-26.2-17.8-26.6-18.5c-0.4-0.5-0.4-1.2,0-1.8c0.5-0.7,11.6-16.4,26.9-18.1l3.2-0.1c15.1,0.4,26.5,17.9,27,18.7
						c0.3,0.5,0.3,1.2,0,1.7c-0.5,0.7-12.2,18.1-27.3,18.3L229.7,247.5z"/>
					<path fill="#C7B900" d="M231.5,239.9c-6.1,0-11-5.2-10.9-11.6s5-11.5,11.1-11.4c6.1,0,11,5.2,10.9,11.6
						C242.6,234.8,237.6,239.9,231.5,239.9z M239.5,228.4c0-4.6-3.5-8.4-7.8-8.4s-7.9,3.7-7.9,8.3s3.5,8.4,7.8,8.4
						C235.9,236.8,239.4,233,239.5,228.4z"/>
				</g>
				<g>
					<path fill="#C7B900" d="M292.7,270c4.4-10.9-3.8-24.9-6.1-28.5c-4.1,1-19.7,5.6-24,16.5c-0.1,0.3-0.2,0.6-0.3,0.8
						c0,0.1,0,0.2-0.1,0.4c0,0.1-0.1,0.1-0.1,0.2c-3.8,11.9,3.6,25.5,5.8,29.1C272.1,287.2,287.8,282.1,292.7,270z M294.4,273.7
						c-7.3,13.6-26.1,17.9-26.9,18.1c-0.6,0.1-1.3-0.1-1.7-0.7c-0.5-0.7-11.1-16.7-7.1-31.6l1-3c5.8-13.9,26.3-18.2,27.2-18.4
						c0.6-0.1,1.2,0.1,1.6,0.6c0.5,0.7,12.5,17.9,7.1,32.1L294.4,273.7z"/>
					<path fill="#C7B900" d="M287.9,269.2c-2.2,5.6-8.9,8.3-14.8,6s-8.9-8.8-6.6-14.5c2.2-5.6,8.9-8.3,14.8-6
						C287.2,257.1,290.2,263.6,287.9,269.2z M280.2,257.7c-4.3-1.7-9.1,0.2-10.7,4.2s0.6,8.7,4.8,10.4c4.3,1.7,9.1-0.2,10.7-4.2
						C286.6,264,284.4,259.4,280.2,257.7z"/>
				</g>
				<g>
					<path fill="#C7B900" d="M344.8,252.7c4.4-10.9-3.8-24.9-6.1-28.5c-4.1,1-19.7,5.6-24,16.5c-0.1,0.3-0.2,0.6-0.3,0.8
						c0,0.1,0,0.2-0.1,0.4c0,0.1-0.1,0.1-0.1,0.2c-3.8,11.9,3.6,25.5,5.8,29.1C324.2,270,339.9,264.9,344.8,252.7z M346.5,256.5
						c-7.3,13.6-26.1,17.9-26.9,18.1c-0.6,0.1-1.3-0.1-1.7-0.7c-0.5-0.7-11.1-16.7-7.1-31.6l1-3c5.8-13.9,26.3-18.2,27.2-18.4
						c0.6-0.1,1.2,0.1,1.6,0.6c0.5,0.7,12.5,17.9,7.1,32.1L346.5,256.5z"/>
					<path fill="#C7B900" d="M340,252c-2.2,5.6-8.9,8.3-14.8,6c-5.9-2.3-8.9-8.8-6.6-14.5c2.2-5.6,8.9-8.3,14.8-6
						S342.3,246.4,340,252z M332.2,240.4c-4.3-1.7-9.1,0.2-10.7,4.2s0.6,8.7,4.8,10.4c4.3,1.7,9.1-0.2,10.7-4.2
						S336.5,242.1,332.2,240.4z"/>
				</g>
				<g>
					<path fill="#C7B900" d="M303.5,221.9c0.9-4.2,3.7-19.4-3.7-29.5l-0.1-0.1c-0.1-0.1-0.1-0.2-0.2-0.3c-0.2-0.2-0.4-0.5-0.5-0.7
						c-7.6-9-23.7-8.5-28-8.2c-1,4.1-4.4,20,3.2,29C282.6,222.2,299.1,222.1,303.5,221.9z M271.5,213.9c-9.5-11.7-3.6-31.8-3.3-32.7
						c0.2-0.6,0.7-1,1.3-1.1c0.9-0.1,21.7-2.5,31.6,8.9l1.9,2.5c8.5,12.9,3.4,31.4,3.2,32.3c-0.2,0.6-0.7,1.1-1.4,1.1
						c-0.9,0.1-20,1.8-31.2-8.8L271.5,213.9z"/>
					<path fill="#C7B900" d="M280.2,194.1c4.9-4.1,12-3.6,15.9,1s3.1,11.7-1.7,15.8c-4.9,4.1-12,3.6-15.9-1
						C274.5,205.3,275.3,198.2,280.2,194.1z M280.8,207.9c2.8,3.3,7.9,3.6,11.4,0.6s4.1-8.1,1.3-11.4c-2.8-3.3-7.9-3.6-11.4-0.6
						C278.7,199.5,278.1,204.6,280.8,207.9z"/>
				</g>
			</g>
		</g>
		<g>
			<defs>
				<rect id="SVGID_35_" x="156" y="196" width="300" height="400"/>
			</defs>
			<clipPath id="SVGID_36_">
				<use xlink:href="#SVGID_35_"  overflow="visible"/>
			</clipPath>
			<g clip-path="url(#SVGID_36_)">
				<path fill="#C7B900" d="M417.5,222.9c0.9,0,1.6-0.7,1.6-1.5c0-0.4-0.1-0.8-0.4-1.1l-12.3-13.1c-0.6-0.6-1.6-0.6-2.2,0
					s-0.6,1.5-0.1,2.2l12.3,13.1C416.7,222.7,417.1,222.9,417.5,222.9z"/>
				<path fill="#C7B900" d="M453.5,275.1c0.7,0.5,1.7,0.4,2.2-0.3c0.3-0.3,0.4-0.8,0.3-1.2l-2.1-17.9c-0.1-0.9-0.9-1.5-1.8-1.3
					c-0.8,0.1-1.4,0.9-1.3,1.7l2.1,17.9C453,274.5,453.2,274.8,453.5,275.1z"/>
				<path fill="#C7B900" d="M401.8,282.1c0.7,0.5,1.7,0.2,2.2-0.5c0.2-0.4,0.3-0.8,0.2-1.2l-4-17.6c-0.2-0.8-1.1-1.4-1.9-1.1
					c-0.8,0.2-1.3,1-1.2,1.8l4,17.6C401.2,281.5,401.5,281.9,401.8,282.1z"/>
				<path fill="#C7B900" d="M417.3,235.8c0-0.9-0.7-1.6-1.5-1.6c-0.4,0-0.8,0.1-1.1,0.4l-13.1,12.3c-0.6,0.6-0.6,1.6,0,2.2
					c0.6,0.6,1.5,0.6,2.2,0.1l13.1-12.3C417.1,236.6,417.3,236.2,417.3,235.8z"/>
				<path fill="#C7B900" d="M429.1,229c-0.7,0.6-0.8,1.6-0.2,2.2c0.3,0.3,0.7,0.5,1.1,0.6l17.9,1.7c0.9,0.1,1.6-0.6,1.7-1.5
					c0-0.8-0.6-1.6-1.4-1.7l-17.9-1.7C429.8,228.6,429.4,228.7,429.1,229z"/>
				<path fill="#C7B900" d="M364.2,251.8c-0.7,0.6-0.8,1.6-0.2,2.2c0.3,0.3,0.7,0.5,1.1,0.6l17.9,1.6c0.9,0,1.6-0.6,1.7-1.5
					c0-0.8-0.6-1.6-1.4-1.7l-17.9-1.6C364.9,251.4,364.5,251.6,364.2,251.8z"/>
				<path fill="#C7B900" d="M369.8,202.1c-0.6,0.7-0.5,1.7,0.1,2.2c0.3,0.3,0.7,0.4,1.2,0.4l18-1.2c0.9-0.1,1.5-0.9,1.4-1.7
					s-0.8-1.5-1.6-1.4l-18,1.2C370.5,201.6,370.1,201.8,369.8,202.1z"/>
				<circle fill="#C7B900" cx="422.2" cy="228.4" r="2.7"/>
				<circle fill="#C7B900" cx="399" cy="202.6" r="2.7"/>
				<path fill="#C7B900" d="M391.9,248.8c0.9-2.4,3.9-2.5,5-0.3c0.3,0.7,0.3,1.5,0,2.2c-1.1,2.2-4.1,2.1-5-0.3
					C391.7,249.9,391.7,249.3,391.9,248.8z"/>
				<path fill="#C7B900" d="M398.5,254.8c0.9-2.4,3.9-2.5,5-0.3c0.3,0.7,0.3,1.5,0,2.2c-1.1,2.2-4.1,2.1-5-0.3
					C398.3,255.9,398.3,255.3,398.5,254.8z"/>
				<path fill="#C7B900" d="M388.6,257c0.9-2.4,3.9-2.5,5-0.3c0.3,0.7,0.3,1.5,0,2.2c-1.1,2.2-4.1,2.1-5-0.3
					C388.5,258.1,388.5,257.5,388.6,257z"/>
				<path fill="#C7B900" d="M357.1,243.4c0.3-1.9,2.3-2.9,4-1.9c0.9,0.5,1.4,1.6,1.3,2.7c-0.3,1.9-2.3,2.9-4,1.9
					C357.5,245.5,357,244.5,357.1,243.4z"/>
				<path fill="#C7B900" d="M351.8,256c-0.2-2.5,2.5-3.9,4.4-2.4c0.6,0.5,1,1.2,1,2c0,2.4-2.8,3.6-4.6,1.9
					C352.1,257,351.9,256.5,351.8,256z"/>
				<path fill="#C7B900" d="M447.1,238.6c0.6-3.2,4.8-3.2,5.4,0c0,0.2,0,0.4,0,0.5c-0.6,3.2-4.8,3.2-5.4,0
					C447.1,238.9,447.1,238.8,447.1,238.6z"/>
				<circle fill="#C7B900" cx="450.8" cy="248.2" r="2.7"/>
				<path fill="#C7B900" d="M440.2,288.3c0.6-1.8,2.8-2.4,4.3-1.2c0.8,0.7,1.1,1.8,0.8,2.8c-0.6,1.8-2.8,2.4-4.3,1.2
					C440.2,290.4,439.8,289.3,440.2,288.3z"/>
				<circle fill="#C7B900" cx="451.9" cy="285.8" r="2.7"/>
				<g>
					<path fill="#C7B900" d="M382.5,244.6c11.8,0.1,21.8-12.6,24.4-16c-2.5-3.5-12.4-16.3-24.1-16.4c-0.3,0-0.6,0-0.9,0
						c-0.1,0-0.2,0-0.4,0c-0.1,0-0.1,0-0.2,0c-12.4,0.8-22.4,12.6-25,15.9C359,231.7,369.5,244.5,382.5,244.6z M379.7,247.5
						c-15.3-1.9-26.2-17.8-26.6-18.5c-0.4-0.5-0.4-1.2,0-1.8c0.5-0.7,11.6-16.4,26.9-18.1l3.2-0.1c15.1,0.4,26.5,17.9,27,18.7
						c0.3,0.5,0.3,1.2,0,1.7c-0.5,0.7-12.2,18.1-27.3,18.3L379.7,247.5z"/>
					<path fill="#C7B900" d="M381.5,239.9c-6.1,0-11-5.2-10.9-11.6s5-11.5,11.1-11.4c6.1,0,11,5.2,10.9,11.6
						C392.6,234.8,387.6,239.9,381.5,239.9z M389.5,228.4c0-4.6-3.5-8.4-7.8-8.4s-7.9,3.7-7.9,8.3s3.5,8.4,7.8,8.4
						C385.9,236.8,389.4,233,389.5,228.4z"/>
				</g>
				<g>
					<path fill="#C7B900" d="M442.7,270c4.4-10.9-3.8-24.9-6.1-28.5c-4.1,1-19.7,5.6-24,16.5c-0.1,0.3-0.2,0.6-0.3,0.8
						c0,0.1,0,0.2-0.1,0.4c0,0.1-0.1,0.1-0.1,0.2c-3.8,11.9,3.6,25.5,5.8,29.1C422.1,287.2,437.8,282.1,442.7,270z M444.4,273.7
						c-7.3,13.6-26.1,17.9-26.9,18.1c-0.6,0.1-1.3-0.1-1.7-0.7c-0.5-0.7-11.1-16.7-7.1-31.6l1-3c5.8-13.9,26.3-18.2,27.2-18.4
						c0.6-0.1,1.2,0.1,1.6,0.6c0.5,0.7,12.5,17.9,7.1,32.1L444.4,273.7z"/>
					<path fill="#C7B900" d="M437.9,269.2c-2.2,5.6-8.9,8.3-14.8,6s-8.9-8.8-6.6-14.5c2.2-5.6,8.9-8.3,14.8-6
						C437.2,257.1,440.2,263.6,437.9,269.2z M430.2,257.7c-4.3-1.7-9.1,0.2-10.7,4.2s0.6,8.7,4.8,10.4c4.3,1.7,9.1-0.2,10.7-4.2
						C436.6,264,434.4,259.4,430.2,257.7z"/>
				</g>
				<g>
					<path fill="#C7B900" d="M453.5,221.9c0.9-4.2,3.7-19.4-3.7-29.5l-0.1-0.1c-0.1-0.1-0.1-0.2-0.2-0.3c-0.2-0.2-0.4-0.5-0.5-0.7
						c-7.6-9-23.7-8.5-28-8.2c-1,4.1-4.4,20,3.2,29C432.6,222.2,449.1,222.1,453.5,221.9z M421.5,213.9c-9.5-11.7-3.6-31.8-3.3-32.7
						c0.2-0.6,0.7-1,1.3-1.1c0.9-0.1,21.7-2.5,31.6,8.9l1.9,2.5c8.5,12.9,3.4,31.4,3.2,32.3c-0.2,0.6-0.7,1.1-1.4,1.1
						c-0.9,0.1-20,1.8-31.2-8.8L421.5,213.9z"/>
					<path fill="#C7B900" d="M430.2,194.1c4.9-4.1,12-3.6,15.9,1s3.1,11.7-1.7,15.8c-4.9,4.1-12,3.6-15.9-1
						C424.5,205.3,425.3,198.2,430.2,194.1z M430.8,207.9c2.8,3.3,7.9,3.6,11.4,0.6s4.1-8.1,1.3-11.4c-2.8-3.3-7.9-3.6-11.4-0.6
						C428.7,199.5,428.1,204.6,430.8,207.9z"/>
				</g>
			</g>
		</g>
		<g>
			<defs>
				<rect id="SVGID_37_" x="156" y="196" width="300" height="400"/>
			</defs>
			<clipPath id="SVGID_38_">
				<use xlink:href="#SVGID_37_"  overflow="visible"/>
			</clipPath>
			<g clip-path="url(#SVGID_38_)">
				<path fill="#C7B900" d="M161.8,202.1c0.7,0.5,1.7,0.2,2.2-0.5c0.2-0.4,0.3-0.8,0.2-1.2l-4-17.6c-0.2-0.8-1.1-1.4-1.9-1.1
					c-0.8,0.2-1.3,1-1.2,1.8l4,17.6C161.2,201.5,161.5,201.9,161.8,202.1z"/>
				<path fill="#C7B900" d="M200.2,208.3c0.6-1.8,2.8-2.4,4.3-1.2c0.8,0.7,1.1,1.8,0.8,2.8c-0.6,1.8-2.8,2.4-4.3,1.2
					C200.2,210.4,199.8,209.3,200.2,208.3z"/>
				<circle fill="#C7B900" cx="211.9" cy="205.8" r="2.7"/>
				<g>
					<path fill="#C7B900" d="M202.7,190c4.4-10.9-3.8-24.9-6.1-28.5c-4.1,1-19.7,5.6-24,16.5c-0.1,0.3-0.2,0.6-0.3,0.8
						c0,0.1,0,0.2-0.1,0.4c0,0.1-0.1,0.1-0.1,0.2c-3.8,11.9,3.6,25.5,5.8,29.1C182.1,207.2,197.8,202.1,202.7,190z M204.4,193.7
						c-7.3,13.6-26.1,17.9-26.9,18.1c-0.6,0.1-1.3-0.1-1.7-0.7c-0.5-0.7-11.1-16.7-7.1-31.6l1-3c5.8-13.9,26.3-18.2,27.2-18.4
						c0.6-0.1,1.2,0.1,1.6,0.6c0.5,0.7,12.5,17.9,7.1,32.1L204.4,193.7z"/>
					<path fill="#C7B900" d="M197.9,189.2c-2.2,5.6-8.9,8.3-14.8,6c-5.9-2.3-8.9-8.8-6.6-14.5c2.2-5.6,8.9-8.3,14.8-6
						C197.2,177.1,200.2,183.6,197.9,189.2z M190.2,177.7c-4.3-1.7-9.1,0.2-10.7,4.2c-1.6,4,0.6,8.7,4.8,10.4
						c4.3,1.7,9.1-0.2,10.7-4.2C196.6,184,194.4,179.4,190.2,177.7z"/>
				</g>
			</g>
		</g>
		<g>
			<defs>
				<rect id="SVGID_39_" x="156" y="196" width="300" height="400"/>
			</defs>
			<clipPath id="SVGID_40_">
				<use xlink:href="#SVGID_39_"  overflow="visible"/>
			</clipPath>
			<g clip-path="url(#SVGID_40_)">
				<path fill="#C7B900" d="M311.8,202.1c0.7,0.5,1.7,0.2,2.2-0.5c0.2-0.4,0.3-0.8,0.2-1.2l-4-17.6c-0.2-0.8-1.1-1.4-1.9-1.1
					c-0.8,0.2-1.3,1-1.2,1.8l4,17.6C311.2,201.5,311.5,201.9,311.8,202.1z"/>
				<path fill="#C7B900" d="M350.2,208.3c0.6-1.8,2.8-2.4,4.3-1.2c0.8,0.7,1.1,1.8,0.8,2.8c-0.6,1.8-2.8,2.4-4.3,1.2
					C350.2,210.4,349.8,209.3,350.2,208.3z"/>
				<circle fill="#C7B900" cx="361.9" cy="205.8" r="2.7"/>
				<g>
					<path fill="#C7B900" d="M352.7,190c4.4-10.9-3.8-24.9-6.1-28.5c-4.1,1-19.7,5.6-24,16.5c-0.1,0.3-0.2,0.6-0.3,0.8
						c0,0.1,0,0.2-0.1,0.4c0,0.1-0.1,0.1-0.1,0.2c-3.8,11.9,3.6,25.5,5.8,29.1C332.1,207.2,347.8,202.1,352.7,190z M354.4,193.7
						c-7.3,13.6-26.1,17.9-26.9,18.1c-0.6,0.1-1.3-0.1-1.7-0.7c-0.5-0.7-11.1-16.7-7.1-31.6l1-3c5.8-13.9,26.3-18.2,27.2-18.4
						c0.6-0.1,1.2,0.1,1.6,0.6c0.5,0.7,12.5,17.9,7.1,32.1L354.4,193.7z"/>
					<path fill="#C7B900" d="M347.9,189.2c-2.2,5.6-8.9,8.3-14.8,6s-8.9-8.8-6.6-14.5c2.2-5.6,8.9-8.3,14.8-6
						C347.2,177.1,350.2,183.6,347.9,189.2z M340.2,177.7c-4.3-1.7-9.1,0.2-10.7,4.2s0.6,8.7,4.8,10.4c4.3,1.7,9.1-0.2,10.7-4.2
						C346.6,184,344.4,179.4,340.2,177.7z"/>
				</g>
			</g>
		</g>
	</g>
</g>
</svg>
