<?xml version="1.0" encoding="utf-8"?>
<!-- Generator: Adobe Illustrator 17.1.0, SVG Export Plug-In . SVG Version: 6.00 Build 0)  -->
<!DOCTYPE svg PUBLIC "-//W3C//DTD SVG 1.1//EN" "http://www.w3.org/Graphics/SVG/1.1/DTD/svg11.dtd">
<svg version="1.1" id="MAN" xmlns="http://www.w3.org/2000/svg" xmlns:xlink="http://www.w3.org/1999/xlink" x="0px" y="0px"
	 viewBox="90.4 165.5 431.2 460.9" enable-background="new 90.4 165.5 431.2 460.9" xml:space="preserve">
<g>
	<g>
		<g>
			<defs>
				<rect id="SVGID_1_" x="90.4" y="165.5" width="431.2" height="460.9"/>
			</defs>
			<clipPath id="SVGID_2_">
				<use xlink:href="#SVGID_1_"  overflow="visible"/>
			</clipPath>
			<g clip-path="url(#SVGID_2_)">
				<path fill="#5813C4" d="M422.9,599.4c-0.9-0.9-2.4-0.9-3.3,0.1c-0.9,0.9-0.9,2.4,0,3.3l18.9,18.9c0.9,0.9,2.4,0.9,3.3-0.1
					c0.9-0.9,0.9-2.4,0-3.3L422.9,599.4z"/>
				<path fill="#5813C4" d="M408.9,603.7c-0.9-0.9-2.4-0.9-3.3,0.1c-0.9,0.9-0.9,2.4,0,3.3l18.9,18.9c0.9,0.9,2.4,0.9,3.3-0.1
					c0.9-0.9,0.9-2.4,0-3.3L408.9,603.7z"/>
				<path fill="#5813C4" d="M413.4,524c0.9,0.9,2.4,0.9,3.3,0l18.9-18.9c0.9-0.9,0.9-2.4-0.1-3.3c-0.9-0.9-2.4-0.9-3.3,0l-18.7,18.7
					C412.5,521.5,412.5,523,413.4,524z"/>
				<path fill="#5813C4" d="M334,594.9l-18.9,18.9c-0.9,0.9-1,2.4-0.1,3.3c0.9,0.9,2.4,1,3.3,0.1l0.1-0.1l18.9-18.9
					c0.9-0.9,0.9-2.4-0.1-3.3C336.3,594.1,334.8,594.1,334,594.9L334,594.9z"/>
				<path fill="#5813C4" d="M320,587.7c3.9-2.4,8,1.6,5.7,5.7c-0.1,0.3-0.4,0.6-0.9,0.9c-3.9,2.4-8-1.6-5.7-5.7
					C319.4,588.1,319.7,587.8,320,587.7z"/>
				<path fill="#5813C4" d="M309.7,597.2c3.9-2.4,8,1.6,5.7,5.7c-0.1,0.3-0.4,0.6-0.9,0.9c-3.9,2.4-8-1.6-5.7-5.7
					C309.1,597.6,309.4,597.3,309.7,597.2z"/>
				<circle fill="#5813C4" cx="434.8" cy="547.4" r="4"/>
				<g>
					<circle fill="#5813C4" cx="367.1" cy="626.6" r="4"/>
					<circle fill="#5813C4" cx="379" cy="626.6" r="4"/>
				</g>
				<g>
					<path fill="#5813C4" d="M346.7,544.1c0.9-0.9,0.9-2.4,0-3.3c-0.4-0.4-1-0.7-1.6-0.7h-26.8c-1.3,0-2.4,1.2-2.2,2.4
						c0,1.2,1,2.2,2.2,2.2h26.8C345.7,544.8,346.3,544.5,346.7,544.1z"/>
					<path fill="#5813C4" d="M488.3,553c0.9,0.9,2.5,0.9,3.3-0.1l18.1-19.8c0.9-1,0.7-2.5-0.3-3.3c-0.9-0.7-2.4-0.7-3.3,0.1
						L488,549.7C487.3,550.6,487.3,552.1,488.3,553z"/>
					<circle fill="#5813C4" cx="481" cy="520" r="4"/>
					<circle fill="#5813C4" cx="471" cy="529.2" r="4"/>
					<circle fill="#5813C4" cx="434.6" cy="563.7" r="4"/>
				</g>
				<g>
					<path fill="#5813C4" d="M398.3,600.7c-0.6,0.7-1.6,1-2.5,0.7l-0.7-0.3l-65.6-22.6l-0.7-0.3c-0.9-0.3-1.5-1.2-1.6-2.1
						c0-1,0.6-1.9,1.5-2.2c0.1,0,16.1-7.1,28-39.8c0-0.1,0-0.3,0.1-0.4c3.1-8.8,11-14.6,19.6-15.5l5.1-14.7c0.4-1.2,1.8-1.9,3-1.5
						l0.6,0.3l13.4,4.6l0.6,0.3c1.2,0.4,1.9,1.8,1.5,3l-5.1,14.7c6.4,6.1,8.9,15.5,5.9,24.4c0,0.1-0.1,0.3-0.1,0.3
						c-10.7,33-2.7,48.5-2.5,48.6C399.1,599,399.1,600,398.3,600.7z M335.4,575.6l56.8,19.6c-1.8-7.3-3.3-22.3,3.9-47.9
						c2.8-10.1-1.9-20.1-11-23.5c-9.2-3-19.2,2.1-23.2,11.7C351.8,560,341.4,571,335.4,575.6z M385.7,507.4l-3.7,10.9
						c1.3,0.1,2.8,0.6,4.2,1c0.1,0,0.3,0.1,0.4,0.1c0.1,0,0.3,0.1,0.4,0.1c1.3,0.4,2.7,1,3.9,1.8l3.7-10.9L385.7,507.4z"/>
					<path fill="#5813C4" d="M374.8,596.1c-1.2-0.4-2.5,0.3-3,1.5c-1.9,5.7-8,8.6-13.7,6.7s-8.6-8-6.7-13.7c0.4-1.2-0.3-2.5-1.5-3
						s-2.5,0.3-3,1.5c-2.8,8,1.5,17,9.5,19.6c8,2.8,17-1.5,19.6-9.5C376.8,597.9,376,596.6,374.8,596.1z"/>
				</g>
				<g>
					<path fill="#5813C4" d="M506.9,566.2c0,0.1-6.1,16.5,9.1,47.9c0.1,0.1,0.1,0.1,0.1,0.3c4.2,8.3,2.8,18-2.5,25l7,14
						c0.6,1.2,0.1,2.5-1,3.1l-0.6,0.4l-12.6,6.4l-0.6,0.3c-1.2,0.6-2.5,0.1-3.1-1l-7-14c-8.8,0.3-17.4-4.3-21.6-12.8
						c0-0.1-0.1-0.3-0.1-0.4c-16.2-30.8-33-35.7-33.2-35.7c-0.9-0.3-1.6-1-1.8-2.1c-0.1-1,0.4-1.9,1.3-2.4l0.7-0.3l62-31.2l0.7-0.3
						c0.9-0.4,1.9-0.3,2.7,0.3C507,564.3,507.3,565.4,506.9,566.2z M478.9,633.2c5.2,9.1,15.8,12.6,24.5,8.5
						c8.6-4.6,11.9-15.2,7.7-24.8c-10.6-24.2-11.2-39.4-10.3-46.8L447.4,597C453.8,600.9,465.5,610.3,478.9,633.2z M514.8,653.7
						l-5.2-10.3c-1.2,0.9-2.4,1.6-3.6,2.2c-0.1,0-0.3,0.1-0.4,0.1c-0.1,0-0.3,0.1-0.4,0.1c-1.3,0.6-2.7,1.2-4,1.5l5.2,10.3
						L514.8,653.7z"/>
					<path fill="#5813C4" d="M483.5,571.3c-1.2,0.6-2.5,0.1-3.1-1c-2.7-5.4-9.1-7.4-14.4-4.8c-5.4,2.7-7.4,9.1-4.8,14.4
						c0.6,1.2,0.1,2.5-1,3.1c-1.2,0.6-2.5,0.1-3.1-1c-3.9-7.6-0.7-17,6.8-20.8s17-0.7,20.8,6.8C485.2,569.4,484.7,570.7,483.5,571.3
						z"/>
				</g>
			</g>
		</g>
		<g>
			<defs>
				<rect id="SVGID_3_" x="90.4" y="165.5" width="431.2" height="460.9"/>
			</defs>
			<clipPath id="SVGID_4_">
				<use xlink:href="#SVGID_3_"  overflow="visible"/>
			</clipPath>
			<g clip-path="url(#SVGID_4_)">
				<path fill="#5813C4" d="M207.3,599.4c-0.9-0.9-2.4-0.9-3.3,0.1c-0.9,0.9-0.9,2.4,0,3.3l18.9,18.9c0.9,0.9,2.4,0.9,3.3-0.1
					c0.9-0.9,0.9-2.4,0-3.3L207.3,599.4z"/>
				<path fill="#5813C4" d="M193.3,603.7c-0.9-0.9-2.4-0.9-3.3,0.1c-0.9,0.9-0.9,2.4,0,3.3l18.9,18.9c0.9,0.9,2.4,0.9,3.3-0.1
					c0.9-0.9,0.9-2.4,0-3.3L193.3,603.7z"/>
				<path fill="#5813C4" d="M197.8,524c0.9,0.9,2.4,0.9,3.3,0l18.9-18.9c0.9-0.9,0.9-2.4-0.1-3.3c-0.9-0.9-2.4-0.9-3.3,0l-18.7,18.7
					C196.9,521.5,196.9,523,197.8,524z"/>
				<path fill="#5813C4" d="M118.4,594.9l-18.9,18.9c-0.9,0.9-1,2.4-0.1,3.3s2.4,1,3.3,0.1l0.1-0.1l18.9-18.9
					c0.9-0.9,0.9-2.4-0.1-3.3C120.7,594.1,119.2,594.1,118.4,594.9L118.4,594.9z"/>
				<path fill="#5813C4" d="M104.4,587.7c3.9-2.4,8,1.6,5.7,5.7c-0.1,0.3-0.4,0.6-0.9,0.9c-3.9,2.4-8-1.6-5.7-5.7
					C103.8,588.1,104.1,587.8,104.4,587.7z"/>
				<path fill="#5813C4" d="M94.1,597.2c3.9-2.4,8,1.6,5.7,5.7c-0.1,0.3-0.4,0.6-0.9,0.9c-3.9,2.4-8-1.6-5.7-5.7
					C93.5,597.6,93.8,597.3,94.1,597.2z"/>
				<circle fill="#5813C4" cx="219.2" cy="547.4" r="4"/>
				<g>
					<circle fill="#5813C4" cx="151.5" cy="626.6" r="4"/>
					<circle fill="#5813C4" cx="163.4" cy="626.6" r="4"/>
				</g>
				<g>
					<path fill="#5813C4" d="M131.1,544.1c0.9-0.9,0.9-2.4,0-3.3c-0.4-0.4-1-0.7-1.6-0.7h-26.8c-1.3,0-2.4,1.2-2.2,2.4
						c0,1.2,1,2.2,2.2,2.2h26.8C130.1,544.8,130.7,544.5,131.1,544.1z"/>
					<path fill="#5813C4" d="M272.7,553c0.9,0.9,2.5,0.9,3.3-0.1l18.1-19.8c0.9-1,0.7-2.5-0.3-3.3c-0.9-0.7-2.4-0.7-3.3,0.1
						l-18.1,19.8C271.7,550.6,271.7,552.1,272.7,553z"/>
					<circle fill="#5813C4" cx="265.4" cy="520" r="4"/>
					<circle fill="#5813C4" cx="255.4" cy="529.2" r="4"/>
					<circle fill="#5813C4" cx="311.7" cy="555.7" r="4"/>
					<circle fill="#5813C4" cx="219" cy="563.7" r="4"/>
				</g>
				<g>
					<path fill="#5813C4" d="M182.7,600.7c-0.6,0.7-1.6,1-2.5,0.7l-0.7-0.3l-65.6-22.6l-0.7-0.3c-0.9-0.3-1.5-1.2-1.6-2.1
						c0-1,0.6-1.9,1.5-2.2c0.1,0,16.1-7.1,28-39.8c0-0.1,0-0.3,0.1-0.4c3.1-8.8,11-14.6,19.6-15.5l5.1-14.7c0.4-1.2,1.8-1.9,3-1.5
						l0.6,0.3l13.4,4.6l0.6,0.3c1.2,0.4,1.9,1.8,1.5,3l-5.1,14.7c6.4,6.1,8.9,15.5,5.9,24.4c0,0.1-0.1,0.3-0.1,0.3
						c-10.7,33-2.7,48.5-2.5,48.6C183.5,599,183.5,600,182.7,600.7z M119.8,575.6l56.8,19.6c-1.8-7.3-3.3-22.3,3.9-47.9
						c2.8-10.1-1.9-20.1-11-23.5c-9.2-3-19.2,2.1-23.2,11.7C136.2,560,125.8,571,119.8,575.6z M170.1,507.4l-3.7,10.9
						c1.3,0.1,2.8,0.6,4.2,1c0.1,0,0.3,0.1,0.4,0.1c0.1,0,0.3,0.1,0.4,0.1c1.3,0.4,2.7,1,3.9,1.8l3.7-10.9L170.1,507.4z"/>
					<path fill="#5813C4" d="M159.2,596.1c-1.2-0.4-2.5,0.3-3,1.5c-1.9,5.7-8,8.6-13.7,6.7s-8.6-8-6.7-13.7c0.4-1.2-0.3-2.5-1.5-3
						c-1.2-0.4-2.5,0.3-3,1.5c-2.8,8,1.5,17,9.5,19.6c8,2.8,17-1.5,19.6-9.5C161.2,597.9,160.4,596.6,159.2,596.1z"/>
				</g>
				<g>
					<path fill="#5813C4" d="M291.3,566.2c0,0.1-6.1,16.5,9.1,47.9c0.1,0.1,0.1,0.1,0.1,0.3c4.2,8.3,2.8,18-2.5,25l7,14
						c0.6,1.2,0.1,2.5-1,3.1l-0.6,0.4l-12.6,6.4l-0.6,0.3c-1.2,0.6-2.5,0.1-3.1-1l-7-14c-8.8,0.3-17.4-4.3-21.6-12.8
						c0-0.1-0.1-0.3-0.1-0.4c-16.2-30.8-33-35.7-33.2-35.7c-0.9-0.3-1.6-1-1.8-2.1c-0.1-1,0.4-1.9,1.3-2.4l0.7-0.3l62-31.2l0.7-0.3
						c0.9-0.4,1.9-0.3,2.7,0.3C291.4,564.3,291.7,565.4,291.3,566.2z M263.3,633.2c5.2,9.1,15.8,12.6,24.5,8.5
						c8.6-4.6,11.9-15.2,7.7-24.8c-10.6-24.2-11.2-39.4-10.3-46.8L231.8,597C238.2,600.9,249.9,610.3,263.3,633.2z M299.2,653.7
						l-5.2-10.3c-1.2,0.9-2.4,1.6-3.6,2.2c-0.1,0-0.3,0.1-0.4,0.1c-0.1,0-0.3,0.1-0.4,0.1c-1.3,0.6-2.7,1.2-4,1.5l5.2,10.3
						L299.2,653.7z"/>
					<path fill="#5813C4" d="M267.9,571.3c-1.2,0.6-2.5,0.1-3.1-1c-2.7-5.4-9.1-7.4-14.4-4.8c-5.4,2.7-7.4,9.1-4.8,14.4
						c0.6,1.2,0.1,2.5-1,3.1c-1.2,0.6-2.5,0.1-3.1-1c-3.9-7.6-0.7-17,6.8-20.8s17-0.7,20.8,6.8C269.6,569.4,269.1,570.7,267.9,571.3
						z"/>
				</g>
			</g>
		</g>
		<g>
			<defs>
				<rect id="SVGID_5_" x="90.4" y="165.5" width="431.2" height="460.9"/>
			</defs>
			<clipPath id="SVGID_6_">
				<use xlink:href="#SVGID_5_"  overflow="visible"/>
			</clipPath>
			<g clip-path="url(#SVGID_6_)">
				<g>
					<circle fill="#5813C4" cx="96.1" cy="555.7" r="4"/>
				</g>
			</g>
		</g>
		<g>
			<defs>
				<rect id="SVGID_7_" x="90.4" y="165.5" width="431.2" height="460.9"/>
			</defs>
			<clipPath id="SVGID_8_">
				<use xlink:href="#SVGID_7_"  overflow="visible"/>
			</clipPath>
			<g clip-path="url(#SVGID_8_)">
				<path fill="#5813C4" d="M516.7,373.3c-0.9-0.9-2.4-0.9-3.3,0.1c-0.9,0.9-0.9,2.4,0,3.3l18.9,18.9c0.9,0.9,2.4,0.9,3.3-0.1
					c0.9-0.9,0.9-2.4,0-3.3L516.7,373.3z"/>
				<path fill="#5813C4" d="M425.4,475.3c1.3,0,2.4-1,2.4-2.4c0-0.6-0.3-1.2-0.7-1.6l-18.9-18.9c-0.9-0.9-2.4-0.9-3.3,0.1
					c-0.9,0.9-0.9,2.4,0,3.3l18.9,18.9C424.2,475,424.8,475.3,425.4,475.3z"/>
				<path fill="#5813C4" d="M521.2,293.6c0.9,0.9,2.4,0.9,3.3,0l18.9-18.9c0.9-0.9,0.9-2.4-0.1-3.3c-0.9-0.9-2.4-0.9-3.3,0
					L521,290.3C520.3,291,520.3,292.5,521.2,293.6z"/>
				<path fill="#5813C4" d="M441.8,364.5l-18.9,18.9c-0.9,0.9-1,2.4-0.1,3.3c0.9,0.9,2.4,1,3.3,0.1l0.1-0.1l18.9-18.9
					c0.9-0.9,0.9-2.4-0.1-3.3C444.1,363.6,442.6,363.6,441.8,364.5L441.8,364.5z"/>
				<path fill="#5813C4" d="M427.8,357.2c3.9-2.4,8,1.6,5.7,5.7c-0.1,0.3-0.4,0.6-0.9,0.9c-3.9,2.4-8-1.6-5.7-5.7
					C427.2,357.6,427.5,357.3,427.8,357.2z"/>
				<path fill="#5813C4" d="M417.5,366.7c3.9-2.4,8,1.6,5.7,5.7c-0.1,0.3-0.4,0.6-0.9,0.9c-3.9,2.4-8-1.6-5.7-5.7
					C416.9,367.2,417.2,366.9,417.5,366.7z"/>
				<circle fill="#5813C4" cx="422.1" cy="415" r="4"/>
				<g>
					<path fill="#5813C4" d="M463.8,492.3c0-1.3-1-2.4-2.4-2.4c-0.6,0-1.2,0.3-1.6,0.7l-18.9,18.9c-0.9,0.9-0.9,2.4,0.1,3.3
						c0.9,0.9,2.4,0.9,3.3,0l18.9-18.9C463.5,493.5,463.8,492.9,463.8,492.3z"/>
					<path fill="#5813C4" d="M458.3,421.3c0.9-0.9,0.9-2.4,0-3.3l-18.9-18.9c-0.9-0.9-2.4-0.9-3.3,0.1c-0.9,0.9-0.9,2.4,0,3.3
						l18.9,18.9C455.9,422.2,457.4,422.2,458.3,421.3z"/>
					<circle fill="#5813C4" cx="514.2" cy="507.4" r="4"/>
					<circle fill="#5813C4" cx="523.7" cy="517.6" r="4"/>
					<circle fill="#5813C4" cx="474.9" cy="396.1" r="4"/>
					<circle fill="#5813C4" cx="486.8" cy="396.1" r="4"/>
					<circle fill="#5813C4" cx="443.2" cy="486.8" r="4"/>
				</g>
				<g>
					<path fill="#5813C4" d="M454.5,313.6c0.9-0.9,0.9-2.4,0-3.3c-0.4-0.4-1-0.7-1.6-0.7h-26.8c-1.3,0-2.4,1.2-2.2,2.4
						c0,1.2,1,2.2,2.2,2.2h26.8C453.5,314.4,454.1,314.1,454.5,313.6z"/>
				</g>
				<g>
					<path fill="#5813C4" d="M506.1,370.3c-0.6,0.7-1.6,1-2.5,0.7l-0.7-0.3l-65.6-22.6l-0.7-0.3c-0.9-0.3-1.5-1.2-1.6-2.1
						c0-1,0.6-1.9,1.5-2.2c0.1,0,16.1-7.1,28-39.8c0-0.1,0-0.3,0.1-0.4c3.1-8.8,11-14.6,19.6-15.5l5.1-14.7c0.4-1.2,1.8-1.9,3-1.5
						l0.6,0.3l13.4,4.6l0.6,0.3c1.2,0.4,1.9,1.8,1.5,3l-5.1,14.7c6.4,6.1,8.9,15.5,5.9,24.4c0,0.1-0.1,0.3-0.1,0.3
						c-10.7,33-2.7,48.5-2.5,48.6C506.9,368.5,506.9,369.5,506.1,370.3z M443.2,345.1l56.8,19.6c-1.8-7.3-3.3-22.3,3.9-47.9
						c2.8-10.1-1.9-20.1-11-23.5c-9.2-3-19.2,2.1-23.2,11.7C459.6,329.5,449.2,340.5,443.2,345.1z M493.5,276.9l-3.7,10.9
						c1.3,0.1,2.8,0.6,4.2,1c0.1,0,0.3,0.1,0.4,0.1c0.1,0,0.3,0.1,0.4,0.1c1.3,0.4,2.7,1,3.9,1.8l3.7-10.9L493.5,276.9z"/>
					<path fill="#5813C4" d="M482.6,365.7c-1.2-0.4-2.5,0.3-3,1.5c-1.9,5.7-8,8.6-13.7,6.7s-8.6-8-6.7-13.7c0.4-1.2-0.3-2.5-1.5-3
						c-1.2-0.4-2.5,0.3-3,1.5c-2.8,8,1.5,17,9.5,19.6s17-1.5,19.6-9.5C484.6,367.5,483.8,366.1,482.6,365.7z"/>
				</g>
				<g>
					<path fill="#5813C4" d="M510.7,492.9c-0.1-0.1-10.3-14.4-44.6-19.6c-0.1,0-0.3,0-0.4,0c-9.2-1.2-16.5-7.9-19-16.2l-15.5-2.1
						c-1.3-0.1-2.2-1.3-2.1-2.7l0.1-0.7l1.9-14l0.1-0.7c0.1-1.3,1.3-2.2,2.7-2.1l15.5,2.1c4.8-7.4,13.4-11.9,22.7-10.6
						c0.1,0,0.3,0,0.4,0.1c34.5,4,48-7,48.2-7.1c0.7-0.6,1.8-0.7,2.7-0.3c0.9,0.4,1.3,1.5,1.2,2.4l-0.1,0.7l-9.4,68.7l-0.1,0.7
						c-0.1,1-0.9,1.8-1.8,1.9C512.2,494.1,511.2,493.7,510.7,492.9z M471.5,432c-10.4-0.7-19.3,5.8-21,15.5
						c-1,9.7,5.8,18.4,16.1,20.4c26,5.1,38.8,13.2,44.5,18.1l8-59.5C512.4,429.6,497.8,433.9,471.5,432z M434.2,449.8l11.4,1.5
						c0-1.3,0-2.8,0.1-4.3c0-0.1,0-0.3,0-0.4c0-0.1,0-0.3,0-0.4c0.1-1.5,0.6-2.8,1-4.2l-11.4-1.5L434.2,449.8z"/>
					<path fill="#5813C4" d="M519.8,470.8c0.1-1.3,1.3-2.2,2.7-2.1c5.8,0.7,11.3-3.3,12-9.2c0.7-5.8-3.3-11.3-9.2-12
						c-1.3-0.1-2.2-1.3-2.1-2.7s1.3-2.2,2.7-2.1c8.5,1.2,14.4,8.9,13.2,17.4c-1.2,8.5-8.9,14.4-17.4,13.2
						C520.6,473.3,519.5,472.1,519.8,470.8z"/>
				</g>
			</g>
		</g>
		<g>
			<defs>
				<rect id="SVGID_9_" x="90.4" y="165.5" width="431.2" height="460.9"/>
			</defs>
			<clipPath id="SVGID_10_">
				<use xlink:href="#SVGID_9_"  overflow="visible"/>
			</clipPath>
			<g clip-path="url(#SVGID_10_)">
				<path fill="#5813C4" d="M315.1,368.9c-0.9-0.9-2.4-0.9-3.3,0.1c-0.9,0.9-0.9,2.4,0,3.3l18.9,18.9c0.9,0.9,2.4,0.9,3.3-0.1
					c0.9-0.9,0.9-2.4,0-3.3L315.1,368.9z"/>
				<path fill="#5813C4" d="M301.1,373.3c-0.9-0.9-2.4-0.9-3.3,0.1c-0.9,0.9-0.9,2.4,0,3.3l18.9,18.9c0.9,0.9,2.4,0.9,3.3-0.1
					c0.9-0.9,0.9-2.4,0-3.3L301.1,373.3z"/>
				<path fill="#5813C4" d="M209.8,475.3c1.3,0,2.4-1,2.4-2.4c0-0.6-0.3-1.2-0.7-1.6l-18.9-18.9c-0.9-0.9-2.4-0.9-3.3,0.1
					c-0.9,0.9-0.9,2.4,0,3.3l18.9,18.9C208.6,475,209.2,475.3,209.8,475.3z"/>
				<path fill="#5813C4" d="M305.6,293.6c0.9,0.9,2.4,0.9,3.3,0l18.9-18.9c0.9-0.9,0.9-2.4-0.1-3.3c-0.9-0.9-2.4-0.9-3.3,0
					l-18.9,18.9C304.7,291,304.7,292.5,305.6,293.6z"/>
				<path fill="#5813C4" d="M226.2,364.5l-18.9,18.9c-0.9,0.9-1,2.4-0.1,3.3c0.9,0.9,2.4,1,3.3,0.1l0.1-0.1l18.9-18.9
					c0.9-0.9,0.9-2.4-0.1-3.3C228.5,363.6,227,363.6,226.2,364.5L226.2,364.5z"/>
				<path fill="#5813C4" d="M212.2,357.2c3.9-2.4,8,1.6,5.7,5.7c-0.1,0.3-0.4,0.6-0.9,0.9c-3.9,2.4-8-1.6-5.7-5.7
					C211.6,357.6,211.9,357.3,212.2,357.2z"/>
				<path fill="#5813C4" d="M201.9,366.7c3.9-2.4,8,1.6,5.7,5.7c-0.1,0.3-0.4,0.6-0.9,0.9c-3.9,2.4-8-1.6-5.7-5.7
					C201.3,367.2,201.6,366.9,201.9,366.7z"/>
				<circle fill="#5813C4" cx="327" cy="316.9" r="4"/>
				<circle fill="#5813C4" cx="206.5" cy="415" r="4"/>
				<g>
					<path fill="#5813C4" d="M357.1,444.6c-0.9,0.9-0.9,2.4,0.1,3.3c0.9,0.9,2.4,0.9,3.3,0l18.9-18.9c0.9-0.9,0.9-2.4-0.1-3.3
						c-0.9-0.9-2.4-0.9-3.3,0L357.1,444.6z"/>
					<path fill="#5813C4" d="M357.1,465.3c-0.9,0.9-0.9,2.4,0.1,3.3c0.9,0.9,2.4,0.9,3.3,0l18.9-18.9c0.9-0.9,0.9-2.4-0.1-3.3
						c-0.9-0.9-2.4-0.9-3.3,0L357.1,465.3z"/>
					<path fill="#5813C4" d="M248.2,492.3c0-1.3-1-2.4-2.4-2.4c-0.6,0-1.2,0.3-1.6,0.7l-18.9,18.9c-0.9,0.9-0.9,2.4,0.1,3.3
						c0.9,0.9,2.4,0.9,3.3,0l18.9-18.9C247.9,493.5,248.2,492.9,248.2,492.3z"/>
					<path fill="#5813C4" d="M242.7,421.3c0.9-0.9,0.9-2.4,0-3.3l-18.9-18.9c-0.9-0.9-2.4-0.9-3.3,0.1c-0.9,0.9-0.9,2.4,0,3.3
						l18.9,18.9C240.3,422.2,241.8,422.2,242.7,421.3z"/>
					<path fill="#5813C4" d="M319.7,487l18.9,18.9c0.9,0.9,2.4,1,3.3,0.1c0.9-0.9,1-2.4,0.1-3.3l-0.1-0.1L323,483.7
						c-0.9-0.9-2.4-0.9-3.3,0.1C318.8,484.6,318.8,486.1,319.7,487L319.7,487z"/>
					<path fill="#5813C4" d="M342.6,490.1l18.9,18.9c0.9,0.9,2.4,1,3.3,0.1c0.9-0.9,1-2.4,0.1-3.3l-0.1-0.1l-18.9-18.9
						c-0.9-0.9-2.4-0.9-3.3,0.1C341.8,487.9,341.8,489.2,342.6,490.1L342.6,490.1z"/>
					<circle fill="#5813C4" cx="298.6" cy="507.4" r="4"/>
					<circle fill="#5813C4" cx="308.1" cy="517.6" r="4"/>
					<circle fill="#5813C4" cx="259.3" cy="396.1" r="4"/>
					<circle fill="#5813C4" cx="271.2" cy="396.1" r="4"/>
					<circle fill="#5813C4" cx="338.4" cy="417.6" r="4"/>
					<circle fill="#5813C4" cx="376" cy="475.3" r="4"/>
					<circle fill="#5813C4" cx="227.6" cy="486.8" r="4"/>
				</g>
				<g>
					<path fill="#5813C4" d="M238.9,313.6c0.9-0.9,0.9-2.4,0-3.3c-0.4-0.4-1-0.7-1.6-0.7h-26.8c-1.3,0-2.4,1.2-2.2,2.4
						c0,1.2,1,2.2,2.2,2.2h26.8C237.9,314.4,238.5,314.1,238.9,313.6z"/>
					<path fill="#5813C4" d="M380.5,322.5c0.9,0.9,2.5,0.9,3.3-0.1l18.1-19.8c0.9-1,0.7-2.5-0.3-3.3c-0.9-0.7-2.4-0.7-3.3,0.1
						l-18.1,19.8C379.5,320.2,379.5,321.7,380.5,322.5z"/>
					<circle fill="#5813C4" cx="387.2" cy="465.3" r="4"/>
					<circle fill="#5813C4" cx="328.6" cy="426.8" r="4"/>
					<circle fill="#5813C4" cx="373.2" cy="289.5" r="4"/>
					<circle fill="#5813C4" cx="363.2" cy="298.8" r="4"/>
					<circle fill="#5813C4" cx="419.4" cy="325.2" r="4"/>
					<circle fill="#5813C4" cx="326.8" cy="333.3" r="4"/>
				</g>
				<g>
					<path fill="#5813C4" d="M290.5,370.3c-0.6,0.7-1.6,1-2.5,0.7l-0.7-0.3l-65.6-22.6l-0.7-0.3c-0.9-0.3-1.5-1.2-1.6-2.1
						c0-1,0.6-1.9,1.5-2.2c0.1,0,16.1-7.1,28-39.8c0-0.1,0-0.3,0.1-0.4c3.1-8.8,11-14.6,19.6-15.5l5.1-14.7c0.4-1.2,1.8-1.9,3-1.5
						l0.6,0.3l13.4,4.6l0.6,0.3c1.2,0.4,1.9,1.8,1.5,3l-5.1,14.7c6.4,6.1,8.9,15.5,5.9,24.4c0,0.1-0.1,0.3-0.1,0.3
						c-10.7,33-2.7,48.5-2.5,48.6C291.3,368.5,291.3,369.5,290.5,370.3z M227.6,345.1l56.8,19.6c-1.8-7.3-3.3-22.3,3.9-47.9
						c2.8-10.1-1.9-20.1-11-23.5c-9.2-3-19.2,2.1-23.2,11.7C244,329.5,233.6,340.5,227.6,345.1z M277.9,276.9l-3.7,10.9
						c1.3,0.1,2.8,0.6,4.2,1c0.1,0,0.3,0.1,0.4,0.1c0.1,0,0.3,0.1,0.4,0.1c1.3,0.4,2.7,1,3.9,1.8l3.7-10.9L277.9,276.9z"/>
					<path fill="#5813C4" d="M267,365.7c-1.2-0.4-2.5,0.3-3,1.5c-1.9,5.7-8,8.6-13.7,6.7s-8.6-8-6.7-13.7c0.4-1.2-0.3-2.5-1.5-3
						c-1.2-0.4-2.5,0.3-3,1.5c-2.8,8,1.5,17,9.5,19.6c8,2.8,17-1.5,19.6-9.5C269,367.5,268.2,366.1,267,365.7z"/>
				</g>
				<g>
					<path fill="#5813C4" d="M295.1,492.9c-0.1-0.1-10.3-14.4-44.6-19.6c-0.1,0-0.3,0-0.4,0c-9.2-1.2-16.5-7.9-19-16.2l-15.5-2.1
						c-1.3-0.1-2.2-1.3-2.1-2.7l0.1-0.7l1.9-14l0.1-0.7c0.1-1.3,1.3-2.2,2.7-2.1l15.5,2.1c4.8-7.4,13.4-11.9,22.7-10.6
						c0.1,0,0.3,0,0.4,0.1c34.5,4,48-7,48.2-7.1c0.7-0.6,1.8-0.7,2.7-0.3s1.3,1.5,1.2,2.4l-0.1,0.7l-9.4,68.7l-0.1,0.7
						c-0.1,1-0.9,1.8-1.8,1.9C296.6,494.1,295.6,493.7,295.1,492.9z M255.9,432c-10.4-0.7-19.3,5.8-21,15.5
						c-1,9.7,5.8,18.4,16.1,20.4c26,5.1,38.8,13.2,44.5,18.1l8-59.5C296.8,429.6,282.2,433.9,255.9,432z M218.6,449.8l11.4,1.5
						c0-1.3,0-2.8,0.1-4.3c0-0.1,0-0.3,0-0.4c0-0.1,0-0.3,0-0.4c0.1-1.5,0.6-2.8,1-4.2l-11.4-1.5L218.6,449.8z"/>
					<path fill="#5813C4" d="M304.2,470.8c0.1-1.3,1.3-2.2,2.7-2.1c5.8,0.7,11.3-3.3,12-9.2c0.7-5.8-3.3-11.3-9.2-12
						c-1.3-0.1-2.2-1.3-2.1-2.7c0.1-1.3,1.3-2.2,2.7-2.1c8.5,1.2,14.4,8.9,13.2,17.4c-1.2,8.5-8.9,14.4-17.4,13.2
						C305,473.3,303.9,472.1,304.2,470.8z"/>
				</g>
				<g>
					<path fill="#5813C4" d="M399.1,335.8c0,0.1-6.1,16.5,9.1,47.9c0.1,0.1,0.1,0.1,0.1,0.3c4.2,8.3,2.8,18-2.5,25l7,14
						c0.6,1.2,0.1,2.5-1,3.1l-0.6,0.3l-12.6,6.4l-0.6,0.3c-1.2,0.6-2.5,0.1-3.1-1l-7-14c-8.8,0.3-17.4-4.3-21.6-12.8
						c0-0.1-0.1-0.3-0.1-0.4c-16.2-30.8-33-35.7-33.2-35.7c-0.9-0.3-1.6-1-1.8-2.1c-0.1-1,0.4-1.9,1.3-2.4l0.7-0.3l62-31.2l0.7-0.3
						c0.9-0.4,1.9-0.3,2.7,0.3C399.2,333.8,399.5,334.9,399.1,335.8z M371.1,402.7c5.2,9.1,15.8,12.6,24.5,8.5
						c8.6-4.6,11.9-15.2,7.7-24.8c-10.6-24.2-11.2-39.4-10.3-46.8l-53.5,27.1C346,370.4,357.7,379.8,371.1,402.7z M407,423.2
						l-5.2-10.3c-1.2,0.9-2.4,1.6-3.6,2.2c-0.1,0-0.3,0.1-0.4,0.1c-0.1,0-0.3,0.1-0.4,0.1c-1.3,0.6-2.7,1.2-4,1.5l5.2,10.3
						L407,423.2z"/>
					<path fill="#5813C4" d="M375.7,340.8c-1.2,0.6-2.5,0.1-3.1-1c-2.7-5.4-9.1-7.4-14.4-4.8c-5.4,2.7-7.4,9.1-4.8,14.4
						c0.6,1.2,0.1,2.5-1,3.1c-1.2,0.6-2.5,0.1-3.1-1c-3.9-7.6-0.7-17,6.8-20.8s17-0.7,20.8,6.8C377.4,338.9,376.9,340.2,375.7,340.8
						z"/>
				</g>
			</g>
		</g>
		<g>
			<defs>
				<rect id="SVGID_11_" x="90.4" y="165.5" width="431.2" height="460.9"/>
			</defs>
			<clipPath id="SVGID_12_">
				<use xlink:href="#SVGID_11_"  overflow="visible"/>
			</clipPath>
			<g clip-path="url(#SVGID_12_)">
				<path fill="#5813C4" d="M99.5,368.9c-0.9-0.9-2.4-0.9-3.3,0.1c-0.9,0.9-0.9,2.4,0,3.3l18.9,18.9c0.9,0.9,2.4,0.9,3.3-0.1
					c0.9-0.9,0.9-2.4,0-3.3L99.5,368.9z"/>
				<path fill="#5813C4" d="M85.5,373.3c-0.9-0.9-2.4-0.9-3.3,0.1c-0.9,0.9-0.9,2.4,0,3.3l18.9,18.9c0.9,0.9,2.4,0.9,3.3-0.1
					c0.9-0.9,0.9-2.4,0-3.3L85.5,373.3z"/>
				<path fill="#5813C4" d="M90,293.6c0.9,0.9,2.4,0.9,3.3,0l18.9-18.9c0.9-0.9,0.9-2.4-0.1-3.3c-0.9-0.9-2.4-0.9-3.3,0l-18.9,18.9
					C89.1,291,89.1,292.5,90,293.6z"/>
				<circle fill="#5813C4" cx="111.4" cy="316.9" r="4"/>
				<g>
					<path fill="#5813C4" d="M141.6,444.6c-0.9,0.9-0.9,2.4,0.1,3.3c0.9,0.9,2.4,0.9,3.3,0l18.9-18.9c0.9-0.9,0.9-2.4-0.1-3.3
						c-0.9-0.9-2.4-0.9-3.3,0L141.6,444.6z"/>
					<path fill="#5813C4" d="M141.6,465.3c-0.9,0.9-0.9,2.4,0.1,3.3c0.9,0.9,2.4,0.9,3.3,0l18.9-18.9c0.9-0.9,0.9-2.4-0.1-3.3
						c-0.9-0.9-2.4-0.9-3.3,0L141.6,465.3z"/>
					<path fill="#5813C4" d="M104.1,487l18.9,18.9c0.9,0.9,2.4,1,3.3,0.1c0.9-0.9,1-2.4,0.1-3.3l-0.1-0.1l-18.9-18.9
						c-0.9-0.9-2.4-0.9-3.3,0.1C103.2,484.6,103.2,486.1,104.1,487L104.1,487z"/>
					<path fill="#5813C4" d="M127,490.1l18.9,18.9c0.9,0.9,2.4,1,3.3,0.1c0.9-0.9,1-2.4,0.1-3.3l-0.1-0.1l-18.9-18.9
						c-0.9-0.9-2.4-0.9-3.3,0.1C126.2,487.9,126.2,489.2,127,490.1L127,490.1z"/>
					<circle fill="#5813C4" cx="92.5" cy="517.6" r="4"/>
					<circle fill="#5813C4" cx="122.8" cy="417.6" r="4"/>
					<circle fill="#5813C4" cx="160.4" cy="475.3" r="4"/>
				</g>
				<g>
					<path fill="#5813C4" d="M164.9,322.5c0.9,0.9,2.5,0.9,3.3-0.1l18.1-19.8c0.9-1,0.7-2.5-0.3-3.3c-0.9-0.7-2.4-0.7-3.3,0.1
						l-18.1,19.8C163.9,320.2,163.9,321.7,164.9,322.5z"/>
					<circle fill="#5813C4" cx="171.6" cy="465.3" r="4"/>
					<circle fill="#5813C4" cx="113" cy="426.8" r="4"/>
					<circle fill="#5813C4" cx="157.6" cy="289.5" r="4"/>
					<circle fill="#5813C4" cx="147.6" cy="298.8" r="4"/>
					<circle fill="#5813C4" cx="203.9" cy="325.2" r="4"/>
					<circle fill="#5813C4" cx="111.2" cy="333.3" r="4"/>
				</g>
				<g>
					<path fill="#5813C4" d="M79.5,492.9c-0.1-0.1-10.3-14.4-44.6-19.6c-0.1,0-0.3,0-0.4,0c-9.2-1.2-16.5-7.9-19-16.2L0,454.9
						c-1.3-0.1-2.2-1.3-2.1-2.7l0.1-0.7l1.9-14v-0.6c0.1-1.3,1.3-2.2,2.7-2.1l15.5,2.1c4.8-7.4,13.4-11.9,22.7-10.6
						c0.1,0,0.3,0,0.4,0.1c34.5,4,48-7,48.2-7.1c0.7-0.6,1.8-0.7,2.7-0.3s1.3,1.5,1.2,2.4l-0.1,0.7l-9.4,68.7l-0.1,0.7
						c-0.1,1-0.9,1.8-1.8,1.9C81,494.1,80,493.7,79.5,492.9z M40.3,432c-10.4-0.7-19.3,5.8-21,15.5c-1,9.7,5.8,18.4,16.1,20.4
						c26,5.1,38.8,13.2,44.5,18.1l8-59.5C81.2,429.6,66.6,433.9,40.3,432z M3,449.8l11.4,1.5c0-1.3,0-2.8,0.1-4.3c0-0.1,0-0.3,0-0.4
						c0-0.1,0-0.3,0-0.4c0.1-1.5,0.6-2.8,1-4.2l-11.4-1.5L3,449.8z"/>
					<path fill="#5813C4" d="M88.6,470.8c0.1-1.3,1.3-2.2,2.7-2.1c5.8,0.7,11.3-3.3,12-9.2c0.7-5.8-3.3-11.3-9.2-12
						c-1.3-0.1-2.2-1.3-2.1-2.7c0.1-1.3,1.3-2.2,2.7-2.1c8.5,1.2,14.4,8.9,13.2,17.4c-1.2,8.5-8.9,14.4-17.4,13.2
						C89.4,473.3,88.3,472.1,88.6,470.8z"/>
				</g>
				<g>
					<path fill="#5813C4" d="M183.5,335.8c0,0.1-6.1,16.5,9.1,47.9c0.1,0.1,0.1,0.1,0.1,0.3c4.2,8.3,2.8,18-2.5,25l7,14
						c0.6,1.2,0.1,2.5-1,3.1l-0.6,0.3l-12.6,6.4l-0.6,0.3c-1.2,0.6-2.5,0.1-3.1-1l-7-14c-8.8,0.3-17.4-4.3-21.6-12.8
						c0-0.1-0.1-0.3-0.1-0.4c-16.2-30.8-33-35.7-33.2-35.7c-0.9-0.3-1.6-1-1.8-2.1c-0.1-1,0.4-1.9,1.3-2.4l0.7-0.3l62-31.2l0.7-0.3
						c0.9-0.4,1.9-0.3,2.7,0.3C183.6,333.8,183.9,334.9,183.5,335.8z M155.5,402.7c5.2,9.1,15.8,12.6,24.5,8.5
						c8.6-4.6,11.9-15.2,7.7-24.8c-10.6-24.2-11.2-39.4-10.3-46.8L124,366.6C130.4,370.4,142.1,379.8,155.5,402.7z M191.4,423.2
						l-5.2-10.3c-1.2,0.9-2.4,1.6-3.6,2.2c-0.1,0-0.3,0.1-0.4,0.1c-0.1,0-0.3,0.1-0.4,0.1c-1.3,0.6-2.7,1.2-4,1.5l5.2,10.3
						L191.4,423.2z"/>
					<path fill="#5813C4" d="M160.1,340.8c-1.2,0.6-2.5,0.1-3.1-1c-2.7-5.4-9.1-7.4-14.4-4.8c-5.4,2.7-7.4,9.1-4.8,14.4
						c0.6,1.2,0.1,2.5-1,3.1c-1.2,0.6-2.5,0.1-3.1-1c-3.9-7.6-0.7-17,6.8-20.8s17-0.7,20.8,6.8C161.8,338.9,161.3,340.2,160.1,340.8
						z"/>
				</g>
			</g>
		</g>
		<g>
			<defs>
				<rect id="SVGID_13_" x="90.4" y="165.5" width="431.2" height="460.9"/>
			</defs>
			<clipPath id="SVGID_14_">
				<use xlink:href="#SVGID_13_"  overflow="visible"/>
			</clipPath>
			<g clip-path="url(#SVGID_14_)">
				<path fill="#5813C4" d="M533.2,244.8c1.3,0,2.4-1,2.4-2.4c0-0.6-0.3-1.2-0.7-1.6l-18.9-19c-0.9-0.9-2.4-0.9-3.3,0.1
					c-0.9,0.9-0.9,2.4,0,3.3l18.9,18.9C532,244.5,532.6,244.8,533.2,244.8z"/>
			</g>
		</g>
		<g>
			<defs>
				<rect id="SVGID_15_" x="90.4" y="165.5" width="431.2" height="460.9"/>
			</defs>
			<clipPath id="SVGID_16_">
				<use xlink:href="#SVGID_15_"  overflow="visible"/>
			</clipPath>
			<g clip-path="url(#SVGID_16_)">
				<path fill="#5813C4" d="M408.9,142.8c-0.9-0.9-2.4-0.9-3.3,0.1c-0.9,0.9-0.9,2.4,0,3.3l18.9,18.9c0.9,0.9,2.4,0.9,3.3-0.1
					c0.9-0.9,0.9-2.4,0-3.3L408.9,142.8z"/>
				<path fill="#5813C4" d="M317.6,244.8c1.3,0,2.4-1,2.4-2.4c0-0.6-0.3-1.2-0.7-1.6l-18.9-19c-0.9-0.9-2.4-0.9-3.3,0.1
					c-0.9,0.9-0.9,2.4,0,3.3L316,244C316.4,244.5,317,244.8,317.6,244.8z"/>
				<circle fill="#5813C4" cx="314.3" cy="184.6" r="4"/>
				<g>
					<path fill="#5813C4" d="M464.9,214.2c-0.9,0.9-0.9,2.4,0.1,3.3c0.9,0.9,2.4,0.9,3.3,0l18.9-18.9c0.9-0.9,0.9-2.4-0.1-3.3
						c-0.9-0.9-2.4-0.9-3.3,0L464.9,214.2z"/>
					<path fill="#5813C4" d="M464.9,234.8c-0.9,0.9-0.9,2.4,0.1,3.3c0.9,0.9,2.4,0.9,3.3,0l18.9-18.9c0.9-0.9,0.9-2.4-0.1-3.3
						c-0.9-0.9-2.4-0.9-3.3,0L464.9,234.8z"/>
					<path fill="#5813C4" d="M356,261.9c0-1.3-1-2.4-2.4-2.4c-0.6,0-1.2,0.3-1.6,0.7l-18.9,18.9c-0.9,0.9-0.9,2.4,0.1,3.3
						c0.9,0.9,2.4,0.9,3.3,0l18.9-18.9C355.7,263.1,356,262.5,356,261.9z"/>
					<path fill="#5813C4" d="M350.5,190.8c0.9-0.9,0.9-2.4,0-3.3l-18.9-19c-0.9-0.9-2.4-0.9-3.3,0.1c-0.9,0.9-0.9,2.4,0,3.3
						l18.9,18.9C348.1,191.7,349.6,191.7,350.5,190.8z"/>
					<path fill="#5813C4" d="M427.5,256.5l18.9,18.9c0.9,0.9,2.4,1,3.3,0.1c0.9-0.9,1-2.4,0.1-3.3l-0.1-0.1l-18.9-18.9
						c-0.9-0.9-2.4-0.9-3.3,0.1C426.6,254.2,426.6,255.6,427.5,256.5L427.5,256.5z"/>
					<path fill="#5813C4" d="M450.4,259.7l18.9,18.9c0.9,0.9,2.4,1,3.3,0.1c0.9-0.9,1-2.4,0.1-3.3l-0.1-0.1l-18.9-18.9
						c-0.9-0.9-2.4-0.9-3.3,0.1C449.6,257.4,449.6,258.8,450.4,259.7L450.4,259.7z"/>
					<circle fill="#5813C4" cx="406.4" cy="276.9" r="4"/>
					<circle fill="#5813C4" cx="415.9" cy="287.2" r="4"/>
					<circle fill="#5813C4" cx="367.1" cy="165.7" r="4"/>
					<circle fill="#5813C4" cx="379" cy="165.7" r="4"/>
					<circle fill="#5813C4" cx="446.2" cy="187.1" r="4"/>
					<circle fill="#5813C4" cx="483.8" cy="244.8" r="4"/>
					<circle fill="#5813C4" cx="335.4" cy="256.4" r="4"/>
				</g>
				<g>
					<circle fill="#5813C4" cx="495" cy="234.8" r="4"/>
					<circle fill="#5813C4" cx="436.4" cy="196.3" r="4"/>
				</g>
				<g>
					<path fill="#5813C4" d="M402.9,262.5c-0.1-0.1-10.3-14.4-44.6-19.6c-0.1,0-0.3,0-0.4,0c-9.2-1.2-16.5-7.9-19-16.2l-15.5-2.1
						c-1.3-0.1-2.2-1.3-2.1-2.7l0.1-0.7l1.9-14l0.1-0.7c0.1-1.3,1.3-2.2,2.7-2.1l15.5,2.1c4.8-7.4,13.4-11.9,22.7-10.6
						c0.1,0,0.3,0,0.4,0.1c34.5,4,48-7,48.2-7.1c0.7-0.6,1.8-0.7,2.7-0.3c0.9,0.4,1.3,1.5,1.2,2.4l-0.1,0.7l-9.4,68.7l-0.1,0.7
						c-0.1,1-0.9,1.8-1.8,1.9C404.4,263.7,403.4,263.2,402.9,262.5z M363.7,201.5c-10.4-0.7-19.3,5.8-21,15.5
						c-1,9.7,5.8,18.4,16.1,20.4c26,5.1,38.8,13.2,44.5,18.1l8-59.5C404.6,199.1,390,203.4,363.7,201.5z M326.4,219.4l11.4,1.5
						c0-1.3,0-2.8,0.1-4.3c0-0.1,0-0.3,0-0.4c0-0.1,0-0.3,0-0.4c0.1-1.5,0.6-2.8,1-4.2l-11.4-1.5L326.4,219.4z"/>
					<path fill="#5813C4" d="M412,240.3c0.1-1.3,1.3-2.2,2.7-2.1c5.8,0.7,11.3-3.3,12-9.2c0.7-5.8-3.3-11.3-9.2-12
						c-1.3-0.1-2.2-1.3-2.1-2.7c0.1-1.3,1.3-2.2,2.7-2.1c8.5,1.2,14.4,8.9,13.2,17.4c-1.2,8.5-8.9,14.4-17.4,13.2
						C412.8,242.9,411.7,241.7,412,240.3z"/>
				</g>
				<g>
					<path fill="#5813C4" d="M506.9,105.3c0,0.1-6.1,16.5,9.1,47.9c0.1,0.1,0.1,0.1,0.1,0.3c4.2,8.3,2.8,18-2.5,25l7,14
						c0.6,1.2,0.1,2.5-1,3.1l-0.6,0.4l-12.6,6.4l-0.6,0.3c-1.2,0.6-2.5,0.1-3.1-1l-7-14c-8.8,0.3-17.4-4.3-21.6-12.8
						c0-0.1-0.1-0.3-0.1-0.4c-16.2-30.8-33-35.7-33.2-35.7c-0.9-0.3-1.6-1-1.8-2.1c-0.1-1,0.4-1.9,1.3-2.4l0.7-0.3l62-31.2l0.7-0.3
						c0.9-0.4,1.9-0.3,2.7,0.3C507,103.4,507.3,104.4,506.9,105.3z M478.9,172.2c5.2,9.1,15.8,12.6,24.5,8.5
						c8.6-4.6,11.9-15.2,7.7-24.8c-10.6-24.2-11.2-39.4-10.3-46.8l-53.5,27.1C453.8,140,465.5,149.3,478.9,172.2z M514.8,192.7
						l-5.2-10.3c-1.2,0.9-2.4,1.6-3.6,2.2c-0.1,0-0.3,0.1-0.4,0.1c-0.1,0-0.3,0.1-0.4,0.1c-1.3,0.6-2.7,1.2-4,1.5l5.2,10.3
						L514.8,192.7z"/>
				</g>
			</g>
		</g>
		<g>
			<defs>
				<rect id="SVGID_17_" x="90.4" y="165.5" width="431.2" height="460.9"/>
			</defs>
			<clipPath id="SVGID_18_">
				<use xlink:href="#SVGID_17_"  overflow="visible"/>
			</clipPath>
			<g clip-path="url(#SVGID_18_)">
				<path fill="#5813C4" d="M193.3,142.8c-0.9-0.9-2.4-0.9-3.3,0.1c-0.9,0.9-0.9,2.4,0,3.3l18.9,18.9c0.9,0.9,2.4,0.9,3.3-0.1
					c0.9-0.9,0.9-2.4,0-3.3L193.3,142.8z"/>
				<path fill="#5813C4" d="M102,244.8c1.3,0,2.4-1,2.4-2.4c0-0.6-0.3-1.2-0.7-1.6l-18.9-19c-0.9-0.9-2.4-0.9-3.3,0.1
					c-0.9,0.9-0.9,2.4,0,3.3l18.9,18.9C100.8,244.5,101.4,244.8,102,244.8z"/>
				<circle fill="#5813C4" cx="98.7" cy="184.6" r="4"/>
				<g>
					<path fill="#5813C4" d="M249.3,214.2c-0.9,0.9-0.9,2.4,0.1,3.3c0.9,0.9,2.4,0.9,3.3,0l18.9-18.9c0.9-0.9,0.9-2.4-0.1-3.3
						c-0.9-0.9-2.4-0.9-3.3,0L249.3,214.2z"/>
					<path fill="#5813C4" d="M249.3,234.8c-0.9,0.9-0.9,2.4,0.1,3.3c0.9,0.9,2.4,0.9,3.3,0l18.9-18.9c0.9-0.9,0.9-2.4-0.1-3.3
						c-0.9-0.9-2.4-0.9-3.3,0L249.3,234.8z"/>
					<path fill="#5813C4" d="M140.4,261.9c0-1.3-1-2.4-2.4-2.4c-0.6,0-1.2,0.3-1.6,0.7l-18.9,18.9c-0.9,0.9-0.9,2.4,0.1,3.3
						c0.9,0.9,2.4,0.9,3.3,0l18.9-18.9C140.1,263.1,140.4,262.5,140.4,261.9z"/>
					<path fill="#5813C4" d="M134.9,190.8c0.9-0.9,0.9-2.4,0-3.3l-18.9-19c-0.9-0.9-2.4-0.9-3.3,0.1c-0.9,0.9-0.9,2.4,0,3.3
						l18.9,18.9C132.5,191.7,134,191.7,134.9,190.8z"/>
					<path fill="#5813C4" d="M211.9,256.5l18.9,18.9c0.9,0.9,2.4,1,3.3,0.1c0.9-0.9,1-2.4,0.1-3.3l-0.1-0.1l-18.9-18.9
						c-0.9-0.9-2.4-0.9-3.3,0.1C211,254.2,211,255.6,211.9,256.5L211.9,256.5z"/>
					<path fill="#5813C4" d="M234.8,259.7l18.9,18.9c0.9,0.9,2.4,1,3.3,0.1c0.9-0.9,1-2.4,0.1-3.3l-0.1-0.1L238,256.4
						c-0.9-0.9-2.4-0.9-3.3,0.1C234,257.4,234,258.8,234.8,259.7L234.8,259.7z"/>
					<circle fill="#5813C4" cx="190.8" cy="276.9" r="4"/>
					<circle fill="#5813C4" cx="200.3" cy="287.2" r="4"/>
					<circle fill="#5813C4" cx="151.5" cy="165.7" r="4"/>
					<circle fill="#5813C4" cx="163.4" cy="165.7" r="4"/>
					<circle fill="#5813C4" cx="230.6" cy="187.1" r="4"/>
					<circle fill="#5813C4" cx="268.2" cy="244.8" r="4"/>
					<circle fill="#5813C4" cx="119.8" cy="256.4" r="4"/>
				</g>
				<g>
					<circle fill="#5813C4" cx="279.4" cy="234.8" r="4"/>
					<circle fill="#5813C4" cx="220.8" cy="196.3" r="4"/>
				</g>
				<g>
					<path fill="#5813C4" d="M187.3,262.5c-0.1-0.1-10.3-14.4-44.6-19.6c-0.1,0-0.3,0-0.4,0c-9.2-1.2-16.5-7.9-19-16.2l-15.5-2.1
						c-1.3-0.1-2.2-1.3-2.1-2.7l0.1-0.7l1.9-14l0.1-0.7c0.1-1.3,1.3-2.2,2.7-2.1l15.5,2.1c4.8-7.4,13.4-11.9,22.7-10.6
						c0.1,0,0.3,0,0.4,0.1c34.5,4,48-7,48.2-7.1c0.7-0.6,1.8-0.7,2.7-0.3s1.3,1.5,1.2,2.4l-0.1,0.7l-9.4,68.7l-0.1,0.7
						c-0.1,1-0.9,1.8-1.8,1.9C188.8,263.7,187.8,263.2,187.3,262.5z M148.1,201.5c-10.4-0.7-19.3,5.8-21,15.5
						c-1,9.7,5.8,18.4,16.1,20.4c26,5.1,38.8,13.2,44.5,18.1l8-59.5C189,199.1,174.4,203.4,148.1,201.5z M110.8,219.4l11.4,1.5
						c0-1.3,0-2.8,0.1-4.3c0-0.1,0-0.3,0-0.4c0-0.1,0-0.3,0-0.4c0.1-1.5,0.6-2.8,1-4.2L112,210L110.8,219.4z"/>
					<path fill="#5813C4" d="M196.4,240.3c0.1-1.3,1.3-2.2,2.7-2.1c5.8,0.7,11.3-3.3,12-9.2c0.7-5.8-3.3-11.3-9.2-12
						c-1.3-0.1-2.2-1.3-2.1-2.7s1.3-2.2,2.7-2.1c8.5,1.2,14.4,8.9,13.2,17.4c-1.2,8.5-8.9,14.4-17.4,13.2
						C197.2,242.9,196.1,241.7,196.4,240.3z"/>
				</g>
				<g>
					<path fill="#5813C4" d="M291.3,105.3c0,0.1-6.1,16.5,9.1,47.9c0.1,0.1,0.1,0.1,0.1,0.3c4.2,8.3,2.8,18-2.5,25l7,14
						c0.6,1.2,0.1,2.5-1,3.1l-0.6,0.4l-12.6,6.4l-0.6,0.3c-1.2,0.6-2.5,0.1-3.1-1l-7-14c-8.8,0.3-17.4-4.3-21.6-12.8
						c0-0.1-0.1-0.3-0.1-0.4c-16.2-30.8-33-35.7-33.2-35.7c-0.9-0.3-1.6-1-1.8-2.1c-0.1-1,0.4-1.9,1.3-2.4l0.7-0.3l62-31.2l0.7-0.3
						c0.9-0.4,1.9-0.3,2.7,0.3C291.4,103.4,291.7,104.4,291.3,105.3z M263.3,172.2c5.2,9.1,15.8,12.6,24.5,8.5
						c8.6-4.6,11.9-15.2,7.7-24.8c-10.6-24.2-11.2-39.4-10.3-46.8l-53.5,27.1C238.2,140,249.9,149.3,263.3,172.2z M299.2,192.7
						l-5.2-10.3c-1.2,0.9-2.4,1.6-3.6,2.2c-0.1,0-0.3,0.1-0.4,0.1c-0.1,0-0.3,0.1-0.4,0.1c-1.3,0.6-2.7,1.2-4,1.5l5.2,10.3
						L299.2,192.7z"/>
				</g>
			</g>
		</g>
	</g>
</g>
</svg>
